<svg width="29" height="19" viewBox="0 0 29 19" fill="none" xmlns="http://www.w3.org/2000/svg">
<path d="M26.1348 1C27.1691 1 28.0107 1.84169 28.0107 2.87598V10.0039C28.0106 11.038 27.1689 11.8789 26.1348 11.8789H2.87598C1.8418 11.8789 1.00018 11.038 1 10.0039V2.87598C1 1.84169 1.84169 1 2.87598 1H26.1348ZM1.75 8.87793V10.0039C1.75018 10.6243 2.25559 11.1289 2.87598 11.1289H26.1348C26.7552 11.1289 27.2606 10.6243 27.2607 10.0039V8.87793H1.75ZM2.87598 1.75C2.25548 1.75 1.75 2.25548 1.75 2.87598V8.12793H27.2607V2.87598C27.2607 2.25548 26.7553 1.75 26.1348 1.75H2.87598Z" fill="#9897AD"/>
<path d="M28.0107 10.0039L28.2607 10.004V10.0039H28.0107ZM1 10.0039H0.75V10.004L1 10.0039ZM1.75 8.87793V8.62793H1.5V8.87793H1.75ZM1.75 10.0039H1.5V10.004L1.75 10.0039ZM27.2607 10.0039L27.5107 10.004V10.0039H27.2607ZM27.2607 8.87793H27.5107V8.62793H27.2607V8.87793ZM1.75 8.12793H1.5V8.37793H1.75V8.12793ZM27.2607 8.12793V8.37793H27.5107V8.12793H27.2607ZM26.1348 1V1.25C27.031 1.25 27.7607 1.97976 27.7607 2.87598H28.0107H28.2607C28.2607 1.70362 27.3071 0.75 26.1348 0.75V1ZM28.0107 2.87598H27.7607V10.0039H28.0107H28.2607V2.87598H28.0107ZM28.0107 10.0039L27.7607 10.0039C27.7606 10.8998 27.031 11.6289 26.1348 11.6289V11.8789V12.1289C27.3069 12.1289 28.2605 11.1762 28.2607 10.004L28.0107 10.0039ZM26.1348 11.8789V11.6289H2.87598V11.8789V12.1289H26.1348V11.8789ZM2.87598 11.8789V11.6289C1.97975 11.6289 1.25016 10.8998 1.25 10.0039L1 10.0039L0.75 10.004C0.750204 11.1762 1.70386 12.1289 2.87598 12.1289V11.8789ZM1 10.0039H1.25V2.87598H1H0.75V10.0039H1ZM1 2.87598H1.25C1.25 1.97976 1.97976 1.25 2.87598 1.25V1V0.75C1.70362 0.75 0.75 1.70362 0.75 2.87598H1ZM2.87598 1V1.25H26.1348V1V0.75H2.87598V1ZM1.75 8.87793H1.5V10.0039H1.75H2V8.87793H1.75ZM1.75 10.0039L1.5 10.004C1.50022 10.7625 2.11773 11.3789 2.87598 11.3789V11.1289V10.8789C2.39345 10.8789 2.00014 10.486 2 10.0038L1.75 10.0039ZM2.87598 11.1289V11.3789H26.1348V11.1289V10.8789H2.87598V11.1289ZM26.1348 11.1289V11.3789C26.893 11.3789 27.5105 10.7625 27.5107 10.004L27.2607 10.0039L27.0107 10.0038C27.0106 10.486 26.6173 10.8789 26.1348 10.8789V11.1289ZM27.2607 10.0039H27.5107V8.87793H27.2607H27.0107V10.0039H27.2607ZM27.2607 8.87793V8.62793H1.75V8.87793V9.12793H27.2607V8.87793ZM2.87598 1.75V1.5C2.11741 1.5 1.5 2.11741 1.5 2.87598H1.75H2C2 2.39355 2.39355 2 2.87598 2V1.75ZM1.75 2.87598H1.5V8.12793H1.75H2V2.87598H1.75ZM1.75 8.12793V8.37793H27.2607V8.12793V7.87793H1.75V8.12793ZM27.2607 8.12793H27.5107V2.87598H27.2607H27.0107V8.12793H27.2607ZM27.2607 2.87598H27.5107C27.5107 2.11741 26.8933 1.5 26.1348 1.5V1.75V2C26.6172 2 27.0107 2.39355 27.0107 2.87598H27.2607ZM26.1348 1.75V1.5H2.87598V1.75V2H26.1348V1.75Z" fill="#9897AD"/>
<rect x="3.87573" y="5.87692" width="3.00119" height="0.750298" rx="0.375149" fill="#9897AD"/>
<rect x="7.62723" y="5.87692" width="0.750298" height="0.750298" rx="0.375149" fill="#9897AD"/>
<path d="M6.25209 13.3799H5.50179C5.50179 13.6785 5.3885 13.8106 5.21706 14.0109C5.0096 14.2525 4.7515 14.5538 4.7515 15.13C4.7515 15.7066 5.0096 16.0075 5.21706 16.2494C5.3885 16.4498 5.50179 16.5818 5.50179 16.8808C5.50179 17.1798 5.3885 17.3122 5.21668 17.5122C5.0096 17.7541 4.7515 18.0554 4.7515 18.632H5.50179C5.50179 18.333 5.61509 18.2006 5.78691 18.0006C5.99399 17.7587 6.25209 17.457 6.25209 16.8808C6.25209 16.3046 5.99436 16.0033 5.78691 15.7614C5.61509 15.5614 5.50179 15.429 5.50179 15.13C5.50179 14.831 5.61509 14.6989 5.78653 14.499C5.99399 14.257 6.25209 13.9561 6.25209 13.3799Z" fill="#9897AD" stroke="#9897AD" stroke-width="0.5"/>
<path d="M10.7539 13.3799H10.0036C10.0036 13.6785 9.89027 13.8106 9.71883 14.0109C9.51137 14.2525 9.25327 14.5538 9.25327 15.13C9.25327 15.7066 9.51137 16.0075 9.71883 16.2494C9.89027 16.4498 10.0036 16.5818 10.0036 16.8808C10.0036 17.1798 9.89027 17.3122 9.71845 17.5122C9.51137 17.7541 9.25327 18.0554 9.25327 18.632H10.0036C10.0036 18.333 10.1169 18.2006 10.2887 18.0006C10.4958 17.7587 10.7539 17.457 10.7539 16.8808C10.7539 16.3046 10.4961 16.0033 10.2887 15.7614C10.1169 15.5614 10.0036 15.429 10.0036 15.13C10.0036 14.831 10.1169 14.6989 10.2883 14.499C10.4958 14.257 10.7539 13.9561 10.7539 13.3799Z" fill="#9897AD" stroke="#9897AD" stroke-width="0.5"/>
<path d="M15.2557 13.3799H14.5054C14.5054 13.6785 14.3921 13.8106 14.2206 14.0109C14.0132 14.2525 13.7551 14.5538 13.7551 15.13C13.7551 15.7066 14.0132 16.0075 14.2206 16.2494C14.3921 16.4498 14.5054 16.5818 14.5054 16.8808C14.5054 17.1798 14.3921 17.3122 14.2203 17.5122C14.0132 17.7541 13.7551 18.0554 13.7551 18.632H14.5054C14.5054 18.333 14.6187 18.2006 14.7905 18.0006C14.9976 17.7587 15.2557 17.457 15.2557 16.8808C15.2557 16.3046 14.9979 16.0033 14.7905 15.7614C14.6187 15.5614 14.5054 15.429 14.5054 15.13C14.5054 14.831 14.6187 14.6989 14.7901 14.499C14.9976 14.257 15.2557 13.9561 15.2557 13.3799Z" fill="#9897AD" stroke="#9897AD" stroke-width="0.5"/>
<path d="M19.7574 13.3799H19.0071C19.0071 13.6785 18.8938 13.8106 18.7224 14.0109C18.5149 14.2525 18.2568 14.5538 18.2568 15.13C18.2568 15.7066 18.5149 16.0075 18.7224 16.2494C18.8938 16.4498 19.0071 16.5818 19.0071 16.8808C19.0071 17.1798 18.8938 17.3122 18.722 17.5122C18.5149 17.7541 18.2568 18.0554 18.2568 18.632H19.0071C19.0071 18.333 19.1204 18.2006 19.2922 18.0006C19.4993 17.7587 19.7574 17.457 19.7574 16.8808C19.7574 16.3046 19.4997 16.0033 19.2922 15.7614C19.1204 15.5614 19.0071 15.429 19.0071 15.13C19.0071 14.831 19.1204 14.6989 19.2919 14.499C19.4993 14.257 19.7574 13.9561 19.7574 13.3799Z" fill="#9897AD" stroke="#9897AD" stroke-width="0.5"/>
<path d="M24.2592 13.3799H23.5089C23.5089 13.6785 23.3956 13.8106 23.2242 14.0109C23.0167 14.2525 22.7586 14.5538 22.7586 15.13C22.7586 15.7066 23.0167 16.0075 23.2242 16.2494C23.3956 16.4498 23.5089 16.5818 23.5089 16.8808C23.5089 17.1798 23.3956 17.3122 23.2238 17.5122C23.0167 17.7541 22.7586 18.0554 22.7586 18.632H23.5089C23.5089 18.333 23.6222 18.2006 23.794 18.0006C24.0011 17.7587 24.2592 17.457 24.2592 16.8808C24.2592 16.3046 24.0015 16.0033 23.794 15.7614C23.6222 15.5614 23.5089 15.429 23.5089 15.13C23.5089 14.831 23.6222 14.6989 23.7937 14.499C24.0011 14.257 24.2592 13.9561 24.2592 13.3799Z" fill="#9897AD" stroke="#9897AD" stroke-width="0.5"/>
</svg>
