<svg width="743" height="227" viewBox="0 0 743 227" fill="none" xmlns="http://www.w3.org/2000/svg">
<rect width="743" height="227" rx="28" fill="#FFECC8"/>
<mask id="mask0_6_660" style="mask-type:luminance" maskUnits="userSpaceOnUse" x="0" y="0" width="743" height="227">
<rect width="743" height="227" rx="28" fill="white"/>
</mask>
<g mask="url(#mask0_6_660)">
<path opacity="0.286551" d="M438 187C491.21 194.955 468.889 169.446 502 168C535.545 166.554 521.407 122.332 580.706 147.72C616.033 157.484 595.846 94.9918 656.894 113.421C674.083 118.61 686.432 137.286 706 142C716.187 144.454 736.983 128.875 743 136C766.475 163.8 757 230.819 757 230.819L389 230C389 230 406.479 182.3 438 187Z" fill="#AD4600"/>
<path opacity="0.286551" d="M584 232C630.903 239.955 614.813 186.446 644 185C666.989 183.876 669.842 153.168 694 158C709 161 709 172 721 159C733 126 746 142 746 142L743 234C743 234 556.215 227.3 584 232Z" fill="#FACA65"/>
<path d="M715.226 198.504C715.226 198.465 715.226 198.504 715.226 198.504C715.186 198.426 715.146 198.387 715.106 198.348C712.558 195.076 713.354 190.284 713.593 189.233C713.593 189.155 713.633 189.116 713.633 189.038V188.999C713.713 188.531 713.753 188.064 713.753 187.596C713.753 183.428 710.289 180 705.989 180C701.729 180 698.225 183.389 698.225 187.596C698.225 188.064 698.265 188.531 698.384 188.999V189.038C698.384 189.116 698.424 189.155 698.424 189.233C698.663 190.323 699.419 195.115 696.911 198.348C696.871 198.387 696.871 198.426 696.831 198.465C696.831 198.465 696.831 198.465 696.831 198.504C695.677 200.218 695 202.283 695 204.503C695 210.464 699.937 215.294 706.029 215.294C712.12 215.294 717.057 210.464 717.057 204.503C717.097 202.283 716.42 200.218 715.226 198.504Z" fill="#3DCC65"/>
<path fill-rule="evenodd" clip-rule="evenodd" d="M706.029 190.29V228.29V190.29Z" fill="#3DCC65"/>
<path d="M706.029 190.29V228.29" stroke="white" stroke-width="0.754941"/>
<path fill-rule="evenodd" clip-rule="evenodd" d="M699.844 198.359L706.02 207.183L699.844 198.359Z" fill="#3DCC65"/>
<path d="M699.844 198.359L706.02 207.183" stroke="white" stroke-width="0.754941"/>
<path fill-rule="evenodd" clip-rule="evenodd" d="M710.487 191.898L706.075 197.192L710.487 191.898Z" fill="#3DCC65"/>
<path d="M710.487 191.898L706.075 197.192" stroke="white" stroke-width="0.754941"/>
<path d="M682.226 185.504C682.226 185.465 682.226 185.504 682.226 185.504C682.186 185.426 682.146 185.387 682.106 185.348C679.558 182.076 680.354 177.284 680.593 176.233C680.593 176.155 680.633 176.116 680.633 176.038V175.999C680.713 175.531 680.753 175.064 680.753 174.596C680.753 170.428 677.289 167 672.989 167C668.729 167 665.225 170.389 665.225 174.596C665.225 175.064 665.265 175.531 665.384 175.999V176.038C665.384 176.116 665.424 176.155 665.424 176.233C665.663 177.323 666.419 182.115 663.911 185.348C663.871 185.387 663.871 185.426 663.831 185.465C663.831 185.465 663.831 185.465 663.831 185.504C662.677 187.218 662 189.283 662 191.503C662 197.464 666.937 202.294 673.029 202.294C679.12 202.294 684.057 197.464 684.057 191.503C684.097 189.283 683.42 187.218 682.226 185.504Z" fill="#3DCC65"/>
<path fill-rule="evenodd" clip-rule="evenodd" d="M673.029 177.29L673.02 227.5L673.029 177.29Z" fill="#3DCC65"/>
<path d="M673.029 177.29L673.02 227.5" stroke="white" stroke-width="0.754941"/>
<path fill-rule="evenodd" clip-rule="evenodd" d="M666.844 185.359L673.02 194.183L666.844 185.359Z" fill="#3DCC65"/>
<path d="M666.844 185.359L673.02 194.183" stroke="white" stroke-width="0.754941"/>
<path fill-rule="evenodd" clip-rule="evenodd" d="M677.487 178.898L673.075 184.192L677.487 178.898Z" fill="#3DCC65"/>
<path d="M677.487 178.898L673.075 184.192" stroke="white" stroke-width="0.754941"/>
<path opacity="0.654971" d="M676.547 33.1012C684.399 24.4415 694.293 39.9625 694.319 40.0025C694.319 40.0025 711.641 31.1109 716.19 44.651C720.739 58.1906 704.994 60.7511 696.967 58.5934C692.83 57.481 688.492 64.9996 680 64.9996C671.508 64.9994 668.084 57.4827 663.631 58.5934C654.439 60.8858 646.559 54.7565 646.559 54.7565C646.526 54.7171 637.389 43.7408 651.927 40.0025C659.163 38.142 656.24 33.3171 661.76 31.7867C670.984 29.2301 670.374 39.9084 676.547 33.1012ZM444.76 26.0377C449.844 20.3594 456.245 30.5055 456.288 30.5729C456.288 30.5729 467.524 24.7298 470.475 33.6275C473.426 42.5252 463.212 44.2077 458.006 42.7897C455.322 42.0591 452.508 46.9996 447 46.9996C441.491 46.9994 439.27 42.0598 436.381 42.7897C430.422 44.2952 425.312 40.2725 425.308 40.2691C425.308 40.2691 419.344 33.0339 428.791 30.5729C433.484 29.3502 431.588 26.1802 435.169 25.1744C441.152 23.4943 440.756 30.511 444.76 26.0377Z" fill="url(#paint0_linear_6_660)"/>
<g opacity="0.288272" filter="url(#filter0_f_6_660)">
<ellipse cx="564.505" cy="216.98" rx="39.3165" ry="3.88311" fill="#FFA446"/>
</g>
<path d="M550.11 209.423L548.175 193.665L556.653 195.047L557.759 211.635L549.649 209.884L550.11 209.423Z" fill="#ECACA1"/>
<path d="M559.049 207.58C559.049 207.58 552.23 210.069 549.188 205.645L534.259 213.386L560.892 214.308L559.049 207.58Z" fill="#D362AF"/>
<path d="M534.167 215.782L560.8 216.796L560.892 214.4L534.259 213.386L534.167 215.782Z" fill="white"/>
<path d="M542.83 97.6372C542.83 97.6372 539.143 111.922 541.355 152.839L544.673 199.747H561.814L556.93 98.3745L542.83 97.6372Z" fill="#00C4CC"/>
<path d="M591.304 200.945L582.181 187.859L589.461 183.343L598.492 197.535L591.304 201.59V200.945Z" fill="#ECACA1"/>
<path d="M596.833 193.665C596.833 193.665 593.332 200.116 588.079 198.733L581.996 214.4L602.639 197.535L596.833 193.665Z" fill="#D362AF"/>
<path d="M583.563 216.243L604.206 199.286L602.732 197.443L582.088 214.4L583.563 216.243Z" fill="white"/>
<path d="M566.698 102.061C566.698 102.061 572.596 107.682 572.412 123.81C572.228 139.937 577.296 156.71 577.296 156.71L558.773 158.645C558.773 158.645 548.267 136.62 544.765 103.443L566.698 102.061Z" fill="#00C4CC"/>
<path d="M573.057 148.692C573.057 148.692 594.622 170.718 600.98 186.384L584.024 195.047L558.957 158.737L573.057 148.692Z" fill="#00C4CC"/>
<path d="M560.247 160.765C560.247 160.765 556.192 157.539 554.073 148.692C552.045 139.845 548.912 124.731 548.912 124.731L545.226 120.124" stroke="#B2ACC7" stroke-width="0.55"/>
<circle cx="565.132" cy="26.2157" r="8.57059" fill="#081669"/>
<circle cx="557.114" cy="33.4961" r="7.09608" fill="#D362AF"/>
<path d="M546.7 51.8353L550.294 62.7098L560.247 58.6549L554.718 42.3431L546.7 51.8353Z" fill="#ECACA1"/>
<path d="M548.82 58.1941C548.728 58.0098 550.663 51.3745 550.663 51.3745L546.516 53.2176L548.82 58.1941Z" fill="#ED9083"/>
<path d="M543.659 29.2569C543.659 29.2569 538.498 30.0863 538.222 36.6294C538.222 36.6294 538.037 41.3294 537.945 48.149C537.853 51.7431 541.079 54.6 544.581 53.8627C546.7 53.4019 549.096 52.4804 551.216 50.8216L554.165 48.0568C561.169 40.2235 554.718 27.7823 544.396 29.1647C544.212 29.1647 543.935 29.1647 543.659 29.2569Z" fill="#ECACA1"/>
<path d="M539.143 42.6196L536.655 45.2C536.194 45.5686 536.286 46.4902 536.747 46.4902L539.051 46.7667V42.6196H539.143Z" fill="#ECACA1"/>
<path d="M540.434 38.3804C540.434 38.3804 538.683 38.1039 538.59 38.8412C538.59 38.8412 538.498 39.3941 539.973 39.5784C541.447 39.7627 541.908 39.6706 542.092 39.2098C542.277 38.749 541.263 38.4725 540.434 38.3804Z" fill="#03041F"/>
<circle cx="540.003" cy="42.7784" r="0.737287" transform="rotate(-10.7481 540.003 42.7784)" fill="#03041F"/>
<path d="M538.75 48.4169C539.119 48.7855 540.501 48.6012 540.778 47.8639" stroke="#1D0A05" stroke-width="0.585933" stroke-linecap="round" stroke-linejoin="round"/>
<path d="M550.571 40.8686C550.571 40.8686 553.612 25.1098 539.973 31.4686C539.973 31.4686 545.226 22.8059 557.206 28.0588C559.694 29.1647 562.275 32.2059 562.828 34.8784C563.565 39.2098 561.169 42.9882 557.298 49.8078L552.69 44.4627C552.506 43.5412 550.571 40.8686 550.571 40.8686Z" fill="#081669"/>
<path d="M554.994 36.2608L552.23 42.8039C534.812 37.3667 542.737 29.1647 542.737 29.1647C542.737 29.1647 556.837 24.9255 554.994 36.2608Z" fill="#081669"/>
<path d="M546.147 39.3941L549.281 43.2647L551.677 38.749L546.147 39.3941Z" fill="#03041F"/>
<path d="M545.226 29.9941C545.226 29.9941 539.235 31.0078 538.406 35.1549C538.406 35.1549 537.392 30.6392 543.014 28.6118C548.543 26.4922 545.226 29.9941 545.226 29.9941Z" fill="#03041F"/>
<circle cx="552.23" cy="42.1588" r="3.4098" fill="#ECACA1"/>
<path d="M551.124 43.449C551.124 43.449 550.939 40.9608 553.335 41.1451" stroke="#1D0A05" stroke-width="0.585933" stroke-linecap="round" stroke-linejoin="round"/>
<path d="M569.186 62.1568C569.186 62.1568 582.918 70.9117 585.037 97.3608C585.314 100.494 583.102 103.167 579.969 103.627C577.02 104.088 573.241 102.245 572.412 99.3882L563.196 72.2019L569.186 62.1568Z" fill="#F8D44E"/>
<path d="M541.447 65.0137L531.402 84.551C530.02 87.6843 531.31 91.2784 534.259 92.9372C537.392 94.596 541.355 93.398 543.014 90.2647L554.257 71.3725C555.916 68.3313 555.179 64.6451 552.506 62.4333C549.004 59.3921 543.383 60.6823 541.447 65.0137Z" fill="#F8D44E"/>
<circle cx="505.967" cy="76.349" r="6.17451" fill="#ECACA1"/>
<path d="M504.769 70.3588C504.769 70.3588 505.045 67.8706 507.994 69.1608C510.483 70.2666 513.984 74.1372 511.128 79.5745L504.769 70.3588Z" fill="#ECACA1"/>
<path d="M524.306 77.6392L510.667 74.1372L507.626 82.247L522.279 86.3941L524.306 77.6392Z" fill="#EDAC9F"/>
<path d="M538.867 82.1549L514.261 73.7686L511.865 85.2882L534.628 93.3058C538.13 94.7804 542.185 92.6608 542.83 88.8823C543.475 85.9333 541.724 83.0764 538.867 82.1549Z" fill="#F8D44E"/>
<path d="M507.994 77.3627L503.939 80.6804C503.755 80.8647 503.386 80.7725 503.294 80.4039L496.659 66.3961C496.475 66.0274 496.567 65.6588 496.751 65.4745L500.806 62.1568C500.99 61.9725 501.359 62.0647 501.451 62.4333L508.086 76.4411C508.271 76.7176 508.179 77.0862 507.994 77.3627Z" fill="#0F35A9"/>
<path d="M508.732 76.7176L504.4 80.3117C504.124 80.496 503.847 80.4039 503.663 80.0353L497.12 65.9353C496.935 65.5666 497.028 65.198 497.304 65.0137L501.635 61.4196C501.912 61.2353 502.188 61.3274 502.373 61.6961L508.916 75.796C509.008 76.0725 509.008 76.5333 508.732 76.7176Z" fill="#6C51F7"/>
<path d="M509.653 72.3863L509.745 70.3588L506.428 67.7784C505.967 67.4098 505.23 67.5019 504.861 67.8706C504.584 68.147 504.4 68.6078 504.953 69.2529L509.377 72.6627" fill="#ECACA1"/>
<path d="M545.041 63.447C543.014 66.3039 539.696 72.2019 539.604 80.1274C539.604 80.3117 539.604 80.5882 539.604 80.7725C539.788 82.5235 539.235 95.7019 538.959 102.522C538.867 104.273 539.788 107.682 541.263 108.512C544.396 110.263 557.943 111.829 569.186 108.696C570.753 108.235 571.675 106.576 571.214 104.918C570.016 100.771 565.777 90.9098 568.726 83.0764C575.822 64.3686 569.002 60.9588 564.026 60.0372C563.381 59.9451 560.984 61.4196 560.339 61.4196L548.543 61.6039C547.161 61.5117 545.871 62.249 545.041 63.447Z" fill="#FDD656"/>
<path d="M543.106 68.7C543.106 68.7 539.143 72.3862 539.696 82.8C539.696 82.8 539.42 87.7764 539.42 93.3058" stroke="#F3A12D" stroke-width="0.55"/>
<path d="M557.667 56.1666C557.667 56.1666 562.182 70.8196 577.296 72.5706C591.488 74.2294 590.014 70.0823 601.81 71.3725C601.81 71.3725 599.967 75.3353 593.147 81.9706C589.369 85.5647 589.553 88.2372 589.553 88.2372C589.553 88.2372 567.343 89.0666 558.588 77.6392C552.322 69.5294 550.847 59.1157 550.847 59.1157L557.667 56.1666Z" fill="#D362AF"/>
<path d="M603.929 75.0588C604.114 75.0588 604.39 74.8745 604.39 74.6902C604.39 74.4137 604.298 74.2294 604.022 74.1372L597.018 73.0313C596.741 73.0313 596.557 73.1235 596.465 73.4C596.465 73.6764 596.557 73.8608 596.833 73.9529L603.929 75.0588C603.929 75.0588 603.837 75.0588 603.929 75.0588Z" fill="#D362AF"/>
<path d="M601.349 78.3764C601.533 78.3764 601.81 78.1921 601.81 78.0078C601.81 77.7313 601.718 77.547 601.441 77.4549L594.437 76.349C594.161 76.2568 593.977 76.4411 593.884 76.7176C593.884 76.9941 593.977 77.1784 594.253 77.2706L601.349 78.3764Z" fill="#D362AF"/>
<path d="M598.031 81.9706C598.216 81.9706 598.492 81.7862 598.492 81.6019C598.492 81.3255 598.4 81.1411 598.124 81.049L591.12 79.9431C590.843 79.9431 590.659 80.0353 590.567 80.3117C590.567 80.5882 590.659 80.7725 590.935 80.8647L598.031 81.9706C597.939 81.9706 597.939 81.9706 598.031 81.9706Z" fill="#D362AF"/>
<path d="M594.898 86.2098C595.082 86.2098 595.359 86.0254 595.359 85.8411C595.359 85.5647 595.267 85.3804 594.99 85.2882L587.986 84.1823C587.71 84.0902 587.526 84.2745 587.433 84.5509C587.433 84.8274 587.526 85.0117 587.802 85.1039L594.898 86.2098Z" fill="#D362AF"/>
<path d="M545.133 54.4157C547.99 54.9686 554.902 55.8902 559.879 52.0196C560.431 51.5588 561.169 51.7431 561.445 52.3882L564.21 59.3C564.394 59.6686 564.302 60.0372 564.026 60.4059C562.275 62.4333 555.086 69.7137 544.581 61.6039C544.304 61.4196 544.212 61.1431 544.212 60.8666L543.935 55.5215C543.935 54.8764 544.488 54.3235 545.133 54.4157Z" fill="#D362AF"/>
<ellipse cx="550.294" cy="92.2608" rx="5.52941" ry="5.31378" fill="#ECACA1"/>
<path d="M545.041 91.0019C545.041 91.0019 543.198 89.3431 545.502 87.6843C547.806 86.0255 551.769 85.1039 555.086 89.6196L545.041 91.0019Z" fill="#ECACA1"/>
<path d="M553.335 89.5274L562.182 91.3706L560.247 98.4666L552.322 96.2549L553.335 89.5274Z" fill="#EDAC9F"/>
<path d="M572.688 92.1078C572.135 91.9235 557.575 89.6196 557.575 89.6196L556.1 99.849L578.771 103.72L572.688 92.1078Z" fill="#F8D44E"/>
<path d="M575.73 92.4764L557.575 89.6196" stroke="#F3A12D" stroke-width="0.55"/>
<path d="M570.292 102.061L556.192 99.849L556.469 97.3608" stroke="#F3A12D" stroke-width="0.55"/>
<g opacity="0.319987" filter="url(#filter1_f_6_660)">
<ellipse cx="495.094" cy="210.485" rx="24.2695" ry="6.79545" fill="#FFA446"/>
</g>
<path d="M487.302 167.239C487.302 167.239 527.757 148.419 547.516 96.6038" stroke="#372482" stroke-width="0.783978"/>
<ellipse cx="550.294" cy="92.2608" rx="5.52941" ry="5.31378" fill="#ECACA1"/>
<path d="M513.106 195.255C514.488 195.9 516.147 196.545 517.714 197.006C519.28 197.466 520.939 197.743 522.506 197.558C524.073 197.466 525.455 196.821 526.192 195.531C527.022 194.241 527.206 192.49 527.114 190.831C527.114 190.555 527.298 190.37 527.574 190.37C527.851 190.37 528.035 190.555 528.035 190.739C528.22 191.66 528.312 192.582 528.312 193.504C528.312 194.425 528.127 195.439 527.759 196.36C527.39 197.282 526.653 198.204 525.824 198.757C524.994 199.402 523.98 199.77 522.967 199.955C521.031 200.415 519.096 200.323 517.253 200.047C515.41 199.77 513.567 199.402 511.724 198.757C510.71 198.388 510.157 197.374 510.525 196.36C510.894 195.347 511.908 194.794 512.922 195.162C512.829 195.162 512.922 195.255 513.106 195.255Z" fill="#AD4600"/>
<path d="M502.508 195.992C502.508 195.992 499.375 193.227 496.149 196.637C492.924 200.047 502.969 208.249 502.969 208.249C502.969 208.249 497.163 207.511 496.057 211.29H509.512C510.065 211.29 510.618 210.829 510.618 210.184C510.618 209.17 510.249 208.249 509.696 207.511L506.747 203.825L502.508 195.992Z" fill="#AB4600"/>
<path d="M483.708 188.343L479.1 208.433C479.1 208.433 475.322 207.511 474.584 211.29H480.943L491.265 191.66L483.708 188.343Z" fill="#A94612"/>
<path d="M483.984 161.802L514.396 195.715C515.871 197.374 516.7 199.586 516.608 201.89C516.516 204.655 515.686 207.88 512.553 208.249C507.024 208.986 501.125 207.511 490.435 197.098C490.435 197.098 482.786 194.886 481.496 180.141L474.953 170.833L483.984 161.802Z" fill="#FF8149"/>
<path d="M507.3 195.992C507.3 195.992 504.167 193.227 500.941 196.637C497.716 200.047 507.761 208.249 507.761 208.249C507.761 208.249 501.955 207.511 500.849 211.29H514.304C514.857 211.29 515.41 210.829 515.41 210.184C515.41 209.17 515.041 208.249 514.488 207.511L511.539 203.825L507.3 195.992Z" fill="#FF8149"/>
<path d="M483.984 161.802C483.984 161.802 482.233 158.945 479.284 158.945C477.441 158.945 475.506 159.406 473.202 161.433C470.99 163.46 466.567 162.17 466.567 162.17C466.567 162.17 464.816 168.529 474.953 170.741L483.984 161.802Z" fill="#FF8149"/>
<path d="M481.035 159.406C481.035 159.406 475.874 164.935 478.731 167.423C481.588 169.911 482.694 164.935 485.459 163.553C485.459 163.553 486.933 161.802 484.722 160.051C482.325 158.207 481.035 159.406 481.035 159.406Z" fill="#EF6830" fill-opacity="0.558785"/>
<circle cx="467.382" cy="163.382" r="1.38235" fill="#EF6830" fill-opacity="0.558785"/>
<path d="M477.902 175.533L476.335 172.953C476.796 172.953 484.076 172.492 487.763 166.041L489.514 168.16C485.367 175.533 478.547 175.533 477.902 175.533Z" fill="#081669"/>
<circle cx="475.553" cy="161.553" r="0.552941" fill="#28233C"/>
<path d="M486.565 192.951L488.776 208.433C488.776 208.433 485.275 208.064 484.814 211.29H492.094L494.49 191.66L486.565 192.951Z" fill="#FF8149"/>
<path d="M486.012 180.602C483.339 185.947 486.565 190.555 486.565 190.555L487.21 198.941" stroke="#AB4600" stroke-width="0.643162" stroke-linecap="round" stroke-linejoin="round"/>
<path d="M502.508 195.255C502.508 195.255 499.006 198.204 502.231 203.457C504.259 206.682 507.761 208.341 507.761 208.341" stroke="#AB4600" stroke-width="0.643162" stroke-linecap="round" stroke-linejoin="round"/>
<path d="M493.476 199.862L494.398 189.817" stroke="#AB4600" stroke-width="0.643162" stroke-linecap="round" stroke-linejoin="round"/>
</g>
<g clip-path="url(#clip0_6_660)">
<path d="M28.92 87L25.476 77.13H26.694L29.704 86.02H29.214L32.378 77.13H33.302L36.298 86.02H35.85L38.944 77.13H40.092L36.62 87H35.584L32.672 78.446H32.966L29.928 87H28.92ZM44.5783 87.126C43.477 87.126 42.609 86.8087 41.9743 86.174C41.3396 85.53 41.0223 84.6387 41.0223 83.5C41.0223 82.7627 41.1623 82.1233 41.4423 81.582C41.7223 81.0313 42.1143 80.6067 42.6183 80.308C43.1223 80 43.701 79.846 44.3543 79.846C44.9983 79.846 45.5396 79.9813 45.9783 80.252C46.417 80.5227 46.753 80.91 46.9863 81.414C47.2196 81.9087 47.3363 82.4967 47.3363 83.178V83.598H41.8903V82.884H46.5943L46.3563 83.066C46.3563 82.3193 46.1883 81.736 45.8523 81.316C45.5163 80.896 45.017 80.686 44.3543 80.686C43.6543 80.686 43.1083 80.9333 42.7163 81.428C42.3243 81.9133 42.1283 82.5713 42.1283 83.402V83.528C42.1283 84.4053 42.343 85.0727 42.7723 85.53C43.211 85.978 43.8223 86.202 44.6063 86.202C45.0263 86.202 45.4183 86.1413 45.7823 86.02C46.1556 85.8893 46.5103 85.6793 46.8463 85.39L47.2383 86.188C46.9303 86.4867 46.5383 86.72 46.0623 86.888C45.5956 87.0467 45.101 87.126 44.5783 87.126ZM49.6699 87V76.696H50.8039V87H49.6699ZM56.5581 87.126C55.8675 87.126 55.2655 86.9767 54.7521 86.678C54.2481 86.3793 53.8561 85.9547 53.5761 85.404C53.3055 84.8533 53.1701 84.2 53.1701 83.444C53.1701 82.6787 53.3101 82.03 53.5901 81.498C53.8701 80.9567 54.2621 80.546 54.7661 80.266C55.2795 79.986 55.8768 79.846 56.5581 79.846C57.0061 79.846 57.4401 79.9253 57.8601 80.084C58.2895 80.2427 58.6441 80.4667 58.9241 80.756L58.5181 81.568C58.2381 81.2973 57.9301 81.0967 57.5941 80.966C57.2675 80.8353 56.9455 80.77 56.6281 80.77C55.9001 80.77 55.3355 80.9987 54.9341 81.456C54.5328 81.9133 54.3321 82.5807 54.3321 83.458C54.3321 84.326 54.5328 84.998 54.9341 85.474C55.3355 85.95 55.9001 86.188 56.6281 86.188C56.9361 86.188 57.2535 86.1273 57.5801 86.006C57.9161 85.8847 58.2288 85.684 58.5181 85.404L58.9241 86.202C58.6348 86.5007 58.2755 86.7293 57.8461 86.888C57.4168 87.0467 56.9875 87.126 56.5581 87.126ZM63.8814 87.126C63.2094 87.126 62.6214 86.9813 62.1174 86.692C61.6227 86.3933 61.24 85.9733 60.9694 85.432C60.6987 84.8813 60.5634 84.2327 60.5634 83.486C60.5634 82.73 60.6987 82.0813 60.9694 81.54C61.24 80.9987 61.6227 80.5833 62.1174 80.294C62.6214 79.9953 63.2094 79.846 63.8814 79.846C64.5627 79.846 65.1507 79.9953 65.6454 80.294C66.1494 80.5833 66.5367 80.9987 66.8074 81.54C67.0874 82.0813 67.2274 82.73 67.2274 83.486C67.2274 84.2327 67.0874 84.8813 66.8074 85.432C66.5367 85.9733 66.1494 86.3933 65.6454 86.692C65.1507 86.9813 64.5627 87.126 63.8814 87.126ZM63.8814 86.202C64.5534 86.202 65.0854 85.9733 65.4774 85.516C65.8694 85.0493 66.0654 84.3727 66.0654 83.486C66.0654 82.59 65.8647 81.9133 65.4634 81.456C65.0714 80.9893 64.544 80.756 63.8814 80.756C63.2187 80.756 62.6914 80.9893 62.2994 81.456C61.9074 81.9133 61.7114 82.59 61.7114 83.486C61.7114 84.3727 61.9074 85.0493 62.2994 85.516C62.6914 85.9733 63.2187 86.202 63.8814 86.202ZM69.5938 87V81.596C69.5938 81.3347 69.5798 81.0687 69.5518 80.798C69.5331 80.518 69.5098 80.2427 69.4818 79.972H70.5738L70.7138 81.512H70.5458C70.7324 80.98 71.0264 80.5693 71.4278 80.28C71.8384 79.9907 72.3331 79.846 72.9118 79.846C73.4998 79.846 73.9758 79.986 74.3398 80.266C74.7131 80.546 74.9651 80.98 75.0958 81.568H74.8858C75.0631 81.036 75.3758 80.616 75.8238 80.308C76.2718 80 76.7944 79.846 77.3918 79.846C78.1664 79.846 78.7498 80.07 79.1418 80.518C79.5338 80.9567 79.7298 81.652 79.7298 82.604V87H78.5958V82.674C78.5958 82.0113 78.4791 81.5307 78.2458 81.232C78.0124 80.924 77.6391 80.77 77.1258 80.77C76.5378 80.77 76.0711 80.9753 75.7258 81.386C75.3898 81.7873 75.2218 82.3287 75.2218 83.01V87H74.0878V82.674C74.0878 82.0113 73.9711 81.5307 73.7378 81.232C73.5044 80.924 73.1311 80.77 72.6178 80.77C72.0298 80.77 71.5678 80.9753 71.2318 81.386C70.8958 81.7873 70.7278 82.3287 70.7278 83.01V87H69.5938ZM85.6051 87.126C84.5038 87.126 83.6358 86.8087 83.0011 86.174C82.3664 85.53 82.0491 84.6387 82.0491 83.5C82.0491 82.7627 82.1891 82.1233 82.4691 81.582C82.7491 81.0313 83.1411 80.6067 83.6451 80.308C84.1491 80 84.7278 79.846 85.3811 79.846C86.0251 79.846 86.5664 79.9813 87.0051 80.252C87.4438 80.5227 87.7798 80.91 88.0131 81.414C88.2464 81.9087 88.3631 82.4967 88.3631 83.178V83.598H82.9171V82.884H87.6211L87.3831 83.066C87.3831 82.3193 87.2151 81.736 86.8791 81.316C86.5431 80.896 86.0438 80.686 85.3811 80.686C84.6811 80.686 84.1351 80.9333 83.7431 81.428C83.3511 81.9133 83.1551 82.5713 83.1551 83.402V83.528C83.1551 84.4053 83.3698 85.0727 83.7991 85.53C84.2378 85.978 84.8491 86.202 85.6331 86.202C86.0531 86.202 86.4451 86.1413 86.8091 86.02C87.1824 85.8893 87.5371 85.6793 87.8731 85.39L88.2651 86.188C87.9571 86.4867 87.5651 86.72 87.0891 86.888C86.6224 87.0467 86.1278 87.126 85.6051 87.126ZM99.3694 87.126C98.3801 87.126 97.5401 86.9207 96.8494 86.51C96.1587 86.0993 95.6267 85.516 95.2534 84.76C94.8894 84.004 94.7074 83.1033 94.7074 82.058C94.7074 81.0127 94.8894 80.1167 95.2534 79.37C95.6267 78.614 96.1587 78.0307 96.8494 77.62C97.5401 77.2093 98.3801 77.004 99.3694 77.004C100.069 77.004 100.695 77.1113 101.245 77.326C101.796 77.5407 102.277 77.8533 102.687 78.264L102.253 79.188C101.805 78.796 101.362 78.5113 100.923 78.334C100.485 78.1473 99.9714 78.054 99.3834 78.054C98.2541 78.054 97.3954 78.404 96.8074 79.104C96.2194 79.804 95.9254 80.7887 95.9254 82.058C95.9254 83.3273 96.2194 84.3167 96.8074 85.026C97.3954 85.726 98.2541 86.076 99.3834 86.076C99.9714 86.076 100.485 85.9873 100.923 85.81C101.362 85.6233 101.805 85.3293 102.253 84.928L102.687 85.866C102.277 86.2673 101.796 86.58 101.245 86.804C100.695 87.0187 100.069 87.126 99.3694 87.126ZM105.114 87V79.972H106.248V87H105.114ZM104.974 78.376V77.102H106.374V78.376H104.974ZM111.54 87.126C110.85 87.126 110.322 86.93 109.958 86.538C109.594 86.1367 109.412 85.5347 109.412 84.732V80.854H108.04V79.972H109.412V78.054L110.546 77.732V79.972H112.562V80.854H110.546V84.606C110.546 85.166 110.64 85.5673 110.826 85.81C111.022 86.0433 111.312 86.16 111.694 86.16C111.872 86.16 112.03 86.146 112.17 86.118C112.31 86.0807 112.436 86.0387 112.548 85.992V86.944C112.418 87 112.259 87.042 112.072 87.07C111.895 87.1073 111.718 87.126 111.54 87.126ZM114.343 90.178L114.077 89.24C114.516 89.1373 114.88 89.016 115.169 88.876C115.468 88.7453 115.715 88.568 115.911 88.344C116.107 88.12 116.275 87.84 116.415 87.504L116.779 86.678L116.751 87.154L113.685 79.972H114.917L117.451 86.146H117.087L119.593 79.972H120.783L117.535 87.588C117.349 88.036 117.143 88.4093 116.919 88.708C116.695 89.016 116.453 89.2633 116.191 89.45C115.939 89.646 115.659 89.8 115.351 89.912C115.043 90.024 114.707 90.1127 114.343 90.178ZM122.799 84.424L122.449 77.13H123.849L123.499 84.424H122.799ZM122.435 87V85.572H123.863V87H122.435ZM133.212 87V78.11H129.726V77.13H137.846V78.11H134.374V87H133.212ZM139.739 87V76.696H140.873V81.526H140.691C140.887 80.9753 141.214 80.56 141.671 80.28C142.138 79.9907 142.675 79.846 143.281 79.846C144.121 79.846 144.747 80.0747 145.157 80.532C145.568 80.98 145.773 81.6613 145.773 82.576V87H144.639V82.646C144.639 81.9927 144.509 81.5167 144.247 81.218C143.995 80.9193 143.585 80.77 143.015 80.77C142.362 80.77 141.839 80.9707 141.447 81.372C141.065 81.7733 140.873 82.3007 140.873 82.954V87H139.739ZM151.663 87.126C150.561 87.126 149.693 86.8087 149.059 86.174C148.424 85.53 148.107 84.6387 148.107 83.5C148.107 82.7627 148.247 82.1233 148.527 81.582C148.807 81.0313 149.199 80.6067 149.703 80.308C150.207 80 150.785 79.846 151.439 79.846C152.083 79.846 152.624 79.9813 153.063 80.252C153.501 80.5227 153.837 80.91 154.071 81.414C154.304 81.9087 154.421 82.4967 154.421 83.178V83.598H148.975V82.884H153.679L153.441 83.066C153.441 82.3193 153.273 81.736 152.937 81.316C152.601 80.896 152.101 80.686 151.439 80.686C150.739 80.686 150.193 80.9333 149.801 81.428C149.409 81.9133 149.213 82.5713 149.213 83.402V83.528C149.213 84.4053 149.427 85.0727 149.857 85.53C150.295 85.978 150.907 86.202 151.691 86.202C152.111 86.202 152.503 86.1413 152.867 86.02C153.24 85.8893 153.595 85.6793 153.931 85.39L154.323 86.188C154.015 86.4867 153.623 86.72 153.147 86.888C152.68 87.0467 152.185 87.126 151.663 87.126ZM163.677 87.126C163.052 87.126 162.506 86.9813 162.039 86.692C161.572 86.3933 161.208 85.9733 160.947 85.432C160.695 84.8907 160.569 84.242 160.569 83.486C160.569 82.7207 160.695 82.0673 160.947 81.526C161.208 80.9847 161.572 80.5693 162.039 80.28C162.506 79.9907 163.052 79.846 163.677 79.846C164.312 79.846 164.858 80.0093 165.315 80.336C165.782 80.6533 166.09 81.0873 166.239 81.638H166.071L166.225 79.972H167.317C167.289 80.2427 167.261 80.518 167.233 80.798C167.214 81.0687 167.205 81.3347 167.205 81.596V87H166.071V85.348H166.225C166.076 85.8987 165.768 86.3327 165.301 86.65C164.834 86.9673 164.293 87.126 163.677 87.126ZM163.901 86.202C164.573 86.202 165.105 85.9733 165.497 85.516C165.889 85.0493 166.085 84.3727 166.085 83.486C166.085 82.59 165.889 81.9133 165.497 81.456C165.105 80.9893 164.573 80.756 163.901 80.756C163.238 80.756 162.706 80.9893 162.305 81.456C161.913 81.9133 161.717 82.59 161.717 83.486C161.717 84.3727 161.913 85.0493 162.305 85.516C162.706 85.9733 163.238 86.202 163.901 86.202ZM169.996 87V79.972H171.13V87H169.996ZM169.856 78.376V77.102H171.256V78.376H169.856ZM173.902 87V81.666C173.902 81.386 173.893 81.1013 173.874 80.812C173.865 80.5227 173.846 80.2427 173.818 79.972H174.91L175.05 81.68L174.854 81.694C174.947 81.274 175.111 80.9287 175.344 80.658C175.577 80.3873 175.853 80.1867 176.17 80.056C176.487 79.916 176.819 79.846 177.164 79.846C177.304 79.846 177.425 79.8507 177.528 79.86C177.64 79.8693 177.743 79.8927 177.836 79.93L177.822 80.938C177.682 80.8913 177.551 80.8633 177.43 80.854C177.318 80.8353 177.187 80.826 177.038 80.826C176.627 80.826 176.268 80.924 175.96 81.12C175.661 81.316 175.433 81.568 175.274 81.876C175.125 82.184 175.05 82.5107 175.05 82.856V87H173.902ZM188.931 90.024V85.348H189.085C188.936 85.8987 188.628 86.3327 188.161 86.65C187.694 86.9673 187.153 87.126 186.537 87.126C185.912 87.126 185.366 86.9813 184.899 86.692C184.432 86.3933 184.068 85.9733 183.807 85.432C183.555 84.8907 183.429 84.242 183.429 83.486C183.429 82.7207 183.555 82.0673 183.807 81.526C184.068 80.9847 184.432 80.5693 184.899 80.28C185.366 79.9907 185.912 79.846 186.537 79.846C187.172 79.846 187.718 80.0093 188.175 80.336C188.642 80.6533 188.95 81.0873 189.099 81.638H188.931L189.085 79.972H190.177C190.149 80.2427 190.121 80.518 190.093 80.798C190.074 81.0687 190.065 81.3347 190.065 81.596V90.024H188.931ZM186.761 86.202C187.433 86.202 187.965 85.9733 188.357 85.516C188.749 85.0493 188.945 84.3727 188.945 83.486C188.945 82.59 188.749 81.9133 188.357 81.456C187.965 80.9893 187.433 80.756 186.761 80.756C186.098 80.756 185.566 80.9893 185.165 81.456C184.773 81.9133 184.577 82.59 184.577 83.486C184.577 84.3727 184.773 85.0493 185.165 85.516C185.566 85.9733 186.098 86.202 186.761 86.202ZM195.334 87.126C194.503 87.126 193.873 86.8973 193.444 86.44C193.024 85.9827 192.814 85.2827 192.814 84.34V79.972H193.948V84.312C193.948 84.956 194.079 85.432 194.34 85.74C194.601 86.0387 195.007 86.188 195.558 86.188C196.174 86.188 196.669 85.9873 197.042 85.586C197.415 85.1847 197.602 84.648 197.602 83.976V79.972H198.736V87H197.63V85.418H197.812C197.616 85.9593 197.299 86.3793 196.86 86.678C196.431 86.9767 195.922 87.126 195.334 87.126ZM204.208 87.126C203.583 87.126 203.037 86.9813 202.57 86.692C202.104 86.3933 201.74 85.9733 201.478 85.432C201.226 84.8907 201.1 84.242 201.1 83.486C201.1 82.7207 201.226 82.0673 201.478 81.526C201.74 80.9847 202.104 80.5693 202.57 80.28C203.037 79.9907 203.583 79.846 204.208 79.846C204.843 79.846 205.389 80.0093 205.846 80.336C206.313 80.6533 206.621 81.0873 206.77 81.638H206.602L206.756 79.972H207.848C207.82 80.2427 207.792 80.518 207.764 80.798C207.746 81.0687 207.736 81.3347 207.736 81.596V87H206.602V85.348H206.756C206.607 85.8987 206.299 86.3327 205.832 86.65C205.366 86.9673 204.824 87.126 204.208 87.126ZM204.432 86.202C205.104 86.202 205.636 85.9733 206.028 85.516C206.42 85.0493 206.616 84.3727 206.616 83.486C206.616 82.59 206.42 81.9133 206.028 81.456C205.636 80.9893 205.104 80.756 204.432 80.756C203.77 80.756 203.238 80.9893 202.836 81.456C202.444 81.9133 202.248 82.59 202.248 83.486C202.248 84.3727 202.444 85.0493 202.836 85.516C203.238 85.9733 203.77 86.202 204.432 86.202ZM210.527 87V76.696H211.661V87H210.527ZM214.461 87V79.972H215.595V87H214.461ZM214.321 78.376V77.102H215.721V78.376H214.321ZM220.888 87.126C220.197 87.126 219.67 86.93 219.306 86.538C218.942 86.1367 218.76 85.5347 218.76 84.732V80.854H217.388V79.972H218.76V78.054L219.894 77.732V79.972H221.91V80.854H219.894V84.606C219.894 85.166 219.987 85.5673 220.174 85.81C220.37 86.0433 220.659 86.16 221.042 86.16C221.219 86.16 221.378 86.146 221.518 86.118C221.658 86.0807 221.784 86.0387 221.896 85.992V86.944C221.765 87 221.606 87.042 221.42 87.07C221.242 87.1073 221.065 87.126 220.888 87.126ZM223.691 90.178L223.425 89.24C223.863 89.1373 224.227 89.016 224.517 88.876C224.815 88.7453 225.063 88.568 225.259 88.344C225.455 88.12 225.623 87.84 225.763 87.504L226.127 86.678L226.099 87.154L223.033 79.972H224.265L226.799 86.146H226.435L228.941 79.972H230.131L226.883 87.588C226.696 88.036 226.491 88.4093 226.267 88.708C226.043 89.016 225.8 89.2633 225.539 89.45C225.287 89.646 225.007 89.8 224.699 89.912C224.391 90.024 224.055 90.1127 223.691 90.178ZM236.255 87V79.972H237.389V87H236.255ZM236.115 78.376V77.102H237.515V78.376H236.115ZM242.527 87.126C241.967 87.126 241.445 87.0513 240.959 86.902C240.474 86.7433 240.073 86.524 239.755 86.244L240.147 85.446C240.493 85.7167 240.866 85.9173 241.267 86.048C241.678 86.1787 242.103 86.244 242.541 86.244C243.101 86.244 243.521 86.146 243.801 85.95C244.091 85.7447 244.235 85.4647 244.235 85.11C244.235 84.8393 244.142 84.6247 243.955 84.466C243.778 84.298 243.484 84.1673 243.073 84.074L241.771 83.808C241.174 83.6773 240.726 83.458 240.427 83.15C240.129 82.8327 239.979 82.4313 239.979 81.946C239.979 81.5353 240.087 81.176 240.301 80.868C240.516 80.5507 240.829 80.3033 241.239 80.126C241.65 79.9393 242.131 79.846 242.681 79.846C243.195 79.846 243.666 79.9253 244.095 80.084C244.534 80.2333 244.898 80.4527 245.187 80.742L244.781 81.526C244.501 81.2553 244.179 81.0547 243.815 80.924C243.461 80.784 243.092 80.714 242.709 80.714C242.159 80.714 241.743 80.826 241.463 81.05C241.193 81.2647 241.057 81.5493 241.057 81.904C241.057 82.1747 241.141 82.3987 241.309 82.576C241.487 82.744 241.757 82.87 242.121 82.954L243.423 83.22C244.058 83.36 244.529 83.5793 244.837 83.878C245.155 84.1673 245.313 84.5593 245.313 85.054C245.313 85.474 245.197 85.8427 244.963 86.16C244.73 86.468 244.403 86.706 243.983 86.874C243.573 87.042 243.087 87.126 242.527 87.126ZM255.076 90.122C254.469 90.122 253.909 90.0473 253.396 89.898C252.883 89.7487 252.421 89.52 252.01 89.212L252.346 88.358C252.635 88.5633 252.92 88.7267 253.2 88.848C253.48 88.9693 253.769 89.058 254.068 89.114C254.367 89.1793 254.684 89.212 255.02 89.212C255.711 89.212 256.233 89.03 256.588 88.666C256.943 88.302 257.12 87.784 257.12 87.112V85.054H257.26C257.111 85.6047 256.803 86.0433 256.336 86.37C255.869 86.6873 255.323 86.846 254.698 86.846C254.054 86.846 253.494 86.706 253.018 86.426C252.551 86.1367 252.187 85.7307 251.926 85.208C251.674 84.676 251.548 84.0507 251.548 83.332C251.548 82.6227 251.674 82.0067 251.926 81.484C252.187 80.9613 252.551 80.56 253.018 80.28C253.494 79.9907 254.054 79.846 254.698 79.846C255.333 79.846 255.879 80.0047 256.336 80.322C256.803 80.6393 257.111 81.078 257.26 81.638L257.12 81.498L257.246 79.972H258.352C258.315 80.2427 258.287 80.518 258.268 80.798C258.249 81.0687 258.24 81.3347 258.24 81.596V86.958C258.24 88.0033 257.969 88.792 257.428 89.324C256.896 89.856 256.112 90.122 255.076 90.122ZM254.908 85.922C255.589 85.922 256.126 85.698 256.518 85.25C256.91 84.7927 257.106 84.1533 257.106 83.332C257.106 82.5107 256.91 81.876 256.518 81.428C256.126 80.98 255.589 80.756 254.908 80.756C254.236 80.756 253.699 80.98 253.298 81.428C252.897 81.876 252.696 82.5107 252.696 83.332C252.696 84.1533 252.897 84.7927 253.298 85.25C253.699 85.698 254.236 85.922 254.908 85.922ZM263.9 87.126C263.228 87.126 262.64 86.9813 262.136 86.692C261.641 86.3933 261.258 85.9733 260.988 85.432C260.717 84.8813 260.582 84.2327 260.582 83.486C260.582 82.73 260.717 82.0813 260.988 81.54C261.258 80.9987 261.641 80.5833 262.136 80.294C262.64 79.9953 263.228 79.846 263.9 79.846C264.581 79.846 265.169 79.9953 265.664 80.294C266.168 80.5833 266.555 80.9987 266.826 81.54C267.106 82.0813 267.246 82.73 267.246 83.486C267.246 84.2327 267.106 84.8813 266.826 85.432C266.555 85.9733 266.168 86.3933 265.664 86.692C265.169 86.9813 264.581 87.126 263.9 87.126ZM263.9 86.202C264.572 86.202 265.104 85.9733 265.496 85.516C265.888 85.0493 266.084 84.3727 266.084 83.486C266.084 82.59 265.883 81.9133 265.482 81.456C265.09 80.9893 264.562 80.756 263.9 80.756C263.237 80.756 262.71 80.9893 262.318 81.456C261.926 81.9133 261.73 82.59 261.73 83.486C261.73 84.3727 261.926 85.0493 262.318 85.516C262.71 85.9733 263.237 86.202 263.9 86.202ZM272.496 87.126C271.824 87.126 271.236 86.9813 270.732 86.692C270.237 86.3933 269.855 85.9733 269.584 85.432C269.313 84.8813 269.178 84.2327 269.178 83.486C269.178 82.73 269.313 82.0813 269.584 81.54C269.855 80.9987 270.237 80.5833 270.732 80.294C271.236 79.9953 271.824 79.846 272.496 79.846C273.177 79.846 273.765 79.9953 274.26 80.294C274.764 80.5833 275.151 80.9987 275.422 81.54C275.702 82.0813 275.842 82.73 275.842 83.486C275.842 84.2327 275.702 84.8813 275.422 85.432C275.151 85.9733 274.764 86.3933 274.26 86.692C273.765 86.9813 273.177 87.126 272.496 87.126ZM272.496 86.202C273.168 86.202 273.7 85.9733 274.092 85.516C274.484 85.0493 274.68 84.3727 274.68 83.486C274.68 82.59 274.479 81.9133 274.078 81.456C273.686 80.9893 273.159 80.756 272.496 80.756C271.833 80.756 271.306 80.9893 270.914 81.456C270.522 81.9133 270.326 82.59 270.326 83.486C270.326 84.3727 270.522 85.0493 270.914 85.516C271.306 85.9733 271.833 86.202 272.496 86.202ZM280.869 87.126C280.253 87.126 279.711 86.9813 279.245 86.692C278.778 86.3933 278.414 85.9733 278.153 85.432C277.901 84.8907 277.775 84.242 277.775 83.486C277.775 82.7207 277.901 82.0673 278.153 81.526C278.414 80.9847 278.778 80.5693 279.245 80.28C279.711 79.9907 280.253 79.846 280.869 79.846C281.503 79.846 282.049 80.0047 282.507 80.322C282.973 80.6393 283.286 81.0687 283.445 81.61H283.277V76.696H284.411V87H283.291V85.32H283.445C283.295 85.88 282.987 86.3233 282.521 86.65C282.054 86.9673 281.503 87.126 280.869 87.126ZM281.107 86.202C281.769 86.202 282.301 85.9733 282.703 85.516C283.104 85.0493 283.305 84.3727 283.305 83.486C283.305 82.59 283.104 81.9133 282.703 81.456C282.301 80.9893 281.769 80.756 281.107 80.756C280.444 80.756 279.912 80.9893 279.511 81.456C279.119 81.9133 278.923 82.59 278.923 83.486C278.923 84.3727 279.119 85.0493 279.511 85.516C279.912 85.9733 280.444 86.202 281.107 86.202ZM299.472 87.126C299.043 86.93 298.641 86.692 298.268 86.412C297.895 86.1227 297.577 85.8427 297.316 85.572L297.596 85.586C297.195 86.0713 296.709 86.4493 296.14 86.72C295.571 86.9907 294.95 87.126 294.278 87.126C293.606 87.126 293.027 87.0233 292.542 86.818C292.066 86.6033 291.697 86.3093 291.436 85.936C291.184 85.5627 291.058 85.1287 291.058 84.634C291.058 83.99 291.245 83.444 291.618 82.996C291.991 82.548 292.523 82.1 293.214 81.652L293.676 81.358L293.508 81.568C293.069 81.1013 292.747 80.686 292.542 80.322C292.346 79.9487 292.248 79.566 292.248 79.174C292.248 78.7447 292.351 78.3667 292.556 78.04C292.761 77.7133 293.046 77.4613 293.41 77.284C293.783 77.0973 294.222 77.004 294.726 77.004C295.361 77.004 295.888 77.186 296.308 77.55C296.737 77.9047 296.952 78.39 296.952 79.006C296.952 79.342 296.882 79.6593 296.742 79.958C296.611 80.2473 296.387 80.5367 296.07 80.826C295.753 81.106 295.323 81.414 294.782 81.75L294.81 81.484L297.526 84.424H297.274C297.517 84.0413 297.703 83.57 297.834 83.01C297.974 82.4407 298.053 81.8433 298.072 81.218H299.066C299.047 81.9927 298.94 82.716 298.744 83.388C298.548 84.0507 298.287 84.6387 297.96 85.152L297.932 84.816C298.175 85.0773 298.469 85.3433 298.814 85.614C299.159 85.8753 299.533 86.0993 299.934 86.286L299.472 87.126ZM294.32 86.202C294.88 86.202 295.375 86.09 295.804 85.866C296.243 85.642 296.625 85.3153 296.952 84.886L296.924 85.208L293.886 81.96L294.32 81.974L293.886 82.24C293.494 82.5013 293.172 82.7487 292.92 82.982C292.668 83.2153 292.481 83.458 292.36 83.71C292.239 83.962 292.178 84.2467 292.178 84.564C292.178 85.0773 292.36 85.4787 292.724 85.768C293.097 86.0573 293.629 86.202 294.32 86.202ZM294.726 77.858C294.306 77.858 293.965 77.9793 293.704 78.222C293.443 78.4553 293.312 78.768 293.312 79.16C293.312 79.3653 293.345 79.5567 293.41 79.734C293.485 79.9113 293.606 80.1073 293.774 80.322C293.942 80.5273 294.166 80.7887 294.446 81.106L294.138 81.148C294.782 80.756 295.249 80.406 295.538 80.098C295.837 79.7807 295.986 79.4353 295.986 79.062C295.986 78.698 295.869 78.4087 295.636 78.194C295.412 77.97 295.109 77.858 294.726 77.858ZM306.054 87V80.854H304.682V79.972H306.362L306.054 80.266V79.09C306.054 78.2967 306.254 77.69 306.656 77.27C307.057 76.85 307.631 76.64 308.378 76.64C308.564 76.64 308.756 76.6587 308.952 76.696C309.157 76.724 309.325 76.766 309.456 76.822V77.76C309.344 77.7133 309.204 77.676 309.036 77.648C308.877 77.6107 308.714 77.592 308.546 77.592C308.256 77.592 308.009 77.6527 307.804 77.774C307.598 77.886 307.444 78.0587 307.342 78.292C307.239 78.5253 307.188 78.824 307.188 79.188V80.21L307.006 79.972H309.148V80.854H307.188V87H306.054ZM310.991 87V81.666C310.991 81.386 310.981 81.1013 310.963 80.812C310.953 80.5227 310.935 80.2427 310.907 79.972H311.999L312.139 81.68L311.943 81.694C312.036 81.274 312.199 80.9287 312.433 80.658C312.666 80.3873 312.941 80.1867 313.259 80.056C313.576 79.916 313.907 79.846 314.253 79.846C314.393 79.846 314.514 79.8507 314.617 79.86C314.729 79.8693 314.831 79.8927 314.925 79.93L314.911 80.938C314.771 80.8913 314.64 80.8633 314.519 80.854C314.407 80.8353 314.276 80.826 314.127 80.826C313.716 80.826 313.357 80.924 313.049 81.12C312.75 81.316 312.521 81.568 312.363 81.876C312.213 82.184 312.139 82.5107 312.139 82.856V87H310.991ZM319.743 87.126C318.641 87.126 317.773 86.8087 317.139 86.174C316.504 85.53 316.187 84.6387 316.187 83.5C316.187 82.7627 316.327 82.1233 316.607 81.582C316.887 81.0313 317.279 80.6067 317.783 80.308C318.287 80 318.865 79.846 319.519 79.846C320.163 79.846 320.704 79.9813 321.143 80.252C321.581 80.5227 321.917 80.91 322.151 81.414C322.384 81.9087 322.501 82.4967 322.501 83.178V83.598H317.055V82.884H321.759L321.521 83.066C321.521 82.3193 321.353 81.736 321.017 81.316C320.681 80.896 320.181 80.686 319.519 80.686C318.819 80.686 318.273 80.9333 317.881 81.428C317.489 81.9133 317.293 82.5713 317.293 83.402V83.528C317.293 84.4053 317.507 85.0727 317.937 85.53C318.375 85.978 318.987 86.202 319.771 86.202C320.191 86.202 320.583 86.1413 320.947 86.02C321.32 85.8893 321.675 85.6793 322.011 85.39L322.403 86.188C322.095 86.4867 321.703 86.72 321.227 86.888C320.76 87.0467 320.265 87.126 319.743 87.126ZM327.172 87.126C326.612 87.126 326.09 87.0513 325.604 86.902C325.119 86.7433 324.718 86.524 324.4 86.244L324.792 85.446C325.138 85.7167 325.511 85.9173 325.912 86.048C326.323 86.1787 326.748 86.244 327.186 86.244C327.746 86.244 328.166 86.146 328.446 85.95C328.736 85.7447 328.88 85.4647 328.88 85.11C328.88 84.8393 328.787 84.6247 328.6 84.466C328.423 84.298 328.129 84.1673 327.718 84.074L326.416 83.808C325.819 83.6773 325.371 83.458 325.072 83.15C324.774 82.8327 324.624 82.4313 324.624 81.946C324.624 81.5353 324.732 81.176 324.946 80.868C325.161 80.5507 325.474 80.3033 325.884 80.126C326.295 79.9393 326.776 79.846 327.326 79.846C327.84 79.846 328.311 79.9253 328.74 80.084C329.179 80.2333 329.543 80.4527 329.832 80.742L329.426 81.526C329.146 81.2553 328.824 81.0547 328.46 80.924C328.106 80.784 327.737 80.714 327.354 80.714C326.804 80.714 326.388 80.826 326.108 81.05C325.838 81.2647 325.702 81.5493 325.702 81.904C325.702 82.1747 325.786 82.3987 325.954 82.576C326.132 82.744 326.402 82.87 326.766 82.954L328.068 83.22C328.703 83.36 329.174 83.5793 329.482 83.878C329.8 84.1673 329.958 84.5593 329.958 85.054C329.958 85.474 329.842 85.8427 329.608 86.16C329.375 86.468 329.048 86.706 328.628 86.874C328.218 87.042 327.732 87.126 327.172 87.126ZM332.378 87V76.696H333.512V81.526H333.33C333.526 80.9753 333.853 80.56 334.31 80.28C334.777 79.9907 335.313 79.846 335.92 79.846C336.76 79.846 337.385 80.0747 337.796 80.532C338.207 80.98 338.412 81.6613 338.412 82.576V87H337.278V82.646C337.278 81.9927 337.147 81.5167 336.886 81.218C336.634 80.9193 336.223 80.77 335.654 80.77C335.001 80.77 334.478 80.9707 334.086 81.372C333.703 81.7733 333.512 82.3007 333.512 82.954V87H332.378ZM345.148 90.178L344.882 89.24C345.321 89.1373 345.685 89.016 345.974 88.876C346.273 88.7453 346.52 88.568 346.716 88.344C346.912 88.12 347.08 87.84 347.22 87.504L347.584 86.678L347.556 87.154L344.49 79.972H345.722L348.256 86.146H347.892L350.398 79.972H351.588L348.34 87.588C348.154 88.036 347.948 88.4093 347.724 88.708C347.5 89.016 347.258 89.2633 346.996 89.45C346.744 89.646 346.464 89.8 346.156 89.912C345.848 90.024 345.512 90.1127 345.148 90.178ZM356.252 87.126C355.58 87.126 354.992 86.9813 354.488 86.692C353.994 86.3933 353.611 85.9733 353.34 85.432C353.07 84.8813 352.934 84.2327 352.934 83.486C352.934 82.73 353.07 82.0813 353.34 81.54C353.611 80.9987 353.994 80.5833 354.488 80.294C354.992 79.9953 355.58 79.846 356.252 79.846C356.934 79.846 357.522 79.9953 358.016 80.294C358.52 80.5833 358.908 80.9987 359.178 81.54C359.458 82.0813 359.598 82.73 359.598 83.486C359.598 84.2327 359.458 84.8813 359.178 85.432C358.908 85.9733 358.52 86.3933 358.016 86.692C357.522 86.9813 356.934 87.126 356.252 87.126ZM356.252 86.202C356.924 86.202 357.456 85.9733 357.848 85.516C358.24 85.0493 358.436 84.3727 358.436 83.486C358.436 82.59 358.236 81.9133 357.834 81.456C357.442 80.9893 356.915 80.756 356.252 80.756C355.59 80.756 355.062 80.9893 354.67 81.456C354.278 81.9133 354.082 82.59 354.082 83.486C354.082 84.3727 354.278 85.0493 354.67 85.516C355.062 85.9733 355.59 86.202 356.252 86.202ZM364.443 87.126C363.612 87.126 362.982 86.8973 362.553 86.44C362.133 85.9827 361.923 85.2827 361.923 84.34V79.972H363.057V84.312C363.057 84.956 363.187 85.432 363.449 85.74C363.71 86.0387 364.116 86.188 364.667 86.188C365.283 86.188 365.777 85.9873 366.151 85.586C366.524 85.1847 366.711 84.648 366.711 83.976V79.972H367.845V87H366.739V85.418H366.921C366.725 85.9593 366.407 86.3793 365.969 86.678C365.539 86.9767 365.031 87.126 364.443 87.126ZM29.06 109.126C28.3693 109.126 27.7673 108.977 27.254 108.678C26.75 108.379 26.358 107.955 26.078 107.404C25.8073 106.853 25.672 106.2 25.672 105.444C25.672 104.679 25.812 104.03 26.092 103.498C26.372 102.957 26.764 102.546 27.268 102.266C27.7813 101.986 28.3787 101.846 29.06 101.846C29.508 101.846 29.942 101.925 30.362 102.084C30.7913 102.243 31.146 102.467 31.426 102.756L31.02 103.568C30.74 103.297 30.432 103.097 30.096 102.966C29.7693 102.835 29.4473 102.77 29.13 102.77C28.402 102.77 27.8373 102.999 27.436 103.456C27.0347 103.913 26.834 104.581 26.834 105.458C26.834 106.326 27.0347 106.998 27.436 107.474C27.8373 107.95 28.402 108.188 29.13 108.188C29.438 108.188 29.7553 108.127 30.082 108.006C30.418 107.885 30.7307 107.684 31.02 107.404L31.426 108.202C31.1367 108.501 30.7773 108.729 30.348 108.888C29.9187 109.047 29.4893 109.126 29.06 109.126ZM36.2553 109.126C35.63 109.126 35.084 108.981 34.6173 108.692C34.1506 108.393 33.7866 107.973 33.5253 107.432C33.2733 106.891 33.1473 106.242 33.1473 105.486C33.1473 104.721 33.2733 104.067 33.5253 103.526C33.7866 102.985 34.1506 102.569 34.6173 102.28C35.084 101.991 35.63 101.846 36.2553 101.846C36.89 101.846 37.436 102.009 37.8933 102.336C38.36 102.653 38.668 103.087 38.8173 103.638H38.6493L38.8033 101.972H39.8953C39.8673 102.243 39.8393 102.518 39.8113 102.798C39.7926 103.069 39.7833 103.335 39.7833 103.596V109H38.6493V107.348H38.8033C38.654 107.899 38.346 108.333 37.8793 108.65C37.4126 108.967 36.8713 109.126 36.2553 109.126ZM36.4793 108.202C37.1513 108.202 37.6833 107.973 38.0753 107.516C38.4673 107.049 38.6633 106.373 38.6633 105.486C38.6633 104.59 38.4673 103.913 38.0753 103.456C37.6833 102.989 37.1513 102.756 36.4793 102.756C35.8166 102.756 35.2846 102.989 34.8833 103.456C34.4913 103.913 34.2953 104.59 34.2953 105.486C34.2953 106.373 34.4913 107.049 34.8833 107.516C35.2846 107.973 35.8166 108.202 36.4793 108.202ZM42.5742 109V103.596C42.5742 103.335 42.5602 103.069 42.5322 102.798C42.5135 102.518 42.4902 102.243 42.4622 101.972H43.5542L43.6942 103.512H43.5262C43.7315 102.971 44.0582 102.56 44.5062 102.28C44.9635 101.991 45.4908 101.846 46.0882 101.846C46.9188 101.846 47.5442 102.07 47.9642 102.518C48.3935 102.957 48.6082 103.652 48.6082 104.604V109H47.4742V104.674C47.4742 104.011 47.3388 103.531 47.0682 103.232C46.8068 102.924 46.3962 102.77 45.8362 102.77C45.1828 102.77 44.6648 102.971 44.2822 103.372C43.8995 103.773 43.7082 104.31 43.7082 104.982V109H42.5742ZM58.7183 112.122C58.1117 112.122 57.5517 112.047 57.0383 111.898C56.525 111.749 56.063 111.52 55.6523 111.212L55.9883 110.358C56.2777 110.563 56.5623 110.727 56.8423 110.848C57.1223 110.969 57.4117 111.058 57.7103 111.114C58.009 111.179 58.3263 111.212 58.6623 111.212C59.353 111.212 59.8757 111.03 60.2303 110.666C60.585 110.302 60.7623 109.784 60.7623 109.112V107.054H60.9023C60.753 107.605 60.445 108.043 59.9783 108.37C59.5117 108.687 58.9657 108.846 58.3403 108.846C57.6963 108.846 57.1363 108.706 56.6603 108.426C56.1937 108.137 55.8297 107.731 55.5683 107.208C55.3163 106.676 55.1903 106.051 55.1903 105.332C55.1903 104.623 55.3163 104.007 55.5683 103.484C55.8297 102.961 56.1937 102.56 56.6603 102.28C57.1363 101.991 57.6963 101.846 58.3403 101.846C58.975 101.846 59.521 102.005 59.9783 102.322C60.445 102.639 60.753 103.078 60.9023 103.638L60.7623 103.498L60.8883 101.972H61.9943C61.957 102.243 61.929 102.518 61.9103 102.798C61.8917 103.069 61.8823 103.335 61.8823 103.596V108.958C61.8823 110.003 61.6117 110.792 61.0703 111.324C60.5383 111.856 59.7543 112.122 58.7183 112.122ZM58.5503 107.922C59.2317 107.922 59.7683 107.698 60.1603 107.25C60.5523 106.793 60.7483 106.153 60.7483 105.332C60.7483 104.511 60.5523 103.876 60.1603 103.428C59.7683 102.98 59.2317 102.756 58.5503 102.756C57.8783 102.756 57.3417 102.98 56.9403 103.428C56.539 103.876 56.3383 104.511 56.3383 105.332C56.3383 106.153 56.539 106.793 56.9403 107.25C57.3417 107.698 57.8783 107.922 58.5503 107.922ZM67.5422 109.126C66.8702 109.126 66.2822 108.981 65.7782 108.692C65.2835 108.393 64.9009 107.973 64.6302 107.432C64.3595 106.881 64.2242 106.233 64.2242 105.486C64.2242 104.73 64.3595 104.081 64.6302 103.54C64.9009 102.999 65.2835 102.583 65.7782 102.294C66.2822 101.995 66.8702 101.846 67.5422 101.846C68.2235 101.846 68.8115 101.995 69.3062 102.294C69.8102 102.583 70.1975 102.999 70.4682 103.54C70.7482 104.081 70.8882 104.73 70.8882 105.486C70.8882 106.233 70.7482 106.881 70.4682 107.432C70.1975 107.973 69.8102 108.393 69.3062 108.692C68.8115 108.981 68.2235 109.126 67.5422 109.126ZM67.5422 108.202C68.2142 108.202 68.7462 107.973 69.1382 107.516C69.5302 107.049 69.7262 106.373 69.7262 105.486C69.7262 104.59 69.5255 103.913 69.1242 103.456C68.7322 102.989 68.2049 102.756 67.5422 102.756C66.8795 102.756 66.3522 102.989 65.9602 103.456C65.5682 103.913 65.3722 104.59 65.3722 105.486C65.3722 106.373 65.5682 107.049 65.9602 107.516C66.3522 107.973 66.8795 108.202 67.5422 108.202ZM80.3873 109.126C79.7153 109.126 79.1273 108.981 78.6233 108.692C78.1287 108.393 77.746 107.973 77.4753 107.432C77.2047 106.881 77.0693 106.233 77.0693 105.486C77.0693 104.73 77.2047 104.081 77.4753 103.54C77.746 102.999 78.1287 102.583 78.6233 102.294C79.1273 101.995 79.7153 101.846 80.3873 101.846C81.0687 101.846 81.6567 101.995 82.1513 102.294C82.6553 102.583 83.0427 102.999 83.3133 103.54C83.5933 104.081 83.7333 104.73 83.7333 105.486C83.7333 106.233 83.5933 106.881 83.3133 107.432C83.0427 107.973 82.6553 108.393 82.1513 108.692C81.6567 108.981 81.0687 109.126 80.3873 109.126ZM80.3873 108.202C81.0593 108.202 81.5913 107.973 81.9833 107.516C82.3753 107.049 82.5713 106.373 82.5713 105.486C82.5713 104.59 82.3707 103.913 81.9693 103.456C81.5773 102.989 81.05 102.756 80.3873 102.756C79.7247 102.756 79.1973 102.989 78.8053 103.456C78.4133 103.913 78.2173 104.59 78.2173 105.486C78.2173 106.373 78.4133 107.049 78.8053 107.516C79.1973 107.973 79.7247 108.202 80.3873 108.202ZM88.5777 109.126C87.747 109.126 87.117 108.897 86.6877 108.44C86.2677 107.983 86.0577 107.283 86.0577 106.34V101.972H87.1917V106.312C87.1917 106.956 87.3224 107.432 87.5837 107.74C87.845 108.039 88.251 108.188 88.8017 108.188C89.4177 108.188 89.9124 107.987 90.2857 107.586C90.659 107.185 90.8457 106.648 90.8457 105.976V101.972H91.9797V109H90.8737V107.418H91.0557C90.8597 107.959 90.5424 108.379 90.1037 108.678C89.6744 108.977 89.1657 109.126 88.5777 109.126ZM97.2701 109.126C96.5794 109.126 96.0521 108.93 95.6881 108.538C95.3241 108.137 95.1421 107.535 95.1421 106.732V102.854H93.7701V101.972H95.1421V100.054L96.2761 99.732V101.972H98.2921V102.854H96.2761V106.606C96.2761 107.166 96.3694 107.567 96.5561 107.81C96.7521 108.043 97.0414 108.16 97.4241 108.16C97.6014 108.16 97.7601 108.146 97.9001 108.118C98.0401 108.081 98.1661 108.039 98.2781 107.992V108.944C98.1474 109 97.9888 109.042 97.8021 109.07C97.6248 109.107 97.4474 109.126 97.2701 109.126ZM107.012 109.126C106.321 109.126 105.794 108.93 105.43 108.538C105.066 108.137 104.884 107.535 104.884 106.732V102.854H103.512V101.972H104.884V100.054L106.018 99.732V101.972H108.034V102.854H106.018V106.606C106.018 107.166 106.111 107.567 106.298 107.81C106.494 108.043 106.783 108.16 107.166 108.16C107.343 108.16 107.502 108.146 107.642 108.118C107.782 108.081 107.908 108.039 108.02 107.992V108.944C107.889 109 107.73 109.042 107.544 109.07C107.366 109.107 107.189 109.126 107.012 109.126ZM112.828 109.126C112.156 109.126 111.568 108.981 111.064 108.692C110.57 108.393 110.187 107.973 109.916 107.432C109.646 106.881 109.51 106.233 109.51 105.486C109.51 104.73 109.646 104.081 109.916 103.54C110.187 102.999 110.57 102.583 111.064 102.294C111.568 101.995 112.156 101.846 112.828 101.846C113.51 101.846 114.098 101.995 114.592 102.294C115.096 102.583 115.484 102.999 115.754 103.54C116.034 104.081 116.174 104.73 116.174 105.486C116.174 106.233 116.034 106.881 115.754 107.432C115.484 107.973 115.096 108.393 114.592 108.692C114.098 108.981 113.51 109.126 112.828 109.126ZM112.828 108.202C113.5 108.202 114.032 107.973 114.424 107.516C114.816 107.049 115.012 106.373 115.012 105.486C115.012 104.59 114.812 103.913 114.41 103.456C114.018 102.989 113.491 102.756 112.828 102.756C112.166 102.756 111.638 102.989 111.246 103.456C110.854 103.913 110.658 104.59 110.658 105.486C110.658 106.373 110.854 107.049 111.246 107.516C111.638 107.973 112.166 108.202 112.828 108.202ZM121.201 109.126C120.585 109.126 120.043 108.981 119.577 108.692C119.11 108.393 118.746 107.973 118.485 107.432C118.233 106.891 118.107 106.242 118.107 105.486C118.107 104.721 118.233 104.067 118.485 103.526C118.746 102.985 119.11 102.569 119.577 102.28C120.043 101.991 120.585 101.846 121.201 101.846C121.835 101.846 122.381 102.005 122.839 102.322C123.305 102.639 123.618 103.069 123.777 103.61H123.609V98.696H124.743V109H123.623V107.32H123.777C123.627 107.88 123.319 108.323 122.853 108.65C122.386 108.967 121.835 109.126 121.201 109.126ZM121.439 108.202C122.101 108.202 122.633 107.973 123.035 107.516C123.436 107.049 123.637 106.373 123.637 105.486C123.637 104.59 123.436 103.913 123.035 103.456C122.633 102.989 122.101 102.756 121.439 102.756C120.776 102.756 120.244 102.989 119.843 103.456C119.451 103.913 119.255 104.59 119.255 105.486C119.255 106.373 119.451 107.049 119.843 107.516C120.244 107.973 120.776 108.202 121.439 108.202ZM130.207 109.126C129.582 109.126 129.036 108.981 128.569 108.692C128.103 108.393 127.739 107.973 127.477 107.432C127.225 106.891 127.099 106.242 127.099 105.486C127.099 104.721 127.225 104.067 127.477 103.526C127.739 102.985 128.103 102.569 128.569 102.28C129.036 101.991 129.582 101.846 130.207 101.846C130.842 101.846 131.388 102.009 131.845 102.336C132.312 102.653 132.62 103.087 132.769 103.638H132.601L132.755 101.972H133.847C133.819 102.243 133.791 102.518 133.763 102.798C133.745 103.069 133.735 103.335 133.735 103.596V109H132.601V107.348H132.755C132.606 107.899 132.298 108.333 131.831 108.65C131.365 108.967 130.823 109.126 130.207 109.126ZM130.431 108.202C131.103 108.202 131.635 107.973 132.027 107.516C132.419 107.049 132.615 106.373 132.615 105.486C132.615 104.59 132.419 103.913 132.027 103.456C131.635 102.989 131.103 102.756 130.431 102.756C129.769 102.756 129.237 102.989 128.835 103.456C128.443 103.913 128.247 104.59 128.247 105.486C128.247 106.373 128.443 107.049 128.835 107.516C129.237 107.973 129.769 108.202 130.431 108.202ZM136.178 112.178L135.912 111.24C136.351 111.137 136.715 111.016 137.004 110.876C137.303 110.745 137.55 110.568 137.746 110.344C137.942 110.12 138.11 109.84 138.25 109.504L138.614 108.678L138.586 109.154L135.52 101.972H136.752L139.286 108.146H138.922L141.428 101.972H142.618L139.37 109.588C139.183 110.036 138.978 110.409 138.754 110.708C138.53 111.016 138.287 111.263 138.026 111.45C137.774 111.646 137.494 111.8 137.186 111.912C136.878 112.024 136.542 112.113 136.178 112.178ZM143.586 109V107.572H145.014V109H143.586Z" fill="#242424"/>
<path d="M45.1 32.94V54H39.97V45.33H31.99V54H26.86V32.94H31.99V41.19H39.97V32.94H45.1ZM65.7405 45.36C65.7405 45.84 65.7105 46.34 65.6505 46.86H54.0405C54.1205 47.9 54.4505 48.7 55.0305 49.26C55.6305 49.8 56.3605 50.07 57.2205 50.07C58.5005 50.07 59.3905 49.53 59.8905 48.45H65.3505C65.0705 49.55 64.5605 50.54 63.8205 51.42C63.1005 52.3 62.1905 52.99 61.0905 53.49C59.9905 53.99 58.7605 54.24 57.4005 54.24C55.7605 54.24 54.3005 53.89 53.0205 53.19C51.7405 52.49 50.7405 51.49 50.0205 50.19C49.3005 48.89 48.9405 47.37 48.9405 45.63C48.9405 43.89 49.2905 42.37 49.9905 41.07C50.7105 39.77 51.7105 38.77 52.9905 38.07C54.2705 37.37 55.7405 37.02 57.4005 37.02C59.0205 37.02 60.4605 37.36 61.7205 38.04C62.9805 38.72 63.9605 39.69 64.6605 40.95C65.3805 42.21 65.7405 43.68 65.7405 45.36ZM60.4905 44.01C60.4905 43.13 60.1905 42.43 59.5905 41.91C58.9905 41.39 58.2405 41.13 57.3405 41.13C56.4805 41.13 55.7505 41.38 55.1505 41.88C54.5705 42.38 54.2105 43.09 54.0705 44.01H60.4905ZM74.734 31.8V54H69.604V31.8H74.734ZM84.7388 31.8V54H79.6088V31.8H84.7388ZM97.2336 54.24C95.5936 54.24 94.1136 53.89 92.7936 53.19C91.4936 52.49 90.4636 51.49 89.7036 50.19C88.9636 48.89 88.5936 47.37 88.5936 45.63C88.5936 43.91 88.9736 42.4 89.7336 41.1C90.4936 39.78 91.5336 38.77 92.8536 38.07C94.1736 37.37 95.6536 37.02 97.2936 37.02C98.9336 37.02 100.414 37.37 101.734 38.07C103.054 38.77 104.094 39.78 104.854 41.1C105.614 42.4 105.994 43.91 105.994 45.63C105.994 47.35 105.604 48.87 104.824 50.19C104.064 51.49 103.014 52.49 101.674 53.19C100.354 53.89 98.8736 54.24 97.2336 54.24ZM97.2336 49.8C98.2136 49.8 99.0436 49.44 99.7236 48.72C100.424 48 100.774 46.97 100.774 45.63C100.774 44.29 100.434 43.26 99.7536 42.54C99.0936 41.82 98.2736 41.46 97.2936 41.46C96.2936 41.46 95.4636 41.82 94.8036 42.54C94.1436 43.24 93.8136 44.27 93.8136 45.63C93.8136 46.97 94.1336 48 94.7736 48.72C95.4336 49.44 96.2536 49.8 97.2336 49.8ZM115.392 49.26L112.062 57.87H108.792L110.532 49.26H115.392ZM132.197 32.94V45.54C132.197 46.8 132.507 47.77 133.127 48.45C133.747 49.13 134.657 49.47 135.857 49.47C137.057 49.47 137.977 49.13 138.617 48.45C139.257 47.77 139.577 46.8 139.577 45.54V32.94H144.707V45.51C144.707 47.39 144.307 48.98 143.507 50.28C142.707 51.58 141.627 52.56 140.267 53.22C138.927 53.88 137.427 54.21 135.767 54.21C134.107 54.21 132.617 53.89 131.297 53.25C129.997 52.59 128.967 51.61 128.207 50.31C127.447 48.99 127.067 47.39 127.067 45.51V32.94H132.197ZM156.277 54.24C154.817 54.24 153.517 53.99 152.377 53.49C151.237 52.99 150.337 52.31 149.677 51.45C149.017 50.57 148.647 49.59 148.567 48.51H153.637C153.697 49.09 153.967 49.56 154.447 49.92C154.927 50.28 155.517 50.46 156.217 50.46C156.857 50.46 157.347 50.34 157.687 50.1C158.047 49.84 158.227 49.51 158.227 49.11C158.227 48.63 157.977 48.28 157.477 48.06C156.977 47.82 156.167 47.56 155.047 47.28C153.847 47 152.847 46.71 152.047 46.41C151.247 46.09 150.557 45.6 149.977 44.94C149.397 44.26 149.107 43.35 149.107 42.21C149.107 41.25 149.367 40.38 149.887 39.6C150.427 38.8 151.207 38.17 152.227 37.71C153.267 37.25 154.497 37.02 155.917 37.02C158.017 37.02 159.667 37.54 160.867 38.58C162.087 39.62 162.787 41 162.967 42.72H158.227C158.147 42.14 157.887 41.68 157.447 41.34C157.027 41 156.467 40.83 155.767 40.83C155.167 40.83 154.707 40.95 154.387 41.19C154.067 41.41 153.907 41.72 153.907 42.12C153.907 42.6 154.157 42.96 154.657 43.2C155.177 43.44 155.977 43.68 157.057 43.92C158.297 44.24 159.307 44.56 160.087 44.88C160.867 45.18 161.547 45.68 162.127 46.38C162.727 47.06 163.037 47.98 163.057 49.14C163.057 50.12 162.777 51 162.217 51.78C161.677 52.54 160.887 53.14 159.847 53.58C158.827 54.02 157.637 54.24 156.277 54.24ZM183.882 37.26V54H178.752V51.72C178.232 52.46 177.522 53.06 176.622 53.52C175.742 53.96 174.762 54.18 173.682 54.18C172.402 54.18 171.272 53.9 170.292 53.34C169.312 52.76 168.552 51.93 168.012 50.85C167.472 49.77 167.202 48.5 167.202 47.04V37.26H172.302V46.35C172.302 47.47 172.592 48.34 173.172 48.96C173.752 49.58 174.532 49.89 175.512 49.89C176.512 49.89 177.302 49.58 177.882 48.96C178.462 48.34 178.752 47.47 178.752 46.35V37.26H183.882ZM187.704 45.6C187.704 43.88 188.024 42.37 188.664 41.07C189.324 39.77 190.214 38.77 191.334 38.07C192.454 37.37 193.704 37.02 195.084 37.02C196.264 37.02 197.294 37.26 198.174 37.74C199.074 38.22 199.764 38.85 200.244 39.63V37.26H205.374V54H200.244V51.63C199.744 52.41 199.044 53.04 198.144 53.52C197.264 54 196.234 54.24 195.054 54.24C193.694 54.24 192.454 53.89 191.334 53.19C190.214 52.47 189.324 51.46 188.664 50.16C188.024 48.84 187.704 47.32 187.704 45.6ZM200.244 45.63C200.244 44.35 199.884 43.34 199.164 42.6C198.464 41.86 197.604 41.49 196.584 41.49C195.564 41.49 194.694 41.86 193.974 42.6C193.274 43.32 192.924 44.32 192.924 45.6C192.924 46.88 193.274 47.9 193.974 48.66C194.694 49.4 195.564 49.77 196.584 49.77C197.604 49.77 198.464 49.4 199.164 48.66C199.884 47.92 200.244 46.91 200.244 45.63ZM215.373 40.05C215.973 39.13 216.723 38.41 217.623 37.89C218.523 37.35 219.523 37.08 220.623 37.08V42.51H219.213C217.933 42.51 216.973 42.79 216.333 43.35C215.693 43.89 215.373 44.85 215.373 46.23V54H210.243V37.26H215.373V40.05ZM226.812 35.52C225.912 35.52 225.172 35.26 224.592 34.74C224.032 34.2 223.752 33.54 223.752 32.76C223.752 31.96 224.032 31.3 224.592 30.78C225.172 30.24 225.912 29.97 226.812 29.97C227.692 29.97 228.412 30.24 228.972 30.78C229.552 31.3 229.842 31.96 229.842 32.76C229.842 33.54 229.552 34.2 228.972 34.74C228.412 35.26 227.692 35.52 226.812 35.52ZM229.362 37.26V54H224.232V37.26H229.362ZM241.857 54.24C240.217 54.24 238.737 53.89 237.417 53.19C236.117 52.49 235.087 51.49 234.327 50.19C233.587 48.89 233.217 47.37 233.217 45.63C233.217 43.91 233.597 42.4 234.357 41.1C235.117 39.78 236.157 38.77 237.477 38.07C238.797 37.37 240.277 37.02 241.917 37.02C243.557 37.02 245.037 37.37 246.357 38.07C247.677 38.77 248.717 39.78 249.477 41.1C250.237 42.4 250.617 43.91 250.617 45.63C250.617 47.35 250.227 48.87 249.447 50.19C248.687 51.49 247.637 52.49 246.297 53.19C244.977 53.89 243.497 54.24 241.857 54.24ZM241.857 49.8C242.837 49.8 243.667 49.44 244.347 48.72C245.047 48 245.397 46.97 245.397 45.63C245.397 44.29 245.057 43.26 244.377 42.54C243.717 41.82 242.897 41.46 241.917 41.46C240.917 41.46 240.087 41.82 239.427 42.54C238.767 43.24 238.437 44.27 238.437 45.63C238.437 46.97 238.757 48 239.397 48.72C240.057 49.44 240.877 49.8 241.857 49.8ZM261.246 32.19L260.646 46.56H256.296L255.696 32.19H261.246ZM258.546 54.24C257.646 54.24 256.906 53.98 256.326 53.46C255.766 52.92 255.486 52.26 255.486 51.48C255.486 50.68 255.766 50.01 256.326 49.47C256.906 48.93 257.646 48.66 258.546 48.66C259.426 48.66 260.146 48.93 260.706 49.47C261.286 50.01 261.576 50.68 261.576 51.48C261.576 52.26 261.286 52.92 260.706 53.46C260.146 53.98 259.426 54.24 258.546 54.24Z" fill="#D362AF"/>
<g clip-path="url(#clip1_6_660)">
<path d="M131.826 150.058C131.826 149.022 132.008 148.126 132.372 147.37C132.736 146.614 133.263 146.031 133.954 145.62C134.654 145.209 135.485 145.004 136.446 145.004C137.398 145.004 138.219 145.209 138.91 145.62C139.601 146.031 140.133 146.614 140.506 147.37C140.889 148.126 141.08 149.017 141.08 150.044C141.08 151.08 140.889 151.981 140.506 152.746C140.133 153.502 139.596 154.09 138.896 154.51C138.205 154.921 137.389 155.126 136.446 155.126C135.485 155.126 134.659 154.921 133.968 154.51C133.277 154.09 132.745 153.502 132.372 152.746C132.008 151.981 131.826 151.085 131.826 150.058ZM133.352 150.058C133.352 151.253 133.613 152.186 134.136 152.858C134.659 153.53 135.429 153.866 136.446 153.866C137.435 153.866 138.201 153.535 138.742 152.872C139.283 152.2 139.554 151.262 139.554 150.058C139.554 148.854 139.283 147.921 138.742 147.258C138.21 146.595 137.445 146.264 136.446 146.264C135.429 146.264 134.659 146.595 134.136 147.258C133.613 147.921 133.352 148.854 133.352 150.058ZM146.05 155.126C145.201 155.126 144.562 154.897 144.132 154.44C143.712 153.973 143.502 153.259 143.502 152.298V147.944H144.916V152.27C144.916 152.858 145.038 153.292 145.28 153.572C145.523 153.852 145.892 153.992 146.386 153.992C146.946 153.992 147.399 153.805 147.744 153.432C148.09 153.059 148.262 152.564 148.262 151.948V147.944H149.676V155H148.304V153.488H148.486C148.29 154.011 147.978 154.417 147.548 154.706C147.119 154.986 146.62 155.126 146.05 155.126ZM155.09 155.126C154.325 155.126 153.746 154.921 153.354 154.51C152.962 154.09 152.766 153.465 152.766 152.634V149.036H151.394V147.944H152.766V146.082L154.18 145.704V147.944H156.14V149.036H154.18V152.508C154.18 153.031 154.273 153.404 154.46 153.628C154.647 153.852 154.917 153.964 155.272 153.964C155.449 153.964 155.603 153.95 155.734 153.922C155.874 153.885 156 153.843 156.112 153.796V154.944C155.972 155 155.809 155.042 155.622 155.07C155.435 155.107 155.258 155.126 155.09 155.126ZM160.664 155.126C160.048 155.126 159.502 154.981 159.026 154.692C158.559 154.403 158.195 153.983 157.934 153.432C157.682 152.881 157.556 152.228 157.556 151.472C157.556 150.707 157.682 150.053 157.934 149.512C158.195 148.971 158.559 148.555 159.026 148.266C159.502 147.967 160.048 147.818 160.664 147.818C161.271 147.818 161.803 147.972 162.26 148.28C162.727 148.579 163.035 148.989 163.184 149.512H163.016V144.696H164.43V155H163.03V153.404H163.198C163.039 153.936 162.731 154.356 162.274 154.664C161.817 154.972 161.28 155.126 160.664 155.126ZM161.014 154.02C161.621 154.02 162.111 153.805 162.484 153.376C162.857 152.947 163.044 152.312 163.044 151.472C163.044 150.632 162.857 150.002 162.484 149.582C162.111 149.153 161.621 148.938 161.014 148.938C160.398 148.938 159.903 149.153 159.53 149.582C159.166 150.002 158.984 150.632 158.984 151.472C158.984 152.312 159.166 152.947 159.53 153.376C159.903 153.805 160.398 154.02 161.014 154.02ZM170.115 155.126C169.415 155.126 168.809 154.981 168.295 154.692C167.782 154.393 167.385 153.973 167.105 153.432C166.825 152.881 166.685 152.228 166.685 151.472C166.685 150.716 166.825 150.067 167.105 149.526C167.385 148.975 167.782 148.555 168.295 148.266C168.809 147.967 169.415 147.818 170.115 147.818C170.815 147.818 171.422 147.967 171.935 148.266C172.458 148.555 172.859 148.975 173.139 149.526C173.429 150.067 173.573 150.716 173.573 151.472C173.573 152.228 173.429 152.881 173.139 153.432C172.859 153.973 172.458 154.393 171.935 154.692C171.422 154.981 170.815 155.126 170.115 155.126ZM170.115 154.02C170.731 154.02 171.221 153.805 171.585 153.376C171.949 152.947 172.131 152.312 172.131 151.472C172.131 150.632 171.949 150.002 171.585 149.582C171.221 149.153 170.731 148.938 170.115 148.938C169.509 148.938 169.023 149.153 168.659 149.582C168.295 150.002 168.113 150.632 168.113 151.472C168.113 152.312 168.291 152.947 168.645 153.376C169.009 153.805 169.499 154.02 170.115 154.02ZM178.849 155.126C178.149 155.126 177.542 154.981 177.029 154.692C176.515 154.393 176.119 153.973 175.839 153.432C175.559 152.881 175.419 152.228 175.419 151.472C175.419 150.716 175.559 150.067 175.839 149.526C176.119 148.975 176.515 148.555 177.029 148.266C177.542 147.967 178.149 147.818 178.849 147.818C179.549 147.818 180.155 147.967 180.669 148.266C181.191 148.555 181.593 148.975 181.873 149.526C182.162 150.067 182.307 150.716 182.307 151.472C182.307 152.228 182.162 152.881 181.873 153.432C181.593 153.973 181.191 154.393 180.669 154.692C180.155 154.981 179.549 155.126 178.849 155.126ZM178.849 154.02C179.465 154.02 179.955 153.805 180.319 153.376C180.683 152.947 180.865 152.312 180.865 151.472C180.865 150.632 180.683 150.002 180.319 149.582C179.955 149.153 179.465 148.938 178.849 148.938C178.242 148.938 177.757 149.153 177.393 149.582C177.029 150.002 176.847 150.632 176.847 151.472C176.847 152.312 177.024 152.947 177.379 153.376C177.743 153.805 178.233 154.02 178.849 154.02ZM184.53 155V149.694C184.53 149.405 184.52 149.115 184.502 148.826C184.492 148.527 184.474 148.233 184.446 147.944H185.818L185.972 149.764H185.748C185.841 149.325 186 148.961 186.224 148.672C186.448 148.383 186.718 148.168 187.036 148.028C187.362 147.888 187.703 147.818 188.058 147.818C188.207 147.818 188.333 147.827 188.436 147.846C188.538 147.855 188.641 147.874 188.744 147.902L188.73 149.162C188.571 149.097 188.431 149.059 188.31 149.05C188.198 149.031 188.058 149.022 187.89 149.022C187.479 149.022 187.129 149.115 186.84 149.302C186.55 149.479 186.331 149.722 186.182 150.03C186.032 150.338 185.958 150.669 185.958 151.024V155H184.53ZM197.508 155.126C196.743 155.126 196.164 154.921 195.772 154.51C195.38 154.09 195.184 153.465 195.184 152.634V149.036H193.812V147.944H195.184V146.082L196.598 145.704V147.944H198.558V149.036H196.598V152.508C196.598 153.031 196.691 153.404 196.878 153.628C197.065 153.852 197.335 153.964 197.69 153.964C197.867 153.964 198.021 153.95 198.152 153.922C198.292 153.885 198.418 153.843 198.53 153.796V154.944C198.39 155 198.227 155.042 198.04 155.07C197.853 155.107 197.676 155.126 197.508 155.126ZM203.642 155.126C202.503 155.126 201.607 154.804 200.954 154.16C200.301 153.516 199.974 152.625 199.974 151.486C199.974 150.749 200.114 150.105 200.394 149.554C200.683 149.003 201.08 148.579 201.584 148.28C202.097 147.972 202.69 147.818 203.362 147.818C204.025 147.818 204.58 147.958 205.028 148.238C205.476 148.518 205.817 148.915 206.05 149.428C206.283 149.932 206.4 150.529 206.4 151.22V151.668H201.08V150.856H205.434L205.196 151.038C205.196 150.338 205.037 149.797 204.72 149.414C204.412 149.022 203.964 148.826 203.376 148.826C202.723 148.826 202.219 149.055 201.864 149.512C201.509 149.96 201.332 150.581 201.332 151.374V151.514C201.332 152.345 201.533 152.97 201.934 153.39C202.345 153.81 202.923 154.02 203.67 154.02C204.081 154.02 204.463 153.964 204.818 153.852C205.182 153.731 205.527 153.535 205.854 153.264L206.316 154.23C205.989 154.519 205.593 154.743 205.126 154.902C204.659 155.051 204.165 155.126 203.642 155.126ZM208.621 155V149.638C208.621 149.367 208.607 149.092 208.579 148.812C208.56 148.523 208.537 148.233 208.509 147.944H209.881L210.007 149.428H209.839C210.035 148.915 210.334 148.518 210.735 148.238C211.146 147.958 211.636 147.818 212.205 147.818C212.784 147.818 213.255 147.958 213.619 148.238C213.992 148.509 214.249 148.929 214.389 149.498H214.165C214.352 148.985 214.669 148.579 215.117 148.28C215.565 147.972 216.083 147.818 216.671 147.818C217.455 147.818 218.043 148.047 218.435 148.504C218.827 148.961 219.023 149.671 219.023 150.632V155H217.609V150.702C217.609 150.086 217.502 149.643 217.287 149.372C217.082 149.092 216.746 148.952 216.279 148.952C215.738 148.952 215.308 149.139 214.991 149.512C214.674 149.885 214.515 150.389 214.515 151.024V155H213.101V150.702C213.101 150.086 212.994 149.643 212.779 149.372C212.574 149.092 212.238 148.952 211.771 148.952C211.23 148.952 210.805 149.139 210.497 149.512C210.189 149.885 210.035 150.389 210.035 151.024V155H208.621ZM221.647 158.024V149.638C221.647 149.367 221.633 149.092 221.605 148.812C221.586 148.523 221.563 148.233 221.535 147.944H222.907L223.047 149.54H222.893C223.042 149.008 223.341 148.588 223.789 148.28C224.246 147.972 224.788 147.818 225.413 147.818C226.038 147.818 226.584 147.967 227.051 148.266C227.518 148.555 227.877 148.971 228.129 149.512C228.39 150.053 228.521 150.707 228.521 151.472C228.521 152.228 228.39 152.881 228.129 153.432C227.877 153.983 227.518 154.403 227.051 154.692C226.584 154.981 226.038 155.126 225.413 155.126C224.797 155.126 224.26 154.977 223.803 154.678C223.355 154.37 223.056 153.955 222.907 153.432H223.061V158.024H221.647ZM225.063 154.02C225.679 154.02 226.169 153.805 226.533 153.376C226.906 152.947 227.093 152.312 227.093 151.472C227.093 150.632 226.906 150.002 226.533 149.582C226.169 149.153 225.679 148.938 225.063 148.938C224.447 148.938 223.952 149.153 223.579 149.582C223.215 150.002 223.033 150.632 223.033 151.472C223.033 152.312 223.215 152.947 223.579 153.376C223.952 153.805 224.447 154.02 225.063 154.02ZM234.039 155.126C232.9 155.126 232.004 154.804 231.351 154.16C230.697 153.516 230.371 152.625 230.371 151.486C230.371 150.749 230.511 150.105 230.791 149.554C231.08 149.003 231.477 148.579 231.981 148.28C232.494 147.972 233.087 147.818 233.759 147.818C234.421 147.818 234.977 147.958 235.425 148.238C235.873 148.518 236.213 148.915 236.447 149.428C236.68 149.932 236.797 150.529 236.797 151.22V151.668H231.477V150.856H235.831L235.593 151.038C235.593 150.338 235.434 149.797 235.117 149.414C234.809 149.022 234.361 148.826 233.773 148.826C233.119 148.826 232.615 149.055 232.261 149.512C231.906 149.96 231.729 150.581 231.729 151.374V151.514C231.729 152.345 231.929 152.97 232.331 153.39C232.741 153.81 233.32 154.02 234.067 154.02C234.477 154.02 234.86 153.964 235.215 153.852C235.579 153.731 235.924 153.535 236.251 153.264L236.713 154.23C236.386 154.519 235.989 154.743 235.523 154.902C235.056 155.051 234.561 155.126 234.039 155.126ZM238.989 155V149.694C238.989 149.405 238.98 149.115 238.961 148.826C238.952 148.527 238.933 148.233 238.905 147.944H240.277L240.431 149.764H240.207C240.301 149.325 240.459 148.961 240.683 148.672C240.907 148.383 241.178 148.168 241.495 148.028C241.822 147.888 242.163 147.818 242.517 147.818C242.667 147.818 242.793 147.827 242.895 147.846C242.998 147.855 243.101 147.874 243.203 147.902L243.189 149.162C243.031 149.097 242.891 149.059 242.769 149.05C242.657 149.031 242.517 149.022 242.349 149.022C241.939 149.022 241.589 149.115 241.299 149.302C241.01 149.479 240.791 149.722 240.641 150.03C240.492 150.338 240.417 150.669 240.417 151.024V155H238.989ZM247.527 155.126C246.901 155.126 246.355 154.981 245.889 154.692C245.422 154.403 245.058 153.983 244.797 153.432C244.545 152.881 244.419 152.228 244.419 151.472C244.419 150.707 244.545 150.053 244.797 149.512C245.058 148.971 245.422 148.555 245.889 148.266C246.355 147.967 246.901 147.818 247.527 147.818C248.143 147.818 248.679 147.972 249.137 148.28C249.594 148.588 249.897 149.008 250.047 149.54H249.893L250.033 147.944H251.405C251.377 148.233 251.349 148.523 251.321 148.812C251.302 149.092 251.293 149.367 251.293 149.638V155H249.879V153.432H250.033C249.883 153.955 249.575 154.37 249.109 154.678C248.651 154.977 248.124 155.126 247.527 155.126ZM247.877 154.02C248.483 154.02 248.969 153.805 249.333 153.376C249.706 152.947 249.893 152.312 249.893 151.472C249.893 150.632 249.706 150.002 249.333 149.582C248.969 149.153 248.483 148.938 247.877 148.938C247.261 148.938 246.766 149.153 246.393 149.582C246.029 150.002 245.847 150.632 245.847 151.472C245.847 152.312 246.029 152.947 246.393 153.376C246.757 153.805 247.251 154.02 247.877 154.02ZM256.698 155.126C255.933 155.126 255.354 154.921 254.962 154.51C254.57 154.09 254.374 153.465 254.374 152.634V149.036H253.002V147.944H254.374V146.082L255.788 145.704V147.944H257.748V149.036H255.788V152.508C255.788 153.031 255.882 153.404 256.068 153.628C256.255 153.852 256.526 153.964 256.88 153.964C257.058 153.964 257.212 153.95 257.342 153.922C257.482 153.885 257.608 153.843 257.72 153.796V154.944C257.58 155 257.417 155.042 257.23 155.07C257.044 155.107 256.866 155.126 256.698 155.126ZM262.145 155.126C261.295 155.126 260.656 154.897 260.227 154.44C259.807 153.973 259.597 153.259 259.597 152.298V147.944H261.011V152.27C261.011 152.858 261.132 153.292 261.375 153.572C261.617 153.852 261.986 153.992 262.481 153.992C263.041 153.992 263.493 153.805 263.839 153.432C264.184 153.059 264.357 152.564 264.357 151.948V147.944H265.771V155H264.399V153.488H264.581C264.385 154.011 264.072 154.417 263.643 154.706C263.213 154.986 262.714 155.126 262.145 155.126ZM268.412 155V149.694C268.412 149.405 268.403 149.115 268.384 148.826C268.375 148.527 268.356 148.233 268.328 147.944H269.7L269.854 149.764H269.63C269.723 149.325 269.882 148.961 270.106 148.672C270.33 148.383 270.601 148.168 270.918 148.028C271.245 147.888 271.585 147.818 271.94 147.818C272.089 147.818 272.215 147.827 272.318 147.846C272.421 147.855 272.523 147.874 272.626 147.902L272.612 149.162C272.453 149.097 272.313 149.059 272.192 149.05C272.08 149.031 271.94 149.022 271.772 149.022C271.361 149.022 271.011 149.115 270.722 149.302C270.433 149.479 270.213 149.722 270.064 150.03C269.915 150.338 269.84 150.669 269.84 151.024V155H268.412ZM277.482 155.126C276.343 155.126 275.447 154.804 274.794 154.16C274.141 153.516 273.814 152.625 273.814 151.486C273.814 150.749 273.954 150.105 274.234 149.554C274.523 149.003 274.92 148.579 275.424 148.28C275.937 147.972 276.53 147.818 277.202 147.818C277.865 147.818 278.42 147.958 278.868 148.238C279.316 148.518 279.657 148.915 279.89 149.428C280.123 149.932 280.24 150.529 280.24 151.22V151.668H274.92V150.856H279.274L279.036 151.038C279.036 150.338 278.877 149.797 278.56 149.414C278.252 149.022 277.804 148.826 277.216 148.826C276.563 148.826 276.059 149.055 275.704 149.512C275.349 149.96 275.172 150.581 275.172 151.374V151.514C275.172 152.345 275.373 152.97 275.774 153.39C276.185 153.81 276.763 154.02 277.51 154.02C277.921 154.02 278.303 153.964 278.658 153.852C279.022 153.731 279.367 153.535 279.694 153.264L280.156 154.23C279.829 154.519 279.433 154.743 278.966 154.902C278.499 155.051 278.005 155.126 277.482 155.126Z" fill="#242424"/>
<path d="M37.3018 152.39C37.1281 152.071 36.7224 151.949 36.3957 152.119C36.0689 152.289 35.9448 152.685 36.1185 153.005C36.4726 153.656 36.6598 154.393 36.6598 155.136C36.6598 156.373 36.1611 157.53 35.2556 158.395C34.3504 159.258 33.1535 159.717 31.8869 159.689C29.3765 159.631 27.3369 157.586 27.3402 155.13C27.3426 153.398 28.3306 151.839 29.9187 151.062C30.1456 150.951 30.2889 150.725 30.2889 150.477V140.644C30.2889 139.908 30.9014 139.31 31.6542 139.31H32.3457C33.0985 139.31 33.711 139.908 33.711 140.644V150.068C33.711 150.43 34.0111 150.723 34.3811 150.723C34.7512 150.723 35.0512 150.43 35.0512 150.068V149.284H36.664C37.034 149.284 37.3341 148.991 37.3341 148.629C37.3341 148.267 37.034 147.974 36.664 147.974H35.0512V146.955H35.6851C36.0552 146.955 36.3552 146.662 36.3552 146.3C36.3552 145.938 36.0552 145.645 35.6851 145.645H35.0512V144.626H36.664C37.034 144.626 37.3341 144.333 37.3341 143.971C37.3341 143.609 37.034 143.316 36.664 143.316H35.0512V142.297H35.6851C36.0552 142.297 36.3552 142.003 36.3552 141.642C36.3552 141.28 36.0552 140.987 35.6851 140.987H35.0512V140.644C35.0512 139.186 33.8376 138 32.3458 138H31.6542C30.1625 138 28.9488 139.186 28.9488 140.644V150.088C27.1223 151.14 26.0029 153.035 26 155.128C25.9956 158.29 28.6223 160.924 31.8552 160.998C31.9042 160.999 31.9528 161 32.0017 161C33.5782 161 35.0614 160.411 36.192 159.332C37.3579 158.219 38 156.729 38 155.136C38 154.18 37.7586 153.23 37.3018 152.39Z" fill="#242424" stroke="#242424" stroke-width="0.1"/>
<g clip-path="url(#clip2_6_660)">
<path d="M67.861 150.836H63.025V155.936H61.117V150.836H56.305V149.06H61.117V143.984H63.025V149.06H67.861V150.836ZM80.8711 155.78C81.1271 155.78 81.3271 155.856 81.4711 156.008C81.6151 156.152 81.6871 156.344 81.6871 156.584V158H70.1191V157.196C70.1191 157.036 70.1511 156.868 70.2151 156.692C70.2791 156.508 70.3871 156.344 70.5391 156.2L75.9871 150.74C76.4431 150.284 76.8551 149.844 77.2231 149.42C77.5911 148.996 77.9031 148.576 78.1591 148.16C78.4151 147.736 78.6111 147.304 78.7471 146.864C78.8911 146.424 78.9631 145.96 78.9631 145.472C78.9631 144.992 78.8871 144.572 78.7351 144.212C78.5831 143.844 78.3751 143.54 78.1111 143.3C77.8471 143.06 77.5351 142.88 77.1751 142.76C76.8151 142.64 76.4271 142.58 76.0111 142.58C75.5951 142.58 75.2111 142.64 74.8591 142.76C74.5151 142.88 74.2071 143.048 73.9351 143.264C73.6631 143.48 73.4351 143.736 73.2511 144.032C73.0671 144.328 72.9351 144.648 72.8551 144.992C72.7431 145.296 72.5991 145.5 72.4231 145.604C72.2551 145.708 72.0071 145.732 71.6791 145.676L70.4551 145.46C70.5671 144.66 70.7871 143.956 71.1151 143.348C71.4431 142.74 71.8551 142.232 72.3511 141.824C72.8471 141.408 73.4151 141.096 74.0551 140.888C74.7031 140.68 75.3991 140.576 76.1431 140.576C76.8951 140.576 77.5871 140.688 78.2191 140.912C78.8591 141.128 79.4111 141.444 79.8751 141.86C80.3391 142.276 80.7031 142.784 80.9671 143.384C81.2311 143.976 81.3631 144.648 81.3631 145.4C81.3631 146.04 81.2671 146.636 81.0751 147.188C80.8911 147.732 80.6351 148.252 80.3071 148.748C79.9871 149.244 79.6111 149.728 79.1791 150.2C78.7551 150.664 78.3031 151.136 77.8231 151.616L73.4551 156.08C73.7911 155.992 74.1271 155.92 74.4631 155.864C74.8071 155.808 75.1311 155.78 75.4351 155.78H80.8711ZM87.4371 147.2C88.3171 147.016 89.1131 146.924 89.8251 146.924C90.7211 146.924 91.5131 147.06 92.2011 147.332C92.8891 147.596 93.4651 147.964 93.9291 148.436C94.4011 148.9 94.7531 149.452 94.9851 150.092C95.2251 150.724 95.3451 151.412 95.3451 152.156C95.3451 153.068 95.1851 153.896 94.8651 154.64C94.5451 155.384 94.1051 156.02 93.5451 156.548C92.9851 157.076 92.3211 157.484 91.5531 157.772C90.7931 158.052 89.9731 158.192 89.0931 158.192C88.5731 158.192 88.0771 158.14 87.6051 158.036C87.1411 157.932 86.7051 157.796 86.2971 157.628C85.8891 157.452 85.5091 157.252 85.1571 157.028C84.8131 156.804 84.5051 156.568 84.2331 156.32L84.9531 155.312C85.1051 155.088 85.3091 154.976 85.5651 154.976C85.7331 154.976 85.9171 155.04 86.1171 155.168C86.3251 155.288 86.5691 155.424 86.8491 155.576C87.1291 155.728 87.4611 155.868 87.8451 155.996C88.2291 156.116 88.6851 156.176 89.2131 156.176C89.7971 156.176 90.3211 156.084 90.7851 155.9C91.2571 155.708 91.6531 155.44 91.9731 155.096C92.3011 154.752 92.5491 154.34 92.7171 153.86C92.8931 153.38 92.9811 152.848 92.9811 152.264C92.9811 151.744 92.9051 151.276 92.7531 150.86C92.6011 150.444 92.3731 150.088 92.0691 149.792C91.7651 149.496 91.3851 149.272 90.9291 149.12C90.4731 148.96 89.9411 148.88 89.3331 148.88C88.4851 148.88 87.5811 149.032 86.6211 149.336L85.1451 148.904L86.5491 140.768H94.8051V141.788C94.8051 142.124 94.6971 142.4 94.4811 142.616C94.2731 142.824 93.9211 142.928 93.4251 142.928H88.1811L87.4371 147.2Z" fill="#242424"/>
<path d="M120.668 154.304C120.812 154.304 120.936 154.36 121.04 154.472L122.048 155.576C121.344 156.408 120.484 157.052 119.468 157.508C118.46 157.964 117.244 158.192 115.82 158.192C114.572 158.192 113.44 157.976 112.424 157.544C111.416 157.112 110.552 156.508 109.832 155.732C109.12 154.956 108.568 154.028 108.176 152.948C107.784 151.868 107.588 150.68 107.588 149.384C107.588 148.088 107.792 146.9 108.2 145.82C108.616 144.74 109.196 143.812 109.94 143.036C110.684 142.26 111.572 141.656 112.604 141.224C113.644 140.792 114.792 140.576 116.048 140.576C117.272 140.576 118.36 140.776 119.312 141.176C120.264 141.576 121.092 142.108 121.796 142.772L120.956 143.96C120.9 144.048 120.828 144.12 120.74 144.176C120.66 144.232 120.552 144.26 120.416 144.26C120.264 144.26 120.084 144.184 119.876 144.032C119.676 143.88 119.408 143.712 119.072 143.528C118.744 143.336 118.336 143.164 117.848 143.012C117.36 142.86 116.752 142.784 116.024 142.784C115.168 142.784 114.384 142.936 113.672 143.24C112.96 143.536 112.344 143.968 111.824 144.536C111.312 145.096 110.912 145.788 110.624 146.612C110.344 147.428 110.204 148.352 110.204 149.384C110.204 150.432 110.352 151.364 110.648 152.18C110.944 152.996 111.352 153.688 111.872 154.256C112.392 154.824 113.004 155.256 113.708 155.552C114.412 155.848 115.172 155.996 115.988 155.996C116.484 155.996 116.928 155.968 117.32 155.912C117.72 155.848 118.084 155.756 118.412 155.636C118.748 155.516 119.064 155.364 119.36 155.18C119.656 154.988 119.948 154.76 120.236 154.496C120.3 154.44 120.368 154.396 120.44 154.364C120.512 154.324 120.588 154.304 120.668 154.304Z" fill="#242424"/>
<circle cx="101.5" cy="142.5" r="1.8" stroke="#242424" stroke-width="1.4"/>
</g>
</g>
<path d="M56.162 197V187.13H62.49V188.292H57.618V191.456H62.168V192.618H57.618V197H56.162ZM66.9196 197.126C66.0703 197.126 65.431 196.897 65.0016 196.44C64.5816 195.973 64.3716 195.259 64.3716 194.298V189.944H65.7856V194.27C65.7856 194.858 65.907 195.292 66.1496 195.572C66.3923 195.852 66.761 195.992 67.2556 195.992C67.8156 195.992 68.2683 195.805 68.6136 195.432C68.959 195.059 69.1316 194.564 69.1316 193.948V189.944H70.5456V197H69.1736V195.488H69.3556C69.1596 196.011 68.847 196.417 68.4176 196.706C67.9883 196.986 67.489 197.126 66.9196 197.126ZM72.8651 197V196.062L77.4571 190.686L77.4711 191.036H72.8651V189.944H78.7591V190.882L74.1251 196.3L74.1111 195.922H78.9131V197H72.8651ZM80.7779 197V196.062L85.3699 190.686L85.3839 191.036H80.7779V189.944H86.6719V190.882L82.0379 196.3L82.0239 195.922H86.8259V197H80.7779ZM88.735 200.178L88.399 199.03C88.8376 198.937 89.2016 198.825 89.491 198.694C89.7896 198.563 90.037 198.391 90.233 198.176C90.429 197.971 90.597 197.705 90.737 197.378L91.087 196.552L91.059 197.126L87.993 189.944H89.505L91.885 195.824H91.507L93.887 189.944H95.343L92.109 197.504C91.9036 197.971 91.6843 198.363 91.451 198.68C91.2176 198.997 90.9656 199.254 90.695 199.45C90.4243 199.646 90.1256 199.8 89.799 199.912C89.4723 200.024 89.1176 200.113 88.735 200.178ZM104.474 197.126C103.765 197.126 103.144 196.981 102.612 196.692C102.089 196.393 101.683 195.969 101.394 195.418C101.114 194.858 100.974 194.195 100.974 193.43C100.974 192.674 101.119 192.025 101.408 191.484C101.697 190.943 102.103 190.532 102.626 190.252C103.149 189.963 103.765 189.818 104.474 189.818C104.931 189.818 105.375 189.897 105.804 190.056C106.233 190.205 106.588 190.42 106.868 190.7L106.406 191.694C106.145 191.442 105.851 191.255 105.524 191.134C105.197 191.003 104.88 190.938 104.572 190.938C103.9 190.938 103.373 191.153 102.99 191.582C102.607 192.011 102.416 192.632 102.416 193.444C102.416 194.265 102.607 194.895 102.99 195.334C103.373 195.773 103.9 195.992 104.572 195.992C104.871 195.992 105.183 195.936 105.51 195.824C105.837 195.703 106.135 195.511 106.406 195.25L106.868 196.244C106.579 196.524 106.215 196.743 105.776 196.902C105.347 197.051 104.913 197.126 104.474 197.126ZM108.965 197V186.696H110.379V197H108.965ZM116.073 197.126C115.373 197.126 114.767 196.981 114.253 196.692C113.74 196.393 113.343 195.973 113.063 195.432C112.783 194.881 112.643 194.228 112.643 193.472C112.643 192.716 112.783 192.067 113.063 191.526C113.343 190.975 113.74 190.555 114.253 190.266C114.767 189.967 115.373 189.818 116.073 189.818C116.773 189.818 117.38 189.967 117.893 190.266C118.416 190.555 118.817 190.975 119.097 191.526C119.387 192.067 119.531 192.716 119.531 193.472C119.531 194.228 119.387 194.881 119.097 195.432C118.817 195.973 118.416 196.393 117.893 196.692C117.38 196.981 116.773 197.126 116.073 197.126ZM116.073 196.02C116.689 196.02 117.179 195.805 117.543 195.376C117.907 194.947 118.089 194.312 118.089 193.472C118.089 192.632 117.907 192.002 117.543 191.582C117.179 191.153 116.689 190.938 116.073 190.938C115.467 190.938 114.981 191.153 114.617 191.582C114.253 192.002 114.071 192.632 114.071 193.472C114.071 194.312 114.249 194.947 114.603 195.376C114.967 195.805 115.457 196.02 116.073 196.02ZM124.288 197.126C123.439 197.126 122.8 196.897 122.37 196.44C121.95 195.973 121.74 195.259 121.74 194.298V189.944H123.154V194.27C123.154 194.858 123.276 195.292 123.518 195.572C123.761 195.852 124.13 195.992 124.624 195.992C125.184 195.992 125.637 195.805 125.982 195.432C126.328 195.059 126.5 194.564 126.5 193.948V189.944H127.914V197H126.542V195.488H126.724C126.528 196.011 126.216 196.417 125.786 196.706C125.357 196.986 124.858 197.126 124.288 197.126ZM133.286 197.126C132.67 197.126 132.124 196.981 131.648 196.692C131.181 196.403 130.817 195.983 130.556 195.432C130.304 194.881 130.178 194.228 130.178 193.472C130.178 192.707 130.304 192.053 130.556 191.512C130.817 190.971 131.181 190.555 131.648 190.266C132.124 189.967 132.67 189.818 133.286 189.818C133.892 189.818 134.424 189.972 134.882 190.28C135.348 190.579 135.656 190.989 135.806 191.512H135.638V186.696H137.052V197H135.652V195.404H135.82C135.661 195.936 135.353 196.356 134.896 196.664C134.438 196.972 133.902 197.126 133.286 197.126ZM133.636 196.02C134.242 196.02 134.732 195.805 135.106 195.376C135.479 194.947 135.666 194.312 135.666 193.472C135.666 192.632 135.479 192.002 135.106 191.582C134.732 191.153 134.242 190.938 133.636 190.938C133.02 190.938 132.525 191.153 132.152 191.582C131.788 192.002 131.606 192.632 131.606 193.472C131.606 194.312 131.788 194.947 132.152 195.376C132.525 195.805 133.02 196.02 133.636 196.02ZM139.503 200.178L139.167 199.03C139.606 198.937 139.97 198.825 140.259 198.694C140.558 198.563 140.805 198.391 141.001 198.176C141.197 197.971 141.365 197.705 141.505 197.378L141.855 196.552L141.827 197.126L138.761 189.944H140.273L142.653 195.824H142.275L144.655 189.944H146.111L142.877 197.504C142.672 197.971 142.453 198.363 142.219 198.68C141.986 198.997 141.734 199.254 141.463 199.45C141.193 199.646 140.894 199.8 140.567 199.912C140.241 200.024 139.886 200.113 139.503 200.178ZM154.066 197L151.392 189.944H152.862L154.948 195.824H154.584L156.726 189.944H157.818L159.946 195.824H159.596L161.682 189.944H163.096L160.408 197H159.12L156.908 191.008H157.566L155.382 197H154.066ZM168.136 197.126C166.997 197.126 166.101 196.804 165.448 196.16C164.794 195.516 164.468 194.625 164.468 193.486C164.468 192.749 164.608 192.105 164.888 191.554C165.177 191.003 165.574 190.579 166.078 190.28C166.591 189.972 167.184 189.818 167.856 189.818C168.518 189.818 169.074 189.958 169.522 190.238C169.97 190.518 170.31 190.915 170.544 191.428C170.777 191.932 170.894 192.529 170.894 193.22V193.668H165.574V192.856H169.928L169.69 193.038C169.69 192.338 169.531 191.797 169.214 191.414C168.906 191.022 168.458 190.826 167.87 190.826C167.216 190.826 166.712 191.055 166.358 191.512C166.003 191.96 165.826 192.581 165.826 193.374V193.514C165.826 194.345 166.026 194.97 166.428 195.39C166.838 195.81 167.417 196.02 168.164 196.02C168.574 196.02 168.957 195.964 169.312 195.852C169.676 195.731 170.021 195.535 170.348 195.264L170.81 196.23C170.483 196.519 170.086 196.743 169.62 196.902C169.153 197.051 168.658 197.126 168.136 197.126ZM175.817 197.126C175.191 197.126 174.645 196.981 174.179 196.692C173.712 196.403 173.348 195.983 173.087 195.432C172.835 194.881 172.709 194.228 172.709 193.472C172.709 192.707 172.835 192.053 173.087 191.512C173.348 190.971 173.712 190.555 174.179 190.266C174.645 189.967 175.191 189.818 175.817 189.818C176.433 189.818 176.969 189.972 177.427 190.28C177.884 190.588 178.187 191.008 178.337 191.54H178.183L178.323 189.944H179.695C179.667 190.233 179.639 190.523 179.611 190.812C179.592 191.092 179.583 191.367 179.583 191.638V197H178.169V195.432H178.323C178.173 195.955 177.865 196.37 177.399 196.678C176.941 196.977 176.414 197.126 175.817 197.126ZM176.167 196.02C176.773 196.02 177.259 195.805 177.623 195.376C177.996 194.947 178.183 194.312 178.183 193.472C178.183 192.632 177.996 192.002 177.623 191.582C177.259 191.153 176.773 190.938 176.167 190.938C175.551 190.938 175.056 191.153 174.683 191.582C174.319 192.002 174.137 192.632 174.137 193.472C174.137 194.312 174.319 194.947 174.683 195.376C175.047 195.805 175.541 196.02 176.167 196.02ZM184.988 197.126C184.223 197.126 183.644 196.921 183.252 196.51C182.86 196.09 182.664 195.465 182.664 194.634V191.036H181.292V189.944H182.664V188.082L184.078 187.704V189.944H186.038V191.036H184.078V194.508C184.078 195.031 184.171 195.404 184.358 195.628C184.545 195.852 184.815 195.964 185.17 195.964C185.347 195.964 185.501 195.95 185.632 195.922C185.772 195.885 185.898 195.843 186.01 195.796V196.944C185.87 197 185.707 197.042 185.52 197.07C185.333 197.107 185.156 197.126 184.988 197.126ZM187.928 197V186.696H189.342V191.442H189.146C189.352 190.91 189.683 190.509 190.14 190.238C190.598 189.958 191.125 189.818 191.722 189.818C192.562 189.818 193.188 190.051 193.598 190.518C194.009 190.975 194.214 191.671 194.214 192.604V197H192.8V192.688C192.8 192.081 192.679 191.643 192.436 191.372C192.203 191.092 191.83 190.952 191.316 190.952C190.719 190.952 190.238 191.139 189.874 191.512C189.52 191.876 189.342 192.361 189.342 192.968V197H187.928ZM200.088 197.126C198.949 197.126 198.053 196.804 197.4 196.16C196.746 195.516 196.42 194.625 196.42 193.486C196.42 192.749 196.56 192.105 196.84 191.554C197.129 191.003 197.526 190.579 198.03 190.28C198.543 189.972 199.136 189.818 199.808 189.818C200.47 189.818 201.026 189.958 201.474 190.238C201.922 190.518 202.262 190.915 202.496 191.428C202.729 191.932 202.846 192.529 202.846 193.22V193.668H197.526V192.856H201.88L201.642 193.038C201.642 192.338 201.483 191.797 201.166 191.414C200.858 191.022 200.41 190.826 199.822 190.826C199.168 190.826 198.664 191.055 198.31 191.512C197.955 191.96 197.778 192.581 197.778 193.374V193.514C197.778 194.345 197.978 194.97 198.38 195.39C198.79 195.81 199.369 196.02 200.116 196.02C200.526 196.02 200.909 195.964 201.264 195.852C201.628 195.731 201.973 195.535 202.3 195.264L202.762 196.23C202.435 196.519 202.038 196.743 201.572 196.902C201.105 197.051 200.61 197.126 200.088 197.126ZM205.038 197V191.694C205.038 191.405 205.029 191.115 205.01 190.826C205.001 190.527 204.982 190.233 204.954 189.944H206.326L206.48 191.764H206.256C206.35 191.325 206.508 190.961 206.732 190.672C206.956 190.383 207.227 190.168 207.544 190.028C207.871 189.888 208.212 189.818 208.566 189.818C208.716 189.818 208.842 189.827 208.944 189.846C209.047 189.855 209.15 189.874 209.252 189.902L209.238 191.162C209.08 191.097 208.94 191.059 208.818 191.05C208.706 191.031 208.566 191.022 208.398 191.022C207.988 191.022 207.638 191.115 207.348 191.302C207.059 191.479 206.84 191.722 206.69 192.03C206.541 192.338 206.466 192.669 206.466 193.024V197H205.038Z" fill="#242424"/>
<path d="M44.3906 192H44.3086V190.318C44.3086 186.835 41.7513 184 38.6074 184C35.4636 184 32.9062 186.835 32.9062 190.318V190.909H31.1016C28.8364 190.909 27 192.944 27 195.455C27 197.965 28.8364 200 31.1016 200H44.3906C46.384 200 48 198.209 48 196C48 193.791 46.384 192 44.3906 192Z" stroke="#242424" stroke-width="1.6"/>
</g>
<defs>
<filter id="filter0_f_6_660" x="522.549" y="210.458" width="83.9108" height="13.0439" filterUnits="userSpaceOnUse" color-interpolation-filters="sRGB">
<feFlood flood-opacity="0" result="BackgroundImageFix"/>
<feBlend mode="normal" in="SourceGraphic" in2="BackgroundImageFix" result="shape"/>
<feGaussianBlur stdDeviation="1.31942" result="effect1_foregroundBlur_6_660"/>
</filter>
<filter id="filter1_f_6_660" x="468.186" y="201.05" width="53.8166" height="18.8686" filterUnits="userSpaceOnUse" color-interpolation-filters="sRGB">
<feFlood flood-opacity="0" result="BackgroundImageFix"/>
<feBlend mode="normal" in="SourceGraphic" in2="BackgroundImageFix" result="shape"/>
<feGaussianBlur stdDeviation="1.31942" result="effect1_foregroundBlur_6_660"/>
</filter>
<linearGradient id="paint0_linear_6_660" x1="717" y1="24.3118" x2="423.451" y2="24.3118" gradientUnits="userSpaceOnUse">
<stop stop-color="#FFC36E"/>
<stop offset="0.236984" stop-color="#FFC872"/>
<stop offset="1" stop-color="#FED57F"/>
</linearGradient>
<clipPath id="clip0_6_660">
<rect width="359" height="174" fill="white" transform="translate(25 27)"/>
</clipPath>
<clipPath id="clip1_6_660">
<rect width="256" height="28" fill="white" transform="translate(26 135)"/>
</clipPath>
<clipPath id="clip2_6_660">
<rect width="68" height="28" fill="white" transform="translate(55 135)"/>
</clipPath>
</defs>
</svg>
