<svg width="23" height="27" viewBox="0 0 23 27" fill="none" xmlns="http://www.w3.org/2000/svg">
<path d="M12.4266 23.2572C13.3468 23.2574 14.1141 24.0244 14.1141 24.9447V25.0365C14.1139 25.9566 13.3467 26.7237 12.4266 26.724H10.3709C9.45057 26.724 8.68361 25.9568 8.68341 25.0365V24.9447C8.68341 24.0242 9.45046 23.2572 10.3709 23.2572H12.4266ZM10.3709 24.515C10.1256 24.515 9.91119 24.7297 9.91095 24.9749V25.0677C9.91134 25.3129 10.1257 25.5277 10.3709 25.5277H12.4266C12.6716 25.5274 12.8861 25.3127 12.8865 25.0677V24.9749C12.8863 24.7298 12.6717 24.5153 12.4266 24.515H10.3709ZM13.7459 19.1458C14.6662 19.1461 15.4334 19.913 15.4334 20.8333V20.9251C15.4332 21.8453 14.6967 22.6124 13.7459 22.6126H9.05157C8.13125 22.6126 7.36429 21.8454 7.36407 20.9251V20.8333C7.36407 19.9129 8.13112 19.1458 9.05157 19.1458H13.7459ZM9.05157 20.3734C8.80612 20.3734 8.59161 20.5879 8.59161 20.8333V20.9251C8.59184 21.1704 8.80625 21.3861 9.05157 21.3861H13.7459C13.991 21.3858 14.2056 21.1703 14.2059 20.9251V20.8333C14.2059 20.588 13.9912 20.3737 13.7459 20.3734H9.05157ZM16.8445 17.1205C17.0899 16.8752 17.4575 16.8753 17.7029 17.1205L19.2986 18.7162C19.544 18.9616 19.544 19.3291 19.2986 19.5746C19.1759 19.6973 19.0224 19.7591 18.869 19.7591C18.7157 19.759 18.5619 19.6972 18.4393 19.5746L16.8445 17.9798C16.5991 17.7344 16.5991 17.3659 16.8445 17.1205ZM4.93927 17.0589C5.18467 16.8135 5.55319 16.8137 5.79865 17.0589C6.0441 17.3044 6.0441 17.6728 5.79865 17.9183L4.20294 19.514C4.08039 19.6364 3.92734 19.6975 3.77423 19.6976C3.62095 19.6976 3.46722 19.6365 3.34454 19.514C3.09909 19.2686 3.09909 18.9001 3.34454 18.6546L4.93927 17.0589ZM11.4129 4.44858C14.9412 4.44858 17.8258 7.60917 17.826 11.4749C17.8259 13.6226 16.9362 16.4147 15.617 18.3783C15.4944 18.5622 15.3101 18.6545 15.0955 18.6546H7.73126C7.51674 18.6545 7.3324 18.5622 7.20978 18.3783C5.89063 16.4147 5.00086 13.6225 5.00079 11.4749C5.00093 7.60942 7.8849 4.449 11.4129 4.44858ZM11.4129 5.67612C8.52923 5.67655 6.22847 8.28443 6.22833 11.4749C6.22839 13.3157 6.96477 15.6477 8.06915 17.4271H14.7576C15.8621 15.6476 16.5984 13.3158 16.5984 11.4749C16.5983 8.28417 14.2662 5.67612 11.4129 5.67612ZM22.0291 10.9837C22.3666 10.9837 22.6434 11.2605 22.6434 11.598C22.6432 11.9354 22.3665 12.2113 22.0291 12.2113H19.7899C19.4524 12.2113 19.1767 11.9354 19.1766 11.598C19.1766 11.2605 19.4524 10.9837 19.7899 10.9837H22.0291ZM2.91486 10.8919C3.25215 10.892 3.52789 11.168 3.52814 11.5052C3.52814 11.8427 3.25231 12.1194 2.91486 12.1195H0.674622C0.337283 12.1193 0.0613403 11.8426 0.0613403 11.5052C0.0615921 11.168 0.337437 10.8921 0.674622 10.8919H2.91486ZM18.532 3.59018C18.7775 3.34473 19.145 3.34474 19.3904 3.59018C19.6359 3.83563 19.6359 4.20312 19.3904 4.44858L17.7957 6.04428C17.673 6.16697 17.5194 6.22881 17.366 6.22885C17.2126 6.22885 17.0284 6.16701 16.9363 6.04428C16.6909 5.79883 16.6909 5.43035 16.9363 5.18491L18.532 3.59018ZM3.40607 3.52866C3.65152 3.28329 4.01904 3.28325 4.26447 3.52866L5.86017 5.12338C6.1056 5.36881 6.10554 5.7373 5.86017 5.98276C5.73744 6.10548 5.58389 6.16733 5.43048 6.16733C5.27713 6.16728 5.12347 6.10544 5.00079 5.98276L3.40607 4.38705C3.16063 4.1416 3.16062 3.7741 3.40607 3.52866ZM11.4139 0.245453C11.7511 0.245598 12.027 0.521484 12.0272 0.858734V3.12924C12.0272 3.46665 11.7513 3.74335 11.4139 3.7435C11.0764 3.7435 10.7997 3.4671 10.7996 3.09897V0.858734C10.7998 0.521395 11.0765 0.245453 11.4139 0.245453Z" fill="#9897AD"/>
</svg>
