<svg width="31" height="40" viewBox="0 0 31 40" fill="none" xmlns="http://www.w3.org/2000/svg">
<path d="M15.5 0C15.9429 0.205615 16.0536 0.569395 16.0536 1.02807C16.0536 3.3531 16.0852 5.69395 16.101 8.01898C16.101 8.17715 16.101 8.3195 16.101 8.54093C16.3541 8.54093 16.5597 8.54093 16.7811 8.54093C17.7776 8.57256 18.3944 9.1894 18.4102 10.1858C18.4102 10.5971 18.4261 11.0241 18.4102 11.4354C18.3944 11.7675 18.4893 11.894 18.8215 11.9889C21.02 12.4951 23.0128 13.4599 24.7368 14.915C27.3624 17.1293 29.1497 19.8814 29.9247 23.2503C30.1777 24.3416 30.2568 25.4804 30.3675 26.6034C30.4308 27.2835 30.1145 27.584 29.4344 27.584C26.967 27.584 24.4838 27.584 22.0164 27.584C21.8741 27.584 21.7317 27.584 21.5577 27.584C21.2572 29.5295 20.3715 31.1111 18.7108 32.1866C17.4454 33.0249 16.0378 33.3412 14.551 33.1989C12.052 32.9458 9.41063 31.2376 8.80961 27.584C8.66726 27.584 8.52491 27.584 8.36674 27.584C5.91518 27.584 3.47944 27.584 1.02788 27.584C0.205416 27.584 -0.0160152 27.3151 -0.000198718 26.4927C0.0630674 24.1677 0.569196 21.9533 1.64472 19.8814C3.13147 16.987 5.29834 14.7885 8.17695 13.2859C9.36318 12.669 10.6285 12.1945 11.9413 11.9098C12.1943 11.8466 12.2734 11.7359 12.2734 11.4828C12.2576 11.0874 12.2734 10.6762 12.2734 10.2649C12.2892 9.14196 12.8903 8.52511 14.0132 8.52511C14.1872 8.52511 14.3454 8.52511 14.5826 8.52511C14.5826 8.35113 14.5826 8.20878 14.5826 8.06643C14.5668 5.70977 14.551 3.3531 14.5352 0.996441C14.5352 0.537762 14.6617 0.189798 15.1046 0C15.2469 0 15.3735 0 15.5 0ZM28.8491 25.9866C28.6119 19.5176 23.0445 12.8747 14.725 13.1435C7.05397 13.3966 1.77125 19.6916 1.59727 25.9866C10.676 25.9866 19.7388 25.9866 28.8491 25.9866ZM20.0552 27.5998C16.8444 27.5998 13.6653 27.5998 10.4862 27.5998C10.7234 29.83 12.7954 31.6172 15.1679 31.6647C17.5561 31.7121 19.723 29.9091 20.0552 27.5998ZM13.7444 11.5935C14.8041 11.5935 15.8163 11.5935 16.8286 11.5935C16.8286 11.0874 16.8286 10.6129 16.8286 10.1226C15.7847 10.1226 14.7724 10.1226 13.7444 10.1226C13.7444 10.6129 13.7444 11.0716 13.7444 11.5935Z" fill="black"/>
<path d="M26.7933 32.93C26.8091 33.5785 26.303 33.9423 25.7811 33.7841C25.7178 33.7683 25.6545 33.7525 25.6071 33.7208C24.405 33.0249 23.203 32.329 22.0167 31.6172C21.7162 31.4433 21.5581 31.1586 21.653 30.7948C21.7637 30.2728 22.2698 30.0356 22.7759 30.2728C23.0923 30.431 23.3928 30.6208 23.6933 30.7948C24.5632 31.3009 25.4489 31.8229 26.3188 32.329C26.5719 32.4713 26.7933 32.677 26.7933 32.93Z" fill="black"/>
<path d="M11.8943 34.0055C11.8626 34.0845 11.8152 34.2743 11.7203 34.4167C11.056 35.5555 10.4075 36.6943 9.7274 37.8173C9.64832 37.9596 9.5376 38.102 9.39525 38.1969C9.11056 38.3867 8.79423 38.3708 8.52535 38.1652C8.24065 37.9596 8.16157 37.6749 8.25647 37.3428C8.2881 37.232 8.33555 37.1213 8.39881 37.0264C9.04729 35.9193 9.69577 34.7963 10.3442 33.6891C10.6131 33.2305 10.9769 33.0723 11.3723 33.2146C11.7045 33.3095 11.8943 33.5942 11.8943 34.0055Z" fill="black"/>
<path d="M8.85733 31.0794C8.76243 31.206 8.62008 31.5065 8.38283 31.6646C7.24404 32.3606 6.08943 33.0249 4.91901 33.6891C4.49197 33.9422 4.00165 33.8157 3.79604 33.4519C3.59042 33.0881 3.70114 32.6294 4.12819 32.3764C5.31442 31.6646 6.50066 30.9687 7.70272 30.2886C8.20885 29.9881 8.85733 30.3519 8.85733 31.0794Z" fill="black"/>
<path d="M22.2856 37.6592C22.1432 37.8332 22.0009 38.102 21.7953 38.2286C21.5264 38.4026 21.2101 38.3077 20.9728 38.102C20.9095 38.0388 20.8463 37.9755 20.7988 37.8964C20.1029 36.7102 19.407 35.5239 18.7269 34.3219C18.4896 33.9107 18.6478 33.4362 18.9957 33.2306C19.3437 33.0408 19.8024 33.1357 20.0396 33.5311C20.7514 34.7173 21.4473 35.9194 22.1432 37.1214C22.2065 37.2638 22.2223 37.4219 22.2856 37.6592Z" fill="black"/>
<path d="M15.9904 37.1531C15.9904 37.8174 15.9904 38.4817 15.9904 39.146C15.9904 39.6837 15.6898 40.0001 15.2312 40.0001C14.7883 40.0001 14.4878 39.6679 14.4878 39.1301C14.4878 37.8016 14.4878 36.473 14.4878 35.1444C14.4878 34.6224 14.7883 34.2903 15.247 34.2903C15.7057 34.2903 15.9745 34.5908 15.9904 35.1444C15.9904 35.8245 15.9904 36.4888 15.9904 37.1531Z" fill="black"/>
</svg>
