<svg width="60" height="60" viewBox="0 0 60 60" fill="none" xmlns="http://www.w3.org/2000/svg">
<path d="M7.5 53.7475H11.25C11.9375 53.7475 12.5 53.185 12.5 52.4975V25.8725C12.5 25.185 11.9375 24.6225 11.25 24.6225H7.5C6.8125 24.6225 6.25 25.185 6.25 25.8725V52.4975C6.25 53.185 6.8125 53.7475 7.5 53.7475Z" fill="#C7C8DA"/>
<path d="M17.9126 53.7475H21.6626C22.3501 53.7475 22.9126 53.185 22.9126 52.4975V25.8725C22.9126 25.185 22.3501 24.6225 21.6626 24.6225H17.9126C17.2251 24.6225 16.6626 25.185 16.6626 25.8725V52.4975C16.6626 53.185 17.2251 53.7475 17.9126 53.7475Z" fill="#C7C8DA"/>
<path d="M28.3374 53.7475H32.0874C32.7749 53.7475 33.3374 53.185 33.3374 52.4975V25.8725C33.3374 25.185 32.7749 24.6225 32.0874 24.6225H28.3374C27.6499 24.6225 27.0874 25.185 27.0874 25.8725V52.4975C27.0874 53.185 27.6374 53.7475 28.3374 53.7475Z" fill="#C7C8DA"/>
<path d="M38.75 53.7475H42.5C43.1875 53.7475 43.75 53.185 43.75 52.4975V25.8725C43.75 25.185 43.1875 24.6225 42.5 24.6225H38.75C38.0625 24.6225 37.5 25.185 37.5 25.8725V52.4975C37.5 53.185 38.0625 53.7475 38.75 53.7475Z" fill="#C7C8DA"/>
<path d="M50.625 24.6225C48.9 24.6225 47.5 26.0225 47.5 27.7475V27.835C47.5 29.56 48.9 30.96 50.625 30.96C52.35 30.96 53.75 29.56 53.75 27.835V27.7475C53.75 26.0225 52.35 24.6225 50.625 24.6225Z" fill="#C7C8DA"/>
<path d="M16.6125 19.56L14.5125 17.2225C14.2875 16.9725 14.175 16.6475 14.1875 16.31C14.2 15.9725 14.35 15.66 14.6 15.435C15.5875 14.5225 16.1625 13.285 16.2375 11.9225C16.3 10.5725 15.8375 9.27253 14.9375 8.27253L13.6625 6.87253C12.975 6.09753 11.7875 6.03503 11.0125 6.74753C10.25 7.44753 10.2 8.64753 10.8875 9.42253L12.15 10.8225C12.375 11.085 12.4875 11.41 12.475 11.7475C12.4625 12.085 12.3125 12.385 12.0625 12.6225C11.075 13.5225 10.5 14.7725 10.4375 16.1225C10.375 17.4725 10.8375 18.7725 11.7375 19.7725L13.8375 22.11C14.2125 22.5225 14.7125 22.735 15.225 22.735C15.675 22.735 16.125 22.5725 16.4875 22.235C17.25 21.535 17.3 20.335 16.6125 19.56Z" fill="#C7C8DA"/>
<path d="M26.6126 19.56L24.5126 17.2225C24.2876 16.9725 24.1751 16.6475 24.1876 16.31C24.2001 15.9725 24.3501 15.66 24.6001 15.435C25.5876 14.5225 26.1626 13.285 26.2376 11.9225C26.3001 10.5725 25.8376 9.27253 24.9376 8.27253L23.6626 6.87253C22.9626 6.09753 21.7751 6.03503 21.0126 6.74753C20.2501 7.44753 20.1876 8.66003 20.8876 9.43503L22.1501 10.835C22.3751 11.085 22.4876 11.41 22.4751 11.7475C22.4626 12.085 22.3126 12.3975 22.0626 12.6225C21.0751 13.535 20.5001 14.7725 20.4376 16.135C20.3751 17.4975 20.8376 18.785 21.7376 19.785L23.8376 22.1225C24.2126 22.535 24.7126 22.7475 25.2251 22.7475C25.6751 22.7475 26.1251 22.585 26.4876 22.2475C27.2501 21.535 27.3001 20.335 26.6126 19.56Z" fill="#C7C8DA"/>
<path d="M37.8626 19.56L35.7626 17.2225C35.5376 16.9725 35.4251 16.6475 35.4376 16.31C35.4501 15.9725 35.6001 15.66 35.8501 15.435C36.8376 14.5225 37.4126 13.285 37.4876 11.9225C37.5501 10.5725 37.0876 9.27253 36.1876 8.27253L34.9126 6.87253C34.2126 6.09753 33.0251 6.03503 32.2626 6.74753C31.5001 7.44753 31.4376 8.66003 32.1376 9.43503L33.4001 10.835C33.6251 11.085 33.7376 11.41 33.7251 11.7475C33.7126 12.085 33.5626 12.3975 33.3126 12.6225C32.3251 13.535 31.7501 14.7725 31.6876 16.135C31.6251 17.4975 32.0876 18.785 32.9876 19.785L35.0876 22.1225C35.4626 22.535 35.9626 22.7475 36.4751 22.7475C36.9251 22.7475 37.3751 22.585 37.7376 22.2475C38.5001 21.535 38.5501 20.335 37.8626 19.56Z" fill="#C7C8DA"/>
</svg>
