<svg width="60" height="60" viewBox="0 0 60 60" fill="none" xmlns="http://www.w3.org/2000/svg">
<path d="M40.7843 18.2364C40.7843 22.3658 35.5977 28.3287 32.4263 31.5992C31.1214 32.9536 28.9741 32.9536 27.6692 31.5992C24.4978 28.3287 19.3113 22.3658 19.3113 18.2364C19.3113 12.3065 24.1179 7.49985 30.0478 7.49985C35.9777 7.49985 40.7843 12.3065 40.7843 18.2364Z" fill="#C7C8DA"/>
<path d="M10.3752 33.7131C13.943 31.6484 21.7229 33.1515 26.1166 34.2747C27.9335 34.7372 29.0072 36.5872 28.4951 38.4041C27.2563 42.7648 24.6795 50.2638 21.1117 52.312C15.9747 55.2687 9.41717 53.5178 6.44398 48.3808C3.47079 43.2438 5.23819 36.6863 10.3752 33.7131Z" fill="#C7C8DA"/>
<path d="M38.9839 52.3129C35.4161 50.2482 32.8393 42.7657 31.6005 38.405C31.0884 36.6045 32.1621 34.738 33.979 34.2755C38.3892 33.1689 46.1526 31.6658 49.7204 33.7139C54.8574 36.6706 56.6083 43.2447 53.6516 48.3817C50.6784 53.5187 44.1209 55.2696 38.9839 52.3129Z" fill="#C7C8DA"/>
</svg>
