<svg width="19" height="30" viewBox="0 0 19 30" fill="none" xmlns="http://www.w3.org/2000/svg">
<path d="M16.3635 1.10526C17.3285 1.10526 18.1203 1.89611 18.1203 2.86111V11.6189C18.1203 11.822 17.9602 11.9812 17.757 11.9812H1.25704C1.05415 11.981 0.894794 11.8219 0.894737 11.6189V2.86111C0.894753 1.89612 1.68561 1.10527 2.6506 1.10526H16.3635ZM2.6506 1.83084C2.08467 1.83086 1.62034 2.29519 1.62032 2.86111V11.2556H17.3947V2.86111C17.3947 2.29518 16.9294 1.83084 16.3635 1.83084H2.6506Z" fill="#FF9900"/>
<path d="M18.1203 2.86111H18.4677V2.86111L18.1203 2.86111ZM18.1203 11.6189L18.4677 11.619V11.6189H18.1203ZM1.25704 11.9812L1.25661 12.3286H1.25704V11.9812ZM0.894737 11.6189H0.547369V11.619L0.894737 11.6189ZM0.894737 2.86111L0.547369 2.86111V2.86111H0.894737ZM2.6506 1.10526V0.757887H2.65059L2.6506 1.10526ZM2.6506 1.83084V1.48347H2.65059L2.6506 1.83084ZM1.62032 2.86111L1.27295 2.8611V2.86111H1.62032ZM1.62032 11.2556H1.27295V11.603H1.62032V11.2556ZM17.3947 11.2556V11.603H17.7421V11.2556H17.3947ZM17.3947 2.86111H17.7421V2.8611L17.3947 2.86111ZM16.3635 1.10526V1.45262C17.1369 1.45262 17.7729 2.08821 17.773 2.86112L18.1203 2.86111L18.4677 2.86111C18.4677 1.70402 17.5201 0.757887 16.3635 0.757887V1.10526ZM18.1203 2.86111H17.773V11.6189H18.1203H18.4677V2.86111H18.1203ZM18.1203 11.6189L17.773 11.6188C17.773 11.6236 17.7721 11.6261 17.7716 11.6272C17.7711 11.6284 17.7704 11.6294 17.7696 11.6302C17.7689 11.631 17.7678 11.6318 17.7663 11.6324C17.7649 11.6329 17.7621 11.6339 17.757 11.6339V11.9812V12.3286C18.1509 12.3286 18.4676 12.015 18.4677 11.619L18.1203 11.6189ZM17.757 11.9812V11.6339H1.25704V11.9812V12.3286H17.757V11.9812ZM1.25704 11.9812L1.25747 11.6339C1.25246 11.6339 1.24973 11.6329 1.2485 11.6324C1.2471 11.6318 1.24612 11.6311 1.24539 11.6304C1.24467 11.6297 1.244 11.6288 1.24346 11.6275C1.243 11.6263 1.24211 11.6237 1.24211 11.6188L0.894737 11.6189L0.547369 11.619C0.54748 12.0141 0.862548 12.3281 1.25661 12.3286L1.25704 11.9812ZM0.894737 11.6189H1.24211V2.86111H0.894737H0.547369V11.6189H0.894737ZM0.894737 2.86111L1.24211 2.86112C1.24212 2.08797 1.87745 1.45264 2.6506 1.45262L2.6506 1.10526L2.65059 0.757887C1.49376 0.757906 0.547388 1.70428 0.547369 2.86111L0.894737 2.86111ZM2.6506 1.10526V1.45262H16.3635V1.10526V0.757887H2.6506V1.10526ZM2.6506 1.83084L2.65059 1.48347C1.89282 1.48349 1.27298 2.10334 1.27295 2.8611L1.62032 2.86111L1.96769 2.86112C1.9677 2.48704 2.27652 2.17822 2.65061 2.17821L2.6506 1.83084ZM1.62032 2.86111H1.27295V11.2556H1.62032H1.96769V2.86111H1.62032ZM1.62032 11.2556V11.603H17.3947V11.2556V10.9083H1.62032V11.2556ZM17.3947 11.2556H17.7421V2.86111H17.3947H17.0474V11.2556H17.3947ZM17.3947 2.86111L17.7421 2.8611C17.7421 2.10291 17.1209 1.48347 16.3635 1.48347V1.83084V2.17821C16.738 2.17821 17.0474 2.48745 17.0474 2.86112L17.3947 2.86111ZM16.3635 1.83084V1.48347H2.6506V1.83084V2.17821H16.3635V1.83084Z" fill="#FF9900"/>
<path d="M16.3635 29.1505C17.3285 29.1505 18.1203 28.3596 18.1203 27.3946V11.8888C18.1202 11.6858 17.9601 11.5265 17.757 11.5265H1.25704C1.05422 11.5267 0.894905 11.6859 0.894737 11.8888V27.3946C0.894753 28.3596 1.68561 29.1505 2.6506 29.1505H16.3635ZM2.6506 28.4249C2.08467 28.4249 1.62034 27.9605 1.62032 27.3946V12.252H17.3947V27.3946C17.3947 27.9606 16.9294 28.4249 16.3635 28.4249H2.6506Z" fill="#FF9900"/>
<path d="M18.1203 27.3946H18.4677V27.3946L18.1203 27.3946ZM18.1203 11.8888L18.4677 11.8885V11.8888H18.1203ZM1.25704 11.5265L1.25661 11.1791H1.25704V11.5265ZM0.894737 11.8888H0.547369L0.547369 11.8885L0.894737 11.8888ZM0.894737 27.3946L0.547369 27.3946V27.3946H0.894737ZM2.6506 29.1505V29.4979H2.65059L2.6506 29.1505ZM2.6506 28.4249V28.7723H2.65059L2.6506 28.4249ZM1.62032 27.3946L1.27295 27.3946V27.3946H1.62032ZM1.62032 12.252H1.27295V11.9047H1.62032V12.252ZM17.3947 12.252V11.9047H17.7421V12.252H17.3947ZM17.3947 27.3946H17.7421V27.3946L17.3947 27.3946ZM16.3635 29.1505V28.8031C17.1369 28.8031 17.7729 28.1675 17.773 27.3946L18.1203 27.3946L18.4677 27.3946C18.4677 28.5517 17.5201 29.4979 16.3635 29.4979V29.1505ZM18.1203 27.3946H17.773V11.8888H18.1203H18.4677V27.3946H18.1203ZM18.1203 11.8888L17.773 11.889C17.773 11.8843 17.7721 11.8818 17.7716 11.8806C17.7711 11.8793 17.7704 11.8783 17.7695 11.8775C17.7687 11.8767 17.7676 11.8759 17.7661 11.8753C17.7648 11.8747 17.762 11.8738 17.757 11.8738V11.5265V11.1791C18.151 11.1791 18.4674 11.4929 18.4677 11.8885L18.1203 11.8888ZM17.757 11.5265V11.8738H1.25704V11.5265V11.1791H17.757V11.5265ZM1.25704 11.5265L1.25747 11.8738C1.25252 11.8738 1.24984 11.8747 1.24863 11.8752C1.24724 11.8758 1.24625 11.8765 1.24549 11.8773C1.24474 11.878 1.24405 11.879 1.24349 11.8804C1.243 11.8815 1.24211 11.8841 1.24211 11.889L0.894737 11.8888L0.547369 11.8885C0.547695 11.4939 0.862425 11.1796 1.25661 11.1791L1.25704 11.5265ZM0.894737 11.8888H1.24211V27.3946H0.894737H0.547369V11.8888H0.894737ZM0.894737 27.3946L1.24211 27.3946C1.24212 28.1678 1.87745 28.8031 2.6506 28.8031L2.6506 29.1505L2.65059 29.4979C1.49376 29.4978 0.547388 28.5515 0.547369 27.3946L0.894737 27.3946ZM2.6506 29.1505V28.8031H16.3635V29.1505V29.4979H2.6506V29.1505ZM2.6506 28.4249L2.65059 28.7723C1.89282 28.7722 1.27298 28.1524 1.27295 27.3946L1.62032 27.3946L1.96769 27.3946C1.9677 27.7687 2.27652 28.0775 2.65061 28.0775L2.6506 28.4249ZM1.62032 27.3946H1.27295V12.252H1.62032H1.96769V27.3946H1.62032ZM1.62032 12.252V11.9047H17.3947V12.252V12.5994H1.62032V12.252ZM17.3947 12.252H17.7421V27.3946H17.3947H17.0474V12.252H17.3947ZM17.3947 27.3946L17.7421 27.3946C17.7421 28.1528 17.1209 28.7723 16.3635 28.7723V28.4249V28.0775C16.738 28.0775 17.0474 27.7683 17.0474 27.3946L17.3947 27.3946ZM16.3635 28.4249V28.7723H2.6506V28.4249V28.0775H16.3635V28.4249Z" fill="#FF9900"/>
<path d="M4.56609 8.91253H4.36293C3.86229 8.91253 3.45597 8.5062 3.45597 8.00556V5.87303C3.45597 5.37239 3.86229 4.96606 4.36293 4.96606H4.56609C5.06674 4.96606 5.47306 5.37239 5.47306 5.87303V8.00556C5.47306 8.5062 5.06674 8.91253 4.56609 8.91253Z" fill="#FF9900"/>
<path d="M4.56609 19.5211H4.36293C3.86229 19.5211 3.45597 19.1147 3.45597 18.6141V15.0957C3.45597 14.5951 3.86229 14.1888 4.36293 14.1888H4.56609C5.06674 14.1888 5.47306 14.5951 5.47306 15.0957V18.6141C5.47306 19.1147 5.06674 19.5211 4.56609 19.5211Z" fill="#FF9900"/>
</svg>
