<svg width="28" height="25" viewBox="0 0 28 25" fill="none" xmlns="http://www.w3.org/2000/svg">
<path d="M14 9.75C14.3274 9.75 14.5947 10.0478 14.5947 10.4062C14.5947 10.6429 14.4756 10.8446 14.3027 10.958V16.1875H24.7324C25.981 16.1875 26.9998 17.3002 27 18.6768V21.5C27 22.8768 25.9811 24 24.7324 24H3.26758C2.0189 24 1 22.8768 1 21.5V18.6768C1.00016 17.3002 2.01899 16.1875 3.26758 16.1875H13.6973V10.958C13.5244 10.8446 13.4053 10.6429 13.4053 10.4062C13.4053 10.0478 13.6726 9.75 14 9.75ZM3.26758 16.8545C2.34351 16.8545 1.60465 17.658 1.60449 18.6768V21.5C1.60449 22.519 2.34341 23.333 3.26758 23.333H24.7324C25.6566 23.333 26.3955 22.519 26.3955 21.5V18.6768C26.3953 17.658 25.6565 16.8545 24.7324 16.8545H3.26758ZM5.22266 18.667C5.93527 18.667 6.51758 19.3137 6.51758 20.0938C6.51758 20.8739 5.93527 21.5205 5.22266 21.5205C4.51025 21.5202 3.91895 20.8737 3.91895 20.0938C3.91895 19.3138 4.51025 18.6673 5.22266 18.667ZM5.22266 19.3438C4.83821 19.344 4.5332 19.6728 4.5332 20.0938C4.5332 20.5147 4.83821 20.8542 5.22266 20.8545C5.60732 20.8545 5.91309 20.5149 5.91309 20.0938C5.91309 19.6726 5.60732 19.3438 5.22266 19.3438ZM14 7.35449C15.4931 7.35449 16.9908 7.98389 18.1289 9.22949C18.2046 9.31503 18.2333 9.43856 18.2041 9.55371C18.1748 9.66905 18.0916 9.75837 17.9863 9.78809C17.8814 9.81756 17.7702 9.78353 17.6943 9.69824C15.6501 7.46086 12.3499 7.46086 10.3057 9.69824C10.2298 9.78353 10.1186 9.81756 10.0137 9.78809C9.90845 9.75837 9.82515 9.66905 9.7959 9.55371C9.76674 9.43856 9.79535 9.31503 9.87109 9.22949C11.0092 7.98389 12.5069 7.35449 14 7.35449ZM14 4.09375C16.4899 4.09375 18.9794 5.13013 20.8779 7.20801C20.9556 7.29173 20.9869 7.41523 20.96 7.53125C20.933 7.64723 20.8517 7.73826 20.7471 7.77051C20.6426 7.80268 20.5307 7.77111 20.4531 7.6875C16.8879 3.78534 11.1121 3.78534 7.54688 7.6875C7.46928 7.77111 7.35743 7.80268 7.25293 7.77051C7.14835 7.73826 7.06701 7.64723 7.04004 7.53125C7.01309 7.41523 7.0444 7.29173 7.12207 7.20801C9.02063 5.13013 11.5101 4.09375 14 4.09375ZM14 1C17.448 1 20.8938 2.43442 23.5234 5.3125C23.601 5.39622 23.6324 5.51976 23.6055 5.63574C23.5784 5.75159 23.4971 5.84278 23.3926 5.875C23.288 5.90723 23.1753 5.87575 23.0977 5.79199C18.0704 0.289721 9.92962 0.289721 4.90234 5.79199C4.82473 5.87575 4.71202 5.90723 4.60742 5.875C4.50292 5.84278 4.42156 5.75159 4.39453 5.63574C4.36759 5.51976 4.39895 5.39622 4.47656 5.3125C7.10616 2.43442 10.552 1 14 1Z" fill="white"/>
<path d="M14.3027 10.958L14.1108 10.6653L13.9527 10.769V10.958H14.3027ZM14.3027 16.1875H13.9527V16.5375H14.3027V16.1875ZM27 18.6768H27.35V18.6767L27 18.6768ZM1 18.6768L0.65 18.6767V18.6768H1ZM13.6973 16.1875V16.5375H14.0473V16.1875H13.6973ZM13.6973 10.958H14.0473V10.769L13.8892 10.6653L13.6973 10.958ZM1.60449 18.6768L1.25449 18.6767V18.6768H1.60449ZM26.3955 18.6768H26.7455V18.6767L26.3955 18.6768ZM5.22266 18.667V18.317H5.22252L5.22266 18.667ZM6.51758 20.0938H6.86758H6.51758ZM5.22266 21.5205L5.22252 21.8705H5.22266V21.5205ZM3.91895 20.0938H3.56895H3.91895ZM5.22266 19.3438V18.9937H5.22242L5.22266 19.3438ZM5.22266 20.8545L5.22241 21.2045H5.22266V20.8545ZM18.1289 9.22949L18.391 8.99744L18.3873 8.99341L18.1289 9.22949ZM18.2041 9.55371L18.5434 9.63976L18.5434 9.63962L18.2041 9.55371ZM17.9863 9.78809L18.0809 10.1251L18.0814 10.1249L17.9863 9.78809ZM17.6943 9.69824L17.9559 9.46565L17.9527 9.46216L17.6943 9.69824ZM10.3057 9.69824L10.0472 9.46214L10.0441 9.46567L10.3057 9.69824ZM10.0137 9.78809L9.91856 10.1249L9.91905 10.1251L10.0137 9.78809ZM9.7959 9.55371L9.45661 9.63962L9.45664 9.63976L9.7959 9.55371ZM9.87109 9.22949L9.61267 8.99338L9.60905 8.99747L9.87109 9.22949ZM20.8779 7.20801L20.6195 7.4441L20.6213 7.44604L20.8779 7.20801ZM20.96 7.53125L21.3009 7.61053L21.3009 7.61044L20.96 7.53125ZM20.7471 7.77051L20.8501 8.10501L20.8502 8.10497L20.7471 7.77051ZM20.4531 7.6875L20.1947 7.92359L20.1966 7.92558L20.4531 7.6875ZM7.54688 7.6875L7.80343 7.92559L7.80526 7.92358L7.54688 7.6875ZM7.25293 7.77051L7.1498 8.10497L7.14994 8.10501L7.25293 7.77051ZM7.04004 7.53125L6.69912 7.61044L6.69914 7.61053L7.04004 7.53125ZM7.12207 7.20801L7.37867 7.44605L7.38046 7.4441L7.12207 7.20801ZM14 1V0.65V1ZM23.5234 5.3125L23.265 5.54859L23.2668 5.55043L23.5234 5.3125ZM23.6055 5.63574L23.9463 5.71528L23.9464 5.71493L23.6055 5.63574ZM23.3926 5.875L23.4956 6.20948L23.4957 6.20946L23.3926 5.875ZM23.0977 5.79199L22.8393 6.02808L22.8409 6.02988L23.0977 5.79199ZM4.90234 5.79199L5.15908 6.02988L5.16073 6.02808L4.90234 5.79199ZM4.60742 5.875L4.50429 6.20946L4.50436 6.20948L4.60742 5.875ZM4.39453 5.63574L4.05361 5.71493L4.05369 5.71528L4.39453 5.63574ZM4.47656 5.3125L4.73325 5.55044L4.73495 5.54858L4.47656 5.3125ZM14 9.75V10.1C14.1016 10.1 14.2447 10.2069 14.2447 10.4062H14.5947H14.9447C14.9447 9.88875 14.5533 9.4 14 9.4V9.75ZM14.5947 10.4062H14.2447C14.2447 10.5227 14.187 10.6154 14.1108 10.6653L14.3027 10.958L14.4947 11.2507C14.7643 11.0739 14.9447 10.7632 14.9447 10.4062H14.5947ZM14.3027 10.958H13.9527V16.1875H14.3027H14.6527V10.958H14.3027ZM14.3027 16.1875V16.5375H24.7324V16.1875V15.8375H14.3027V16.1875ZM24.7324 16.1875V16.5375C25.7582 16.5375 26.6499 17.4626 26.65 18.6768L27 18.6768L27.35 18.6767C27.3498 17.1378 26.2038 15.8375 24.7324 15.8375V16.1875ZM27 18.6768H26.65V21.5H27H27.35V18.6768H27ZM27 21.5H26.65C26.65 22.7164 25.7565 23.65 24.7324 23.65V24V24.35C26.2057 24.35 27.35 23.0372 27.35 21.5H27ZM24.7324 24V23.65H3.26758V24V24.35H24.7324V24ZM3.26758 24V23.65C2.24354 23.65 1.35 22.7164 1.35 21.5H1H0.65C0.65 23.0372 1.79425 24.35 3.26758 24.35V24ZM1 21.5H1.35V18.6768H1H0.65V21.5H1ZM1 18.6768L1.35 18.6768C1.35014 17.4626 2.24182 16.5375 3.26758 16.5375V16.1875V15.8375C1.79617 15.8375 0.650179 17.1378 0.65 18.6767L1 18.6768ZM3.26758 16.1875V16.5375H13.6973V16.1875V15.8375H3.26758V16.1875ZM13.6973 16.1875H14.0473V10.958H13.6973H13.3473V16.1875H13.6973ZM13.6973 10.958L13.8892 10.6653C13.813 10.6154 13.7553 10.5227 13.7553 10.4062H13.4053H13.0553C13.0553 10.7632 13.2357 11.0739 13.5053 11.2507L13.6973 10.958ZM13.4053 10.4062H13.7553C13.7553 10.2069 13.8984 10.1 14 10.1V9.75V9.4C13.4467 9.4 13.0553 9.88875 13.0553 10.4062H13.4053ZM3.26758 16.8545V16.5045C2.12149 16.5045 1.25467 17.4947 1.25449 18.6767L1.60449 18.6768L1.95449 18.6768C1.95462 17.8213 2.56553 17.2045 3.26758 17.2045V16.8545ZM1.60449 18.6768H1.25449V21.5H1.60449H1.95449V18.6768H1.60449ZM1.60449 21.5H1.25449C1.25449 22.6795 2.1189 23.683 3.26758 23.683V23.333V22.983C2.56793 22.983 1.95449 22.3584 1.95449 21.5H1.60449ZM3.26758 23.333V23.683H24.7324V23.333V22.983H3.26758V23.333ZM24.7324 23.333V23.683C25.8811 23.683 26.7455 22.6795 26.7455 21.5H26.3955H26.0455C26.0455 22.3584 25.4321 22.983 24.7324 22.983V23.333ZM26.3955 21.5H26.7455V18.6768H26.3955H26.0455V21.5H26.3955ZM26.3955 18.6768L26.7455 18.6767C26.7453 17.4947 25.8785 16.5045 24.7324 16.5045V16.8545V17.2045C25.4345 17.2045 26.0454 17.8213 26.0455 18.6768L26.3955 18.6768ZM24.7324 16.8545V16.5045H3.26758V16.8545V17.2045H24.7324V16.8545ZM5.22266 18.667V19.017C5.71005 19.017 6.16758 19.4734 6.16758 20.0938H6.51758H6.86758C6.86758 19.1539 6.16048 18.317 5.22266 18.317V18.667ZM6.51758 20.0938H6.16758C6.16758 20.7141 5.71005 21.1705 5.22266 21.1705V21.5205V21.8705C6.16048 21.8705 6.86758 21.0336 6.86758 20.0938H6.51758ZM5.22266 21.5205L5.22279 21.1705C4.73246 21.1703 4.26895 20.7106 4.26895 20.0938H3.91895H3.56895C3.56895 21.0368 4.28804 21.8701 5.22252 21.8705L5.22266 21.5205ZM3.91895 20.0938H4.26895C4.26895 19.4769 4.73246 19.0172 5.22279 19.017L5.22266 18.667L5.22252 18.317C4.28804 18.3174 3.56895 19.1507 3.56895 20.0938H3.91895ZM5.22266 19.3438L5.22242 18.9937C4.6187 18.9942 4.1832 19.5067 4.1832 20.0938H4.5332H4.8832C4.8832 19.8389 5.05771 19.6939 5.22289 19.6938L5.22266 19.3438ZM4.5332 20.0938H4.1832C4.1832 20.674 4.61253 21.2041 5.22241 21.2045L5.22266 20.8545L5.2229 20.5045C5.06388 20.5044 4.8832 20.3554 4.8832 20.0938H4.5332ZM5.22266 20.8545V21.2045C5.83256 21.2045 6.26309 20.6746 6.26309 20.0938H5.91309H5.56309C5.56309 20.3551 5.38208 20.5045 5.22266 20.5045V20.8545ZM5.91309 20.0938H6.26309C6.26309 19.5062 5.82638 18.9937 5.22266 18.9937V19.3438V19.6938C5.38826 19.6938 5.56309 19.8391 5.56309 20.0938H5.91309ZM14 7.35449V7.70449C15.393 7.70449 16.7975 8.29122 17.8705 9.46557L18.1289 9.22949L18.3873 8.99341C17.1841 7.67657 15.5932 7.00449 14 7.00449V7.35449ZM18.1289 9.22949L17.8669 9.46151C17.8638 9.45811 17.8643 9.45693 17.8649 9.45955C17.8655 9.46214 17.8655 9.46523 17.8648 9.4678L18.2041 9.55371L18.5434 9.63962C18.5996 9.41768 18.5471 9.17381 18.3909 8.99747L18.1289 9.22949ZM18.2041 9.55371L17.8648 9.46766C17.8644 9.4696 17.8642 9.46809 17.8674 9.46464C17.8707 9.46113 17.8783 9.45491 17.8912 9.45126L17.9863 9.78809L18.0814 10.1249C18.3186 10.0579 18.4864 9.86415 18.5434 9.63976L18.2041 9.55371ZM17.9863 9.78809L17.8917 9.45112C17.9049 9.44741 17.9194 9.4477 17.9322 9.45164C17.9448 9.45551 17.9525 9.46181 17.9559 9.46567L17.6943 9.69824L17.4328 9.93081C17.5928 10.1108 17.8402 10.1926 18.0809 10.1251L17.9863 9.78809ZM17.6943 9.69824L17.9527 9.46216C15.7697 7.07289 12.2303 7.07289 10.0473 9.46216L10.3057 9.69824L10.5641 9.93432C12.4695 7.84883 15.5305 7.84883 17.4359 9.93432L17.6943 9.69824ZM10.3057 9.69824L10.0441 9.46567C10.0475 9.46181 10.0552 9.45551 10.0678 9.45164C10.0806 9.4477 10.0951 9.44741 10.1083 9.45112L10.0137 9.78809L9.91905 10.1251C10.1598 10.1926 10.4072 10.1108 10.5672 9.93081L10.3057 9.69824ZM10.0137 9.78809L10.1088 9.45126C10.1217 9.45491 10.1293 9.46113 10.1326 9.46464C10.1358 9.46809 10.1356 9.4696 10.1352 9.46766L9.7959 9.55371L9.45664 9.63976C9.51356 9.86415 9.6814 10.0579 9.91856 10.1249L10.0137 9.78809ZM9.7959 9.55371L10.1352 9.4678C10.1345 9.46523 10.1345 9.46214 10.1351 9.45955C10.1357 9.45693 10.1362 9.45811 10.1331 9.46151L9.87109 9.22949L9.60905 8.99747C9.45292 9.17381 9.40041 9.41768 9.45661 9.63962L9.7959 9.55371ZM9.87109 9.22949L10.1295 9.46557C11.2025 8.29122 12.607 7.70449 14 7.70449V7.35449V7.00449C12.4068 7.00449 10.8159 7.67657 9.6127 8.99341L9.87109 9.22949ZM14 4.09375V4.44375C16.3906 4.44375 18.7866 5.43809 20.6195 7.44409L20.8779 7.20801L21.1363 6.97192C19.1721 4.82217 16.5891 3.74375 14 3.74375V4.09375ZM20.8779 7.20801L20.6213 7.44604C20.6178 7.44227 20.6182 7.44085 20.6189 7.44359C20.6196 7.44629 20.6196 7.4495 20.619 7.45206L20.96 7.53125L21.3009 7.61044C21.3528 7.38715 21.2953 7.14324 21.1345 6.96998L20.8779 7.20801ZM20.96 7.53125L20.6191 7.45197C20.6186 7.45415 20.6183 7.45282 20.6213 7.44947C20.6243 7.44605 20.6315 7.43988 20.6439 7.43605L20.7471 7.77051L20.8502 8.10497C21.0851 8.03255 21.2485 7.83585 21.3009 7.61053L20.96 7.53125ZM20.7471 7.77051L20.6441 7.43601C20.6572 7.43197 20.6719 7.43186 20.6851 7.43559C20.6981 7.43927 20.7061 7.44555 20.7097 7.44942L20.4531 7.6875L20.1966 7.92558C20.3606 8.1023 20.6103 8.17884 20.8501 8.10501L20.7471 7.77051ZM20.4531 7.6875L20.7115 7.45142C17.0075 3.39737 10.9925 3.39737 7.28849 7.45142L7.54688 7.6875L7.80526 7.92358C11.2317 4.17332 16.7683 4.17332 20.1947 7.92358L20.4531 7.6875ZM7.54688 7.6875L7.29033 7.44942C7.29391 7.44555 7.30188 7.43927 7.31488 7.43559C7.32812 7.43186 7.34284 7.43197 7.35592 7.43601L7.25293 7.77051L7.14994 8.10501C7.38973 8.17884 7.63942 8.1023 7.80342 7.92558L7.54688 7.6875ZM7.25293 7.77051L7.35606 7.43605C7.36849 7.43988 7.37567 7.44605 7.37872 7.44947C7.38171 7.45282 7.38145 7.45415 7.38094 7.45197L7.04004 7.53125L6.69914 7.61053C6.75153 7.83585 6.91492 8.03255 7.1498 8.10497L7.25293 7.77051ZM7.04004 7.53125L7.38096 7.45206C7.38037 7.4495 7.38039 7.44629 7.38107 7.44359C7.38177 7.44085 7.38216 7.44227 7.37866 7.44604L7.12207 7.20801L6.86548 6.96998C6.70474 7.14324 6.64725 7.38715 6.69912 7.61044L7.04004 7.53125ZM7.12207 7.20801L7.38046 7.4441C9.21335 5.43809 11.6094 4.44375 14 4.44375V4.09375V3.74375C11.4109 3.74375 8.82792 4.82217 6.86369 6.97192L7.12207 7.20801ZM14 1V1.35C17.3488 1.35 20.7011 2.74237 23.265 5.54858L23.5234 5.3125L23.7818 5.07642C21.0866 2.12647 17.5473 0.65 14 0.65V1ZM23.5234 5.3125L23.2668 5.55043C23.2633 5.54668 23.2637 5.54532 23.2644 5.54813C23.2651 5.55089 23.2651 5.55409 23.2645 5.55655L23.6055 5.63574L23.9464 5.71493C23.9983 5.49158 23.9406 5.24772 23.7801 5.07457L23.5234 5.3125ZM23.6055 5.63574L23.2646 5.5562C23.2641 5.5584 23.2638 5.5572 23.2667 5.55397C23.2696 5.55068 23.2768 5.54444 23.2894 5.54054L23.3926 5.875L23.4957 6.20946C23.7307 6.137 23.8939 5.94005 23.9463 5.71528L23.6055 5.63574ZM23.3926 5.875L23.2895 5.54052C23.3026 5.5365 23.3169 5.53645 23.3296 5.54003C23.3422 5.54357 23.3503 5.54974 23.3544 5.55411L23.0977 5.79199L22.8409 6.02988C23.0056 6.2076 23.2565 6.28316 23.4956 6.20948L23.3926 5.875ZM23.0977 5.79199L23.356 5.55591C18.19 -0.0982517 9.81001 -0.0982516 4.64395 5.55591L4.90234 5.79199L5.16073 6.02808C10.0492 0.677693 17.9508 0.677693 22.8393 6.02808L23.0977 5.79199ZM4.90234 5.79199L4.64561 5.55411C4.64966 5.54974 4.65777 5.54357 4.67037 5.54003C4.68311 5.53645 4.69744 5.5365 4.71048 5.54052L4.60742 5.875L4.50436 6.20948C4.74348 6.28316 4.9944 6.2076 5.15907 6.02988L4.90234 5.79199ZM4.60742 5.875L4.71055 5.54054C4.7232 5.54444 4.73038 5.55068 4.73332 5.55397C4.73619 5.5572 4.73589 5.5584 4.73537 5.5562L4.39453 5.63574L4.05369 5.71528C4.10614 5.94005 4.2693 6.137 4.50429 6.20946L4.60742 5.875ZM4.39453 5.63574L4.73545 5.55655C4.73488 5.55409 4.73488 5.55089 4.73559 5.54813C4.7363 5.54532 4.73672 5.54668 4.73325 5.55043L4.47656 5.3125L4.21988 5.07457C4.05937 5.24772 4.00173 5.49158 4.05361 5.71493L4.39453 5.63574ZM4.47656 5.3125L4.73495 5.54858C7.29889 2.74237 10.6512 1.35 14 1.35V1V0.65C10.4527 0.65 6.91343 2.12647 4.21817 5.07642L4.47656 5.3125Z" fill="white"/>
</svg>
