<svg width="17" height="31" viewBox="0 0 17 31" fill="none" xmlns="http://www.w3.org/2000/svg">
<path d="M10.8701 1C11.0151 1.0001 11.1602 1.04875 11.2568 1.19336C11.3534 1.33796 11.353 1.48235 11.3047 1.62695L7.77344 11.1816L15.3203 8.52734C15.5137 8.47913 15.7074 8.52739 15.8525 8.67188C15.9977 8.81662 16.0459 9.00975 15.9492 9.25098L7.72461 29.7109C7.67602 29.9036 7.48242 30 7.28906 30H7.14453C6.90263 29.9517 6.75728 29.71 6.80566 29.4688L9.32129 15.3789L1.58105 16.7783C1.43597 16.7783 1.2423 16.7302 1.14551 16.6338C1.04875 16.489 1 16.344 1 16.1992L2.93555 1.43457C2.98392 1.19334 3.17709 1.00005 3.41895 1H10.8701ZM3.85449 1.96484L2.01562 15.6211L9.80566 14.2217H9.90234C10.0473 14.2217 10.1445 14.2698 10.2412 14.3662C10.386 14.4628 10.4341 14.6562 10.3857 14.8008L8.5957 24.9336L14.6436 9.78223L7.14453 12.3877C6.99939 12.4842 6.8053 12.4358 6.66016 12.291C6.56358 12.1944 6.51515 12.0014 6.56348 11.8086L10.1924 1.96484H3.85449Z" fill="white"/>
<path d="M10.8701 1L10.8702 0.9H10.8701V1ZM11.2568 1.19336L11.34 1.13784L11.34 1.13779L11.2568 1.19336ZM11.3047 1.62695L11.3985 1.66164L11.3995 1.65863L11.3047 1.62695ZM7.77344 11.1816L7.67964 11.147L7.60587 11.3466L7.80662 11.276L7.77344 11.1816ZM15.3203 8.52734L15.296 8.42989L15.2871 8.43301L15.3203 8.52734ZM15.8525 8.67188L15.9232 8.60107L15.9231 8.60101L15.8525 8.67188ZM15.9492 9.25098L16.042 9.28827L16.042 9.28819L15.9492 9.25098ZM7.72461 29.7109L7.63097 29.6733L7.62765 29.6865L7.72461 29.7109ZM7.14453 30L7.12497 30.0981L7.13465 30.1H7.14453V30ZM6.80566 29.4688L6.90373 29.4884L6.90411 29.4863L6.80566 29.4688ZM9.32129 15.3789L9.41973 15.3965L9.44501 15.2549L9.3035 15.2805L9.32129 15.3789ZM1.58105 16.7783V16.8783H1.59002L1.59885 16.8767L1.58105 16.7783ZM1.14551 16.6338L1.06237 16.6894L1.06789 16.6976L1.07493 16.7046L1.14551 16.6338ZM1 16.1992L0.9 16.1861V16.1992H1ZM2.93555 1.43457L2.83727 1.41486L2.8364 1.42157L2.93555 1.43457ZM3.41895 1V0.9H3.41892L3.41895 1ZM3.85449 1.96484V1.86484H3.76706L3.75539 1.9515L3.85449 1.96484ZM2.01562 15.6211L1.91652 15.6077L1.8982 15.7438L2.03331 15.7195L2.01562 15.6211ZM9.80566 14.2217V14.1217H9.79675L9.78798 14.1233L9.80566 14.2217ZM9.90234 14.2217L9.90239 14.1217H9.90234V14.2217ZM10.2412 14.3662L10.1706 14.437L10.1776 14.444L10.1857 14.4494L10.2412 14.3662ZM10.3857 14.8008L10.2909 14.7691L10.2886 14.7761L10.2873 14.7834L10.3857 14.8008ZM8.5957 24.9336L8.49723 24.9162L8.68858 24.9707L8.5957 24.9336ZM14.6436 9.78223L14.7364 9.8193L14.8176 9.61588L14.6107 9.68777L14.6436 9.78223ZM7.14453 12.3877L7.11171 12.2932L7.09973 12.2974L7.08916 12.3044L7.14453 12.3877ZM6.66016 12.291L6.58944 12.3617L6.58954 12.3618L6.66016 12.291ZM6.56348 11.8086L6.4691 11.7738L6.46648 11.7843L6.56348 11.8086ZM10.1924 1.96484L10.2862 1.99943L10.3358 1.86484H10.1924V1.96484ZM10.8701 1L10.8701 1.1C10.9919 1.10008 11.1006 1.13962 11.1737 1.24893L11.2568 1.19336L11.34 1.13779C11.2197 0.957874 11.0383 0.900113 10.8702 0.9L10.8701 1ZM11.2568 1.19336L11.1737 1.24888C11.249 1.36179 11.2509 1.4724 11.2098 1.59528L11.3047 1.62695L11.3995 1.65863C11.4551 1.4923 11.4577 1.31413 11.34 1.13784L11.2568 1.19336ZM11.3047 1.62695L11.2109 1.59229L7.67964 11.147L7.77344 11.1816L7.86724 11.2163L11.3985 1.66162L11.3047 1.62695ZM7.77344 11.1816L7.80662 11.276L15.3535 8.62168L15.3203 8.52734L15.2871 8.43301L7.74026 11.0873L7.77344 11.1816ZM15.3203 8.52734L15.3445 8.62437C15.5054 8.58426 15.6628 8.62402 15.782 8.74274L15.8525 8.67188L15.9231 8.60101C15.7521 8.43075 15.522 8.374 15.2961 8.43031L15.3203 8.52734ZM15.8525 8.67188L15.7819 8.74268C15.8423 8.80286 15.8794 8.8697 15.8933 8.94369C15.9072 9.01803 15.8991 9.10718 15.8564 9.21376L15.9492 9.25098L16.042 9.28819C16.096 9.15354 16.1121 9.02552 16.0899 8.9068C16.0675 8.78773 16.0079 8.68564 15.9232 8.60107L15.8525 8.67188ZM15.9492 9.25098L15.8564 9.21368L7.63183 29.6736L7.72461 29.7109L7.81739 29.7482L16.042 9.28827L15.9492 9.25098ZM7.72461 29.7109L7.62765 29.6865C7.59455 29.8177 7.4569 29.9 7.28906 29.9V30V30.1C7.50794 30.1 7.75749 29.9895 7.82157 29.7354L7.72461 29.7109ZM7.28906 30V29.9H7.14453V30V30.1H7.28906V30ZM7.14453 30L7.16409 29.9019C6.98157 29.8655 6.86513 29.6808 6.90371 29.4884L6.80566 29.4688L6.70762 29.4491C6.64944 29.7392 6.82369 30.038 7.12497 30.0981L7.14453 30ZM6.80566 29.4688L6.90411 29.4863L9.41973 15.3965L9.32129 15.3789L9.22285 15.3613L6.70722 29.4512L6.80566 29.4688ZM9.32129 15.3789L9.3035 15.2805L1.56326 16.6799L1.58105 16.7783L1.59885 16.8767L9.33908 15.4773L9.32129 15.3789ZM1.58105 16.7783V16.6783C1.51849 16.6783 1.44367 16.6678 1.37444 16.6466C1.3038 16.625 1.2484 16.5951 1.21609 16.5629L1.14551 16.6338L1.07493 16.7046C1.13942 16.7689 1.22924 16.8113 1.3159 16.8378C1.40397 16.8648 1.49853 16.8783 1.58105 16.8783V16.7783ZM1.14551 16.6338L1.22864 16.5782C1.14055 16.4464 1.1 16.3204 1.1 16.1992H1H0.9C0.9 16.3676 0.956947 16.5316 1.06237 16.6894L1.14551 16.6338ZM1 16.1992L1.09915 16.2122L3.0347 1.44757L2.93555 1.43457L2.8364 1.42157L0.900848 16.1862L1 16.1992ZM2.93555 1.43457L3.03359 1.45423C3.07476 1.24893 3.23495 1.10004 3.41897 1.1L3.41895 1L3.41892 0.9C3.11922 0.900062 2.89308 1.13775 2.8375 1.41491L2.93555 1.43457ZM3.41895 1V1.1H10.8701V1V0.9H3.41895V1ZM3.85449 1.96484L3.75539 1.9515L1.91652 15.6077L2.01562 15.6211L2.11473 15.6344L3.9536 1.97819L3.85449 1.96484ZM2.01562 15.6211L2.03331 15.7195L9.82335 14.3201L9.80566 14.2217L9.78798 14.1233L1.99794 15.5227L2.01562 15.6211ZM9.80566 14.2217V14.3217H9.90234V14.2217V14.1217H9.80566V14.2217ZM9.90234 14.2217L9.9023 14.3217C10.0175 14.3217 10.0902 14.3568 10.1706 14.437L10.2412 14.3662L10.3118 14.2954C10.1989 14.1827 10.0771 14.1218 9.90239 14.1217L9.90234 14.2217ZM10.2412 14.3662L10.1857 14.4494C10.2886 14.518 10.3267 14.662 10.2909 14.7691L10.3857 14.8008L10.4806 14.8325C10.5415 14.6503 10.4835 14.4076 10.2967 14.283L10.2412 14.3662ZM10.3857 14.8008L10.2873 14.7834L8.49723 24.9162L8.5957 24.9336L8.69418 24.951L10.4842 14.8182L10.3857 14.8008ZM8.5957 24.9336L8.68858 24.9707L14.7364 9.8193L14.6436 9.78223L14.5507 9.74515L8.50283 24.8965L8.5957 24.9336ZM14.6436 9.78223L14.6107 9.68777L7.11171 12.2932L7.14453 12.3877L7.17735 12.4822L14.6764 9.87669L14.6436 9.78223ZM7.14453 12.3877L7.08916 12.3044C6.99857 12.3647 6.8568 12.3459 6.73077 12.2202L6.66016 12.291L6.58954 12.3618C6.75379 12.5256 7.00021 12.6037 7.1999 12.471L7.14453 12.3877ZM6.66016 12.291L6.73088 12.2203C6.66513 12.1546 6.61841 12.0007 6.66048 11.8329L6.56348 11.8086L6.46648 11.7843C6.41189 12.0021 6.46204 12.2343 6.58944 12.3617L6.66016 12.291ZM6.56348 11.8086L6.6573 11.8432L10.2862 1.99943L10.1924 1.96484L10.0986 1.93025L6.46965 11.774L6.56348 11.8086ZM10.1924 1.96484V1.86484H3.85449V1.96484V2.06484H10.1924V1.96484Z" fill="white"/>
</svg>
