<svg width="27" height="26" viewBox="0 0 27 26" fill="none" xmlns="http://www.w3.org/2000/svg">
<path d="M13.5889 0.182495C16.8118 0.182497 20.0384 1.41036 22.4942 3.86609C27.4056 8.77757 27.4056 16.7564 22.4942 21.6678C17.5827 26.5792 9.59508 26.5792 4.68361 21.6678C-0.227874 16.7564 -0.227865 8.77756 4.68361 3.86609C7.13934 1.41038 10.3659 0.182507 13.5889 0.182495ZM13.5889 1.31824C10.6612 1.31825 7.73415 2.43371 5.49708 4.67078C1.02299 9.14491 1.02297 16.3891 5.49708 20.8632C9.97122 25.3373 17.2066 25.3373 21.6807 20.8632C26.1547 16.3891 26.1547 9.1449 21.6807 4.67078C19.4436 2.43372 16.5165 1.31824 13.5889 1.31824ZM5.33595 11.7704C5.50022 11.7598 5.66193 11.82 5.77833 11.9364C5.89455 12.0527 5.9549 12.2137 5.94435 12.3778C5.83913 14.4756 6.55505 16.6006 8.15236 18.1981C9.75012 19.7958 11.8757 20.5123 13.9736 20.4071C14.1779 20.396 14.3725 20.4946 14.4844 20.6659C14.5963 20.8374 14.6082 21.0555 14.5156 21.2382C14.4231 21.4207 14.2405 21.5404 14.0361 21.5516C11.6382 21.6719 9.18392 20.839 7.34767 19.0028C5.51185 17.1668 4.67955 14.7131 4.79982 12.3153C4.81304 12.0233 5.04425 11.7886 5.33595 11.7704ZM13.5889 8.5155C14.6787 8.51551 15.7646 8.93045 16.5928 9.75867C18.2491 11.4151 18.2492 14.1189 16.5928 15.7753C14.9363 17.4317 12.2414 17.4317 10.585 15.7753C8.92853 14.1188 8.92856 11.4151 10.585 9.75867C11.4132 8.93044 12.499 8.51551 13.5889 8.5155ZM13.5889 9.65125C12.7943 9.65125 11.9992 9.96261 11.3897 10.5721C10.1706 11.7913 10.1706 13.7515 11.3897 14.9706C12.6088 16.1897 14.569 16.1897 15.7881 14.9706C17.0072 13.7515 17.0072 11.7912 15.7881 10.5721C15.1786 9.9626 14.3834 9.65126 13.5889 9.65125ZM13.5889 3.97351C15.8411 3.97168 18.1087 4.79999 19.8301 6.52136C21.6662 8.35752 22.4894 10.8119 22.3692 13.2098C22.3542 13.5257 22.0855 13.7696 21.7695 13.7548C21.4537 13.7398 21.21 13.4719 21.2246 13.1561C21.3299 11.0581 20.6133 8.93251 19.0156 7.33484C17.418 5.73747 15.2932 5.02171 13.1953 5.12683C12.991 5.14757 12.7911 5.05792 12.6709 4.89148C12.5508 4.72493 12.5283 4.50656 12.6123 4.31921C12.6966 4.13179 12.8747 4.00306 13.0791 3.9823C13.0999 3.98116 13.1208 3.98117 13.1416 3.9823C13.2915 3.97479 13.4387 3.97363 13.5889 3.97351Z" fill="white"/>
<path d="M13.5889 0.182495V0.0324951H13.5889L13.5889 0.182495ZM22.4942 3.86609L22.6002 3.76002V3.76002L22.4942 3.86609ZM22.4942 21.6678L22.6002 21.7739L22.6002 21.7739L22.4942 21.6678ZM4.68361 21.6678L4.57754 21.7739L4.57754 21.7739L4.68361 21.6678ZM4.68361 3.86609L4.57754 3.76002L4.57754 3.76002L4.68361 3.86609ZM13.5889 1.31824V1.16824L13.5889 1.16824L13.5889 1.31824ZM5.49708 4.67078L5.39102 4.56471L5.39102 4.56471L5.49708 4.67078ZM5.49708 20.8632L5.60315 20.7571H5.60315L5.49708 20.8632ZM21.6807 20.8632L21.5746 20.7571L21.6807 20.8632ZM21.6807 4.67078L21.7867 4.56471V4.56471L21.6807 4.67078ZM5.33595 11.7704L5.34529 11.9201L5.34562 11.9201L5.33595 11.7704ZM5.77833 11.9364L5.88446 11.8304L5.8844 11.8303L5.77833 11.9364ZM5.94435 12.3778L5.79464 12.3682L5.79454 12.3703L5.94435 12.3778ZM8.15236 18.1981L8.04628 18.3042L8.04629 18.3042L8.15236 18.1981ZM13.9736 20.4071L13.9812 20.5569L13.9818 20.5569L13.9736 20.4071ZM14.4844 20.6659L14.61 20.5839L14.61 20.5839L14.4844 20.6659ZM14.5156 21.2382L14.6494 21.306L14.6494 21.306L14.5156 21.2382ZM14.0361 21.5516L14.0437 21.7014L14.0444 21.7014L14.0361 21.5516ZM7.34767 19.0028L7.2416 19.1089L7.24161 19.1089L7.34767 19.0028ZM4.79982 12.3153L4.94963 12.3228L4.94967 12.3221L4.79982 12.3153ZM13.5889 8.5155L13.5889 8.3655H13.5889L13.5889 8.5155ZM16.5928 9.75867L16.6989 9.6526L16.6989 9.6526L16.5928 9.75867ZM16.5928 15.7753L16.6989 15.8813L16.5928 15.7753ZM10.585 15.7753L10.691 15.6692L10.691 15.6692L10.585 15.7753ZM10.585 9.75867L10.4789 9.6526L10.4789 9.6526L10.585 9.75867ZM13.5889 9.65125L13.5889 9.50125H13.5889L13.5889 9.65125ZM11.3897 10.5721L11.2836 10.4661L11.2836 10.4661L11.3897 10.5721ZM11.3897 14.9706L11.4957 14.8645H11.4957L11.3897 14.9706ZM15.7881 14.9706L15.8942 15.0766V15.0766L15.7881 14.9706ZM15.7881 10.5721L15.8942 10.4661H15.8942L15.7881 10.5721ZM13.5889 3.97351L13.5888 3.82351H13.5888L13.5889 3.97351ZM19.8301 6.52136L19.9362 6.4153L19.9362 6.4153L19.8301 6.52136ZM22.3692 13.2098L22.2193 13.2023L22.2193 13.2027L22.3692 13.2098ZM21.7695 13.7548L21.7625 13.9046L21.7625 13.9046L21.7695 13.7548ZM21.2246 13.1561L21.0748 13.1486L21.0748 13.1492L21.2246 13.1561ZM19.0156 7.33484L19.1217 7.22877L19.1217 7.22876L19.0156 7.33484ZM13.1953 5.12683L13.1878 4.97682L13.1802 4.9776L13.1953 5.12683ZM12.6709 4.89148L12.5493 4.97923L12.5493 4.97931L12.6709 4.89148ZM12.6123 4.31921L12.4755 4.25772L12.4755 4.25783L12.6123 4.31921ZM13.0791 3.9823L13.0709 3.83236L13.064 3.83307L13.0791 3.9823ZM13.1416 3.9823L13.1335 4.13208L13.1413 4.1325L13.1491 4.13211L13.1416 3.9823ZM13.5889 0.182495V0.332495C16.7738 0.332497 19.9617 1.54578 22.3881 3.97215L22.4942 3.86609L22.6002 3.76002C20.1151 1.27495 16.8499 0.0324968 13.5889 0.0324951V0.182495ZM22.4942 3.86609L22.3881 3.97215C27.241 8.82506 27.241 16.7089 22.3881 21.5618L22.4942 21.6678L22.6002 21.7739C27.5703 16.8038 27.5703 8.73008 22.6002 3.76002L22.4942 3.86609ZM22.4942 21.6678L22.3881 21.5618C17.5352 26.4146 9.64257 26.4146 4.78967 21.5618L4.68361 21.6678L4.57754 21.7739C9.5476 26.7439 17.6302 26.7439 22.6002 21.7739L22.4942 21.6678ZM4.68361 21.6678L4.78967 21.5618C-0.0632287 16.7089 -0.0632205 8.82505 4.78967 3.97215L4.68361 3.86609L4.57754 3.76002C-0.392509 8.73007 -0.392518 16.8039 4.57754 21.7739L4.68361 21.6678ZM4.68361 3.86609L4.78967 3.97216C7.21606 1.54579 10.404 0.332506 13.5889 0.332495V0.182495L13.5889 0.0324951C10.3279 0.0325067 7.06262 1.27497 4.57754 3.76002L4.68361 3.86609ZM13.5889 1.31824L13.5889 1.16824C10.6231 1.16825 7.65735 2.29838 5.39102 4.56471L5.49708 4.67078L5.60315 4.77684C7.81095 2.56904 10.6994 1.46825 13.5889 1.46824V1.31824ZM5.49708 4.67078L5.39102 4.56471C0.858351 9.09742 0.858321 16.4365 5.39102 20.9692L5.49708 20.8632L5.60315 20.7571C1.18761 16.3416 1.18764 9.1924 5.60315 4.77684L5.49708 4.67078ZM5.49708 20.8632L5.39102 20.9692C9.92373 25.502 17.254 25.5019 21.7867 20.9692L21.6807 20.8632L21.5746 20.7571C17.1591 25.1727 10.0187 25.1727 5.60315 20.7571L5.49708 20.8632ZM21.6807 20.8632L21.7867 20.9692C26.3194 16.4366 26.3194 9.09741 21.7867 4.56471L21.6807 4.67078L21.5746 4.77684C25.9901 9.19239 25.9901 16.3416 21.5746 20.7571L21.6807 20.8632ZM21.6807 4.67078L21.7867 4.56471C19.5204 2.29839 16.5547 1.16824 13.5889 1.16824V1.31824V1.46824C16.4784 1.46824 19.3668 2.56905 21.5746 4.77684L21.6807 4.67078ZM5.33595 11.7704L5.34562 11.9201C5.4673 11.9122 5.5867 11.9569 5.67227 12.0425L5.77833 11.9364L5.8844 11.8303C5.73717 11.6831 5.53315 11.6073 5.32628 11.6207L5.33595 11.7704ZM5.77833 11.9364L5.67221 12.0424C5.75783 12.1281 5.80246 12.2469 5.79466 12.3682L5.94435 12.3778L6.09404 12.3874C6.10735 12.1805 6.03127 11.9774 5.88446 11.8304L5.77833 11.9364ZM5.94435 12.3778L5.79454 12.3703C5.68736 14.5071 6.41673 16.6744 8.04628 18.3042L8.15236 18.1981L8.25843 18.0921C6.69338 16.5268 5.9909 14.4441 6.09416 12.3853L5.94435 12.3778ZM8.15236 18.1981L8.04629 18.3042C9.6763 19.9341 11.8442 20.664 13.9812 20.5569L13.9736 20.4071L13.9661 20.2573C11.9072 20.3605 9.82394 19.6575 8.25842 18.0921L8.15236 18.1981ZM13.9736 20.4071L13.9818 20.5569C14.1326 20.5487 14.2762 20.6215 14.3588 20.7479L14.4844 20.6659L14.61 20.5839C14.4688 20.3677 14.2232 20.2434 13.9655 20.2573L13.9736 20.4071ZM14.4844 20.6659L14.3588 20.7479C14.4414 20.8744 14.4502 21.0355 14.3818 21.1704L14.5156 21.2382L14.6494 21.306C14.7662 21.0755 14.7512 20.8003 14.61 20.5839L14.4844 20.6659ZM14.5156 21.2382L14.3818 21.1704C14.3134 21.3053 14.1785 21.3936 14.0279 21.4019L14.0361 21.5516L14.0444 21.7014C14.3024 21.6872 14.5328 21.5361 14.6494 21.306L14.5156 21.2382ZM14.0361 21.5516L14.0286 21.4018C11.6701 21.5201 9.25797 20.7009 7.45373 18.8967L7.34767 19.0028L7.24161 19.1089C9.10987 20.9771 11.6064 21.8236 14.0437 21.7014L14.0361 21.5516ZM7.34767 19.0028L7.45374 18.8967C5.64995 17.0927 4.83133 14.6813 4.94963 12.3228L4.79982 12.3153L4.65001 12.3078C4.52776 14.745 5.37376 17.2408 7.2416 19.1089L7.34767 19.0028ZM4.79982 12.3153L4.94967 12.3221C4.95941 12.1068 5.12989 11.9335 5.34529 11.9201L5.33595 11.7704L5.32662 11.6207C4.9586 11.6436 4.66666 11.9398 4.64997 12.3085L4.79982 12.3153ZM13.5889 8.5155L13.5889 8.6655C14.6406 8.66551 15.6878 9.06579 16.4867 9.86473L16.5928 9.75867L16.6989 9.6526C15.8414 8.79511 14.7169 8.36551 13.5889 8.3655L13.5889 8.5155ZM16.5928 9.75867L16.4867 9.86473C18.0845 11.4626 18.0845 14.0714 16.4867 15.6692L16.5928 15.7753L16.6989 15.8813C18.4138 14.1663 18.4138 11.3676 16.6989 9.6526L16.5928 9.75867ZM16.5928 15.7753L16.4867 15.6692C14.8889 17.2671 12.2889 17.2671 10.691 15.6692L10.585 15.7753L10.4789 15.8813C12.1939 17.5964 14.9838 17.5964 16.6989 15.8813L16.5928 15.7753ZM10.585 15.7753L10.691 15.6692C9.09317 14.0714 9.0932 11.4626 10.691 9.86473L10.585 9.75867L10.4789 9.6526C8.76392 11.3676 8.76388 14.1663 10.4789 15.8813L10.585 15.7753ZM10.585 9.75867L10.691 9.86473C11.49 9.06578 12.5372 8.66551 13.5889 8.6655V8.5155L13.5889 8.3655C12.4609 8.36551 11.3364 8.7951 10.4789 9.6526L10.585 9.75867ZM13.5889 9.65125L13.5889 9.50125C12.755 9.50125 11.9216 9.82807 11.2836 10.4661L11.3897 10.5721L11.4957 10.6782C12.0768 10.0972 12.8336 9.80125 13.5889 9.80124V9.65125ZM11.3897 10.5721L11.2836 10.4661C10.0059 11.7438 10.0059 13.799 11.2836 15.0766L11.3897 14.9706L11.4957 14.8645C10.3352 13.704 10.3352 11.8387 11.4957 10.6782L11.3897 10.5721ZM11.3897 14.9706L11.2836 15.0766C12.5613 16.3543 14.6165 16.3543 15.8942 15.0766L15.7881 14.9706L15.682 14.8645C14.5215 16.0251 12.6563 16.025 11.4957 14.8645L11.3897 14.9706ZM15.7881 14.9706L15.8942 15.0766C17.1718 13.799 17.1718 11.7438 15.8942 10.4661L15.7881 10.5721L15.682 10.6782C16.8425 11.8387 16.8425 13.704 15.682 14.8645L15.7881 14.9706ZM15.7881 10.5721L15.8942 10.4661C15.2561 9.82806 14.4227 9.50126 13.5889 9.50125L13.5889 9.65125L13.5889 9.80124C14.3442 9.80126 15.101 10.0972 15.682 10.6782L15.7881 10.5721ZM13.5889 3.97351L13.589 4.12351C15.8046 4.12171 18.033 4.9364 19.724 6.62743L19.8301 6.52136L19.9362 6.4153C18.1844 4.66357 15.8776 3.82165 13.5888 3.82351L13.5889 3.97351ZM19.8301 6.52136L19.724 6.62743C21.5278 8.43129 22.3377 10.8433 22.2193 13.2023L22.3692 13.2098L22.519 13.2174C22.6412 10.7804 21.8046 8.28374 19.9362 6.4153L19.8301 6.52136ZM22.3692 13.2098L22.2193 13.2027C22.2083 13.4356 22.01 13.6159 21.7766 13.6049L21.7695 13.7548L21.7625 13.9046C22.1609 13.9233 22.5001 13.6158 22.519 13.2169L22.3692 13.2098ZM21.7695 13.7548L21.7766 13.6049C21.5436 13.5939 21.3636 13.3962 21.3745 13.1631L21.2246 13.1561L21.0748 13.1492C21.0563 13.5477 21.3639 13.8857 21.7625 13.9046L21.7695 13.7548ZM21.2246 13.1561L21.3744 13.1636C21.4816 11.0265 20.7516 8.85868 19.1217 7.22877L19.0156 7.33484L18.9096 7.44091C20.475 9.00633 21.1781 11.0896 21.0748 13.1486L21.2246 13.1561ZM19.0156 7.33484L19.1217 7.22876C17.4918 5.59915 15.3247 4.86995 13.1878 4.97702L13.1953 5.12683L13.2028 5.27664C15.2617 5.17348 17.3442 5.8758 18.9096 7.44091L19.0156 7.33484ZM13.1953 5.12683L13.1802 4.9776C13.0291 4.99294 12.8813 4.92663 12.7925 4.80365L12.6709 4.89148L12.5493 4.97931C12.7009 5.1892 12.953 5.30221 13.2105 5.27606L13.1953 5.12683ZM12.6709 4.89148L12.7926 4.80373C12.7037 4.68051 12.6871 4.51896 12.7492 4.3806L12.6123 4.31921L12.4755 4.25783C12.3695 4.49416 12.3979 4.76936 12.5493 4.97923L12.6709 4.89148ZM12.6123 4.31921L12.7491 4.38071C12.8115 4.24204 12.9433 4.14686 13.0943 4.13153L13.0791 3.9823L13.064 3.83307C12.8061 3.85925 12.5817 4.02154 12.4755 4.25772L12.6123 4.31921ZM13.0791 3.9823L13.0873 4.13208C13.1026 4.13124 13.1181 4.13124 13.1335 4.13208L13.1416 3.9823L13.1498 3.83252C13.1236 3.8311 13.0972 3.83108 13.0709 3.83252L13.0791 3.9823ZM13.1416 3.9823L13.1491 4.13211C13.2951 4.1248 13.4393 4.12363 13.589 4.12351L13.5889 3.97351L13.5888 3.82351C13.4382 3.82363 13.2879 3.82478 13.1341 3.83249L13.1416 3.9823Z" fill="white"/>
</svg>
